PalanquinDark SBld.ufo
<glyph name="exclam" format="1">
  <advance width="246"/>
  <unicode hex="0021"/>
  <outline>
    <contour>
      <point x="59" y="247" type="line"/>
      <point x="188" y="204" type="line"/>
      <point x="206" y="710" type="line"/>
      <point x="40" y="710" type="line"/>
    </contour>
    <contour>
      <point x="208" y="85" type="curve" smooth="yes"/>
      <point x="208" y="133"/>
      <point x="171" y="170"/>
      <point x="123" y="170" type="curve" smooth="yes"/>
      <point x="75" y="170"/>
      <point x="37" y="133"/>
      <point x="37" y="85" type="curve" smooth="yes"/>
      <point x="37" y="36"/>
      <point x="75" y="0"/>
      <point x="123" y="0" type="curve" smooth="yes"/>
      <point x="171" y="0"/>
      <point x="208" y="36"/>
    </contour>
  </outline>
</glyph>
<glyph name="numbersign" format="1">
  <advance width="606"/>
  <unicode hex="0023"/>
  <outline>
    <contour>
      <point x="552" y="517" type="curve"/>
      <point x="416" y="517" type="line"/>
      <point x="408" y="486"/>
      <point x="400" y="452"/>
      <point x="393" y="419" type="curve"/>
      <point x="289" y="419" type="line"/>
      <point x="313" y="517" type="line"/>
      <point x="176" y="517" type="line"/>
      <point x="153" y="419" type="line"/>
      <point x="20" y="419" type="line"/>
      <point x="31" y="299" type="line"/>
      <point x="124" y="299" type="line"/>
      <point x="117" y="269"/>
      <point x="110" y="239"/>
      <point x="104" y="209" type="curve"/>
      <point x="20" y="209" type="line"/>
      <point x="31" y="89" type="line"/>
      <point x="75" y="89" type="line"/>
      <point x="68" y="55"/>
      <point x="60" y="23"/>
      <point x="53" y="-10" type="curve"/>
      <point x="187" y="-15" type="line"/>
      <point x="196" y="19"/>
      <point x="203" y="54"/>
      <point x="212" y="89" type="curve"/>
      <point x="315" y="89" type="line"/>
      <point x="308" y="55"/>
      <point x="300" y="23"/>
      <point x="293" y="-10" type="curve"/>
      <point x="428" y="-15" type="line"/>
      <point x="436" y="19"/>
      <point x="443" y="54"/>
      <point x="452" y="89" type="curve"/>
      <point x="585" y="89" type="line"/>
      <point x="575" y="209" type="line"/>
      <point x="480" y="209" type="line"/>
      <point x="501" y="299" type="line"/>
      <point x="585" y="299" type="line"/>
      <point x="575" y="419" type="line"/>
      <point x="529" y="419" type="line"/>
      <point x="537" y="451"/>
      <point x="545" y="484"/>
    </contour>
    <contour>
      <point x="261" y="299" type="curve"/>
      <point x="364" y="299" type="line"/>
      <point x="343" y="209" type="line"/>
      <point x="241" y="209" type="line"/>
      <point x="247" y="239"/>
      <point x="254" y="269"/>
    </contour>
  </outline>
</glyph>
<glyph name="dollar" format="1">
  <advance width="560"/>
  <unicode hex="0024"/>
  <outline>
    <contour>
      <point x="141" y="-122" type="line"/>
      <point x="249" y="-122" type="line"/>
      <point x="249" y="-13" type="line"/>
      <point x="262" y="-13" type="line" smooth="yes"/>
      <point x="275" y="-13"/>
      <point x="288" y="-12"/>
      <point x="300" y="-11" type="curve"/>
      <point x="300" y="-112" type="line"/>
      <point x="409" y="-124" type="line"/>
      <point x="409" y="13" type="line"/>
      <point x="485" y="47"/>
      <point x="528" y="108"/>
      <point x="528" y="182" type="curve" smooth="yes"/>
      <point x="527" y="375"/>
      <point x="210" y="420"/>
      <point x="210" y="502" type="curve" smooth="yes"/>
      <point x="210" y="539"/>
      <point x="241" y="557"/>
      <point x="289" y="557" type="curve" smooth="yes"/>
      <point x="339" y="557"/>
      <point x="372" y="546"/>
      <point x="434" y="523" type="curve"/>
      <point x="485" y="639" type="line"/>
      <point x="465" y="651"/>
      <point x="442" y="662"/>
      <point x="417" y="670" type="curve"/>
      <point x="417" y="802" type="line"/>
      <point x="308" y="802" type="line"/>
      <point x="308" y="692" type="line"/>
      <point x="300" y="693"/>
      <point x="294" y="694"/>
      <point x="287" y="694" type="curve" smooth="yes"/>
      <point x="278" y="694"/>
      <point x="268" y="693"/>
      <point x="259" y="692" type="curve"/>
      <point x="259" y="798" type="line"/>
      <point x="152" y="802" type="line"/>
      <point x="152" y="666" type="line"/>
      <point x="80" y="633"/>
      <point x="41" y="573"/>
      <point x="41" y="502" type="curve" smooth="yes"/>
      <point x="41" y="303"/>
      <point x="358" y="266"/>
      <point x="358" y="184" type="curve" smooth="yes"/>
      <point x="358" y="151"/>
      <point x="324" y="124"/>
      <point x="258" y="124" type="curve" smooth="yes"/>
      <point x="206" y="124"/>
      <point x="133" y="148"/>
      <point x="96" y="169" type="curve"/>
      <point x="80" y="126"/>
      <point x="64" y="85"/>
      <point x="47" y="43" type="curve"/>
      <point x="68" y="29"/>
      <point x="103" y="15"/>
      <point x="141" y="4" type="curve"/>
    </contour>
  </outline>
</glyph>
<glyph name="percent" format="1">
  <advance width="964"/>
  <unicode hex="0025"/>
  <outline>
    <contour>
      <point x="714" y="706" type="line"/>
      <point x="546" y="706" type="line"/>
      <point x="248" y="0" type="line"/>
      <point x="416" y="0" type="line"/>
    </contour>
    <contour>
      <point x="24" y="524" type="curve" smooth="yes"/>
      <point x="24" y="413"/>
      <point x="94" y="346"/>
      <point x="196" y="346" type="curve" smooth="yes"/>
      <point x="299" y="346"/>
      <point x="376" y="413"/>
      <point x="376" y="522" type="curve" smooth="yes"/>
      <point x="376" y="633"/>
      <point x="305" y="702"/>
      <point x="199" y="702" type="curve" smooth="yes"/>
      <point x="97" y="702"/>
      <point x="24" y="634"/>
    </contour>
    <contour>
      <point x="200" y="588" type="curve" smooth="yes"/>
      <point x="232" y="588"/>
      <point x="248" y="564"/>
      <point x="248" y="522" type="curve" smooth="yes"/>
      <point x="248" y="479"/>
      <point x="229" y="457"/>
      <point x="198" y="457" type="curve" smooth="yes"/>
      <point x="167" y="457"/>
      <point x="152" y="480"/>
      <point x="152" y="524" type="curve" smooth="yes"/>
      <point x="152" y="568"/>
      <point x="173" y="588"/>
    </contour>
    <contour>
      <point x="589" y="178" type="curve" smooth="yes"/>
      <point x="589" y="68"/>
      <point x="659" y="0"/>
      <point x="761" y="0" type="curve" smooth="yes"/>
      <point x="864" y="0"/>
      <point x="940" y="68"/>
      <point x="940" y="177" type="curve" smooth="yes"/>
      <point x="940" y="288"/>
      <point x="870" y="356"/>
      <point x="764" y="356" type="curve" smooth="yes"/>
      <point x="662" y="356"/>
      <point x="589" y="289"/>
    </contour>
    <contour>
      <point x="765" y="243" type="curve" smooth="yes"/>
      <point x="797" y="243"/>
      <point x="813" y="219"/>
      <point x="813" y="177" type="curve" smooth="yes"/>
      <point x="813" y="134"/>
      <point x="794" y="112"/>
      <point x="763" y="112" type="curve" smooth="yes"/>
      <point x="732" y="112"/>
      <point x="717" y="134"/>
      <point x="717" y="179" type="curve" smooth="yes"/>
      <point x="717" y="223"/>
      <point x="737" y="243"/>
    </contour>
  </outline>
</glyph>
<glyph name="ampersand" format="1">
  <advance width="694"/>
  <unicode hex="0026"/>
  <outline>
    <contour>
      <point x="335" y="559" type="curve" smooth="yes"/>
      <point x="382" y="559"/>
      <point x="424" y="545"/>
      <point x="468" y="521" type="curve"/>
      <point x="516" y="638" type="line"/>
      <point x="459" y="674"/>
      <point x="393" y="696"/>
      <point x="319" y="696" type="curve" smooth="yes"/>
      <point x="187" y="696"/>
      <point x="98" y="604"/>
      <point x="98" y="497" type="curve" smooth="yes"/>
      <point x="98" y="457"/>
      <point x="110" y="425"/>
      <point x="130" y="395" type="curve"/>
      <point x="76" y="348"/>
      <point x="40" y="281"/>
      <point x="40" y="214" type="curve" smooth="yes"/>
      <point x="40" y="58"/>
      <point x="162" y="-19"/>
      <point x="312" y="-19" type="curve" smooth="yes"/>
      <point x="387" y="-19"/>
      <point x="451" y="6"/>
      <point x="502" y="48" type="curve"/>
      <point x="527" y="26"/>
      <point x="552" y="4"/>
      <point x="577" y="-17" type="curve"/>
      <point x="674" y="102" type="line"/>
      <point x="597" y="168" type="line"/>
      <point x="625" y="223"/>
      <point x="643" y="286"/>
      <point x="649" y="350" type="curve"/>
      <point x="504" y="409" type="line"/>
      <point x="500" y="364"/>
      <point x="489" y="317"/>
      <point x="472" y="275" type="curve"/>
      <point x="333" y="397" type="line" smooth="yes"/>
      <point x="284" y="440"/>
      <point x="263" y="467"/>
      <point x="263" y="499" type="curve" smooth="yes"/>
      <point x="263" y="527"/>
      <point x="285" y="559"/>
    </contour>
    <contour>
      <point x="315" y="119" type="curve" smooth="yes"/>
      <point x="253" y="119"/>
      <point x="211" y="154"/>
      <point x="211" y="219" type="curve" smooth="yes"/>
      <point x="211" y="243"/>
      <point x="219" y="266"/>
      <point x="233" y="287" type="curve"/>
      <point x="251" y="270" type="line" smooth="yes"/>
      <point x="298" y="229"/>
      <point x="345" y="188"/>
      <point x="391" y="146" type="curve"/>
      <point x="368" y="129"/>
      <point x="343" y="119"/>
    </contour>
  </outline>
</glyph>
<glyph name="parenleft" format="1">
  <advance width="328"/>
  <unicode hex="0028"/>
  <outline>
    <contour>
      <point x="41" y="321" type="curve" smooth="yes"/>
      <point x="41" y="188"/>
      <point x="89" y="65"/>
      <point x="168" y="-39" type="curve"/>
      <point x="309" y="-1" type="line"/>
      <point x="252" y="69"/>
      <point x="202" y="219"/>
      <point x="202" y="322" type="curve" smooth="yes"/>
      <point x="202" y="422"/>
      <point x="252" y="566"/>
      <point x="310" y="645" type="curve"/>
      <point x="168" y="682" type="line"/>
      <point x="86" y="566"/>
      <point x="41" y="451"/>
    </contour>
  </outline>
</glyph>
<glyph name="parenright" format="1">
  <advance width="328"/>
  <unicode hex="0029"/>
  <outline>
    <contour>
      <point x="288" y="322" type="curve" smooth="yes"/>
      <point x="288" y="455"/>
      <point x="239" y="578"/>
      <point x="161" y="682" type="curve"/>
      <point x="20" y="644" type="line"/>
      <point x="77" y="574"/>
      <point x="126" y="424"/>
      <point x="126" y="321" type="curve" smooth="yes"/>
      <point x="126" y="221"/>
      <point x="77" y="77"/>
      <point x="19" y="-2" type="curve"/>
      <point x="160" y="-39" type="line"/>
      <point x="242" y="77"/>
      <point x="288" y="192"/>
    </contour>
  </outline>
</glyph>
<glyph name="asterisk" format="1">
  <advance width="422"/>
  <unicode hex="002A"/>
  <outline>
    <contour>
      <point x="211" y="504" type="line"/>
      <point x="278" y="409" type="line"/>
      <point x="382" y="478" type="line"/>
      <point x="311" y="572" type="line"/>
      <point x="407" y="590" type="line"/>
      <point x="374" y="706" type="line"/>
      <point x="277" y="680" type="line"/>
      <point x="277" y="777" type="line"/>
      <point x="147" y="777" type="line"/>
      <point x="147" y="765"/>
      <point x="145" y="691"/>
      <point x="145" y="680" type="curve"/>
      <point x="48" y="706" type="line"/>
      <point x="15" y="590" type="line"/>
      <point x="27" y="588"/>
      <point x="100" y="574"/>
      <point x="112" y="571" type="curve"/>
      <point x="41" y="478" type="line"/>
      <point x="145" y="409" type="line"/>
    </contour>
  </outline>
</glyph>
<glyph name="plus" format="1">
  <advance width="545"/>
  <unicode hex="002B"/>
  <outline>
    <contour>
      <point x="526" y="210" type="line"/>
      <point x="516" y="338" type="line"/>
      <point x="351" y="338" type="line"/>
      <point x="351" y="530" type="line"/>
      <point x="198" y="530" type="line"/>
      <point x="198" y="338" type="line"/>
      <point x="19" y="338" type="line"/>
      <point x="29" y="210" type="line"/>
      <point x="198" y="210" type="line"/>
      <point x="198" y="8" type="line"/>
      <point x="351" y="1" type="line"/>
      <point x="351" y="210" type="line"/>
    </contour>
  </outline>
</glyph>
<glyph name="comma" format="1">
  <advance width="204"/>
  <unicode hex="002C"/>
  <outline>
    <contour>
      <point x="192" y="45" type="curve" smooth="yes"/>
      <point x="192" y="106"/>
      <point x="153" y="147"/>
      <point x="106" y="147" type="curve" smooth="yes"/>
      <point x="58" y="147"/>
      <point x="20" y="103"/>
      <point x="20" y="61" type="curve" smooth="yes"/>
      <point x="20" y="26"/>
      <point x="44" y="-5"/>
      <point x="67" y="-15" type="curve"/>
      <point x="60" y="-42"/>
      <point x="34" y="-63"/>
      <point x="10" y="-80" type="curve"/>
      <point x="44" y="-154" type="line"/>
      <point x="129" y="-118"/>
      <point x="192" y="-32"/>
    </contour>
  </outline>
</glyph>
<glyph name="hyphen" format="1">
  <advance width="322"/>
  <unicode hex="002D"/>
  <outline>
    <contour>
      <point x="304" y="209" type="line"/>
      <point x="294" y="338" type="line"/>
      <point x="19" y="338" type="line"/>
      <point x="30" y="209" type="line"/>
    </contour>
  </outline>
</glyph>
<glyph name="period" format="1">
  <advance width="191"/>
  <unicode hex="002E"/>
  <outline>
    <contour>
      <point x="180" y="85" type="curve" smooth="yes"/>
      <point x="180" y="133"/>
      <point x="143" y="170"/>
      <point x="96" y="170" type="curve" smooth="yes"/>
      <point x="47" y="170"/>
      <point x="10" y="133"/>
      <point x="10" y="85" type="curve" smooth="yes"/>
      <point x="10" y="36"/>
      <point x="47" y="0"/>
      <point x="96" y="0" type="curve" smooth="yes"/>
      <point x="143" y="0"/>
      <point x="180" y="36"/>
    </contour>
  </outline>
</glyph>
<glyph name="zero" format="1">
  <advance width="659"/>
  <unicode hex="0030"/>
  <outline>
    <contour>
      <point x="329" y="579" type="curve" smooth="yes"/>
      <point x="173" y="579"/>
      <point x="44" y="470"/>
      <point x="44" y="284" type="curve" smooth="yes"/>
      <point x="44" y="94"/>
      <point x="178" y="-14"/>
      <point x="328" y="-14" type="curve" smooth="yes"/>
      <point x="485" y="-14"/>
      <point x="614" y="100"/>
      <point x="614" y="286" type="curve" smooth="yes"/>
      <point x="614" y="476"/>
      <point x="487" y="579"/>
    </contour>
    <contour>
      <point x="329" y="122" type="curve" smooth="yes"/>
      <point x="262" y="122"/>
      <point x="209" y="182"/>
      <point x="209" y="287" type="curve" smooth="yes"/>
      <point x="209" y="387"/>
      <point x="264" y="444"/>
      <point x="328" y="444" type="curve" smooth="yes"/>
      <point x="396" y="444"/>
      <point x="450" y="387"/>
      <point x="450" y="283" type="curve" smooth="yes"/>
      <point x="450" y="182"/>
      <point x="395" y="122"/>
    </contour>
  </outline>
</glyph>
<glyph name="one" format="1">
  <advance width="477"/>
  <unicode hex="0031"/>
  <outline>
    <contour>
      <point x="56" y="124" type="line"/>
      <point x="61" y="83"/>
      <point x="66" y="41"/>
      <point x="70" y="0" type="curve"/>
      <point x="445" y="0" type="line"/>
      <point x="440" y="41"/>
      <point x="436" y="83"/>
      <point x="430" y="124" type="curve"/>
      <point x="347" y="124" type="line"/>
      <point x="347" y="566" type="line"/>
      <point x="237" y="566" type="line"/>
      <point x="40" y="464" type="line"/>
      <point x="113" y="332" type="line"/>
      <point x="136" y="343"/>
      <point x="159" y="354"/>
      <point x="182" y="366" type="curve"/>
      <point x="182" y="124" type="line"/>
    </contour>
  </outline>
</glyph>
<glyph name="two" format="1">
  <advance width="518"/>
  <unicode hex="0032"/>
  <outline>
    <contour>
      <point x="452" y="405" type="curve" smooth="yes"/>
      <point x="452" y="490"/>
      <point x="404" y="579"/>
      <point x="244" y="579" type="curve" smooth="yes"/>
      <point x="149" y="579"/>
      <point x="75" y="532"/>
      <point x="33" y="497" type="curve"/>
      <point x="103" y="388" type="line"/>
      <point x="128" y="405"/>
      <point x="190" y="446"/>
      <point x="238" y="446" type="curve" smooth="yes"/>
      <point x="280" y="446"/>
      <point x="306" y="424"/>
      <point x="306" y="393" type="curve" smooth="yes"/>
      <point x="305" y="361"/>
      <point x="284" y="323"/>
      <point x="218" y="266" type="curve" smooth="yes"/>
      <point x="40" y="109" type="line"/>
      <point x="40" y="0" type="line"/>
      <point x="477" y="0" type="line"/>
      <point x="460" y="128" type="line"/>
      <point x="268" y="128" type="line"/>
      <point x="321" y="173" type="line" smooth="yes"/>
      <point x="415" y="253"/>
      <point x="452" y="320"/>
    </contour>
  </outline>
</glyph>
<glyph name="three" format="1">
  <advance width="555"/>
  <unicode hex="0033"/>
  <outline>
    <contour>
      <point x="497" y="403" type="curve" smooth="yes"/>
      <point x="497" y="505"/>
      <point x="409" y="579"/>
      <point x="264" y="579" type="curve" smooth="yes"/>
      <point x="184" y="579"/>
      <point x="106" y="558"/>
      <point x="37" y="506" type="curve"/>
      <point x="115" y="396" type="line"/>
      <point x="158" y="425"/>
      <point x="205" y="446"/>
      <point x="251" y="446" type="curve" smooth="yes"/>
      <point x="305" y="446"/>
      <point x="332" y="422"/>
      <point x="332" y="392" type="curve" smooth="yes"/>
      <point x="332" y="352"/>
      <point x="291" y="327"/>
      <point x="225" y="327" type="curve" smooth="yes"/>
      <point x="149" y="327" type="line"/>
      <point x="165" y="198" type="line"/>
      <point x="247" y="198" type="line" smooth="yes"/>
      <point x="309" y="198"/>
      <point x="343" y="170"/>
      <point x="343" y="124" type="curve" smooth="yes"/>
      <point x="343" y="81"/>
      <point x="303" y="55"/>
      <point x="252" y="55" type="curve" smooth="yes"/>
      <point x="201" y="55"/>
      <point x="159" y="69"/>
      <point x="103" y="104" type="curve"/>
      <point x="16" y="-6" type="line"/>
      <point x="88" y="-50"/>
      <point x="177" y="-77"/>
      <point x="251" y="-77" type="curve" smooth="yes"/>
      <point x="407" y="-77"/>
      <point x="508" y="5"/>
      <point x="508" y="121" type="curve" smooth="yes"/>
      <point x="508" y="188"/>
      <point x="464" y="250"/>
      <point x="420" y="272" type="curve"/>
      <point x="457" y="291"/>
      <point x="497" y="351"/>
    </contour>
  </outline>
</glyph>
<glyph name="four" format="1">
  <advance width="615"/>
  <unicode hex="0034"/>
  <outline>
    <contour>
      <point x="577" y="56" type="line"/>
      <point x="587" y="186" type="line"/>
      <point x="486" y="186" type="line"/>
      <point x="486" y="571" type="line"/>
      <point x="363" y="571" type="line"/>
      <point x="24" y="180" type="line"/>
      <point x="43" y="56" type="line"/>
      <point x="321" y="56" type="line"/>
      <point x="321" y="-65" type="line"/>
      <point x="486" y="-65" type="line"/>
      <point x="486" y="56" type="line"/>
    </contour>
    <contour>
      <point x="213" y="186" type="line"/>
      <point x="321" y="319" type="line"/>
      <point x="321" y="186" type="line"/>
    </contour>
  </outline>
</glyph>
<glyph name="five" format="1">
  <advance width="537"/>
  <unicode hex="0035"/>
  <outline>
    <contour>
      <point x="69" y="189" type="line"/>
      <point x="209" y="189" type="line"/>
      <point x="218" y="209"/>
      <point x="242" y="233"/>
      <point x="279" y="233" type="curve" smooth="yes"/>
      <point x="323" y="233"/>
      <point x="355" y="202"/>
      <point x="355" y="152" type="curve" smooth="yes"/>
      <point x="355" y="96"/>
      <point x="312" y="61"/>
      <point x="255" y="61" type="curve" smooth="yes"/>
      <point x="202" y="61"/>
      <point x="160" y="77"/>
      <point x="103" y="109" type="curve"/>
      <point x="21" y="-7" type="line"/>
      <point x="85" y="-49"/>
      <point x="178" y="-78"/>
      <point x="252" y="-78" type="curve" smooth="yes"/>
      <point x="408" y="-78"/>
      <point x="503" y="17"/>
      <point x="503" y="152" type="curve" smooth="yes"/>
      <point x="503" y="268"/>
      <point x="431" y="368"/>
      <point x="290" y="368" type="curve" smooth="yes"/>
      <point x="263" y="368"/>
      <point x="242" y="362"/>
      <point x="224" y="353" type="curve"/>
      <point x="228" y="436" type="line"/>
      <point x="456" y="436" type="line"/>
      <point x="472" y="566" type="line"/>
      <point x="88" y="566" type="line"/>
    </contour>
  </outline>
</glyph>
<glyph name="six" format="1">
  <advance width="597"/>
  <unicode hex="0036"/>
  <outline>
    <contour>
      <point x="448" y="523" type="curve"/>
      <point x="372" y="635" type="line"/>
      <point x="180" y="591"/>
      <point x="44" y="420"/>
      <point x="44" y="265" type="curve" smooth="yes"/>
      <point x="44" y="79"/>
      <point x="168" y="-13"/>
      <point x="330" y="-13" type="curve" smooth="yes"/>
      <point x="474" y="-13"/>
      <point x="567" y="93"/>
      <point x="567" y="210" type="curve" smooth="yes"/>
      <point x="567" y="323"/>
      <point x="469" y="411"/>
      <point x="334" y="411" type="curve" smooth="yes"/>
      <point x="308" y="411"/>
      <point x="274" y="400"/>
      <point x="244" y="383" type="curve"/>
      <point x="292" y="454"/>
      <point x="377" y="506"/>
    </contour>
    <contour>
      <point x="315" y="296" type="curve" smooth="yes"/>
      <point x="373" y="296"/>
      <point x="403" y="254"/>
      <point x="403" y="205" type="curve" smooth="yes"/>
      <point x="403" y="164"/>
      <point x="374" y="120"/>
      <point x="323" y="120" type="curve" smooth="yes"/>
      <point x="263" y="120"/>
      <point x="222" y="161"/>
      <point x="211" y="235" type="curve"/>
      <point x="231" y="265"/>
      <point x="271" y="296"/>
    </contour>
  </outline>
</glyph>
<glyph name="seven" format="1">
  <advance width="519"/>
  <unicode hex="0037"/>
  <outline>
    <contour>
      <point x="33" y="-31" type="line"/>
      <point x="194" y="-74" type="line"/>
      <point x="505" y="501" type="line"/>
      <point x="470" y="566" type="line"/>
      <point x="32" y="566" type="line"/>
      <point x="49" y="436" type="line"/>
      <point x="292" y="436" type="line"/>
    </contour>
  </outline>
</glyph>
<glyph name="eight" format="1">
  <advance width="597"/>
  <unicode hex="0038"/>
  <outline>
    <contour>
      <point x="300" y="-13" type="curve" smooth="yes"/>
      <point x="459" y="-13"/>
      <point x="553" y="73"/>
      <point x="553" y="193" type="curve" smooth="yes"/>
      <point x="553" y="254"/>
      <point x="509" y="312"/>
      <point x="461" y="340" type="curve"/>
      <point x="500" y="366"/>
      <point x="530" y="412"/>
      <point x="530" y="461" type="curve" smooth="yes"/>
      <point x="530" y="568"/>
      <point x="430" y="643"/>
      <point x="300" y="643" type="curve" smooth="yes"/>
      <point x="166" y="643"/>
      <point x="67" y="568"/>
      <point x="67" y="461" type="curve" smooth="yes"/>
      <point x="67" y="412"/>
      <point x="98" y="367"/>
      <point x="137" y="341" type="curve"/>
      <point x="88" y="313"/>
      <point x="44" y="254"/>
      <point x="44" y="193" type="curve" smooth="yes"/>
      <point x="44" y="69"/>
      <point x="143" y="-13"/>
    </contour>
    <contour>
      <point x="299" y="120" type="curve" smooth="yes"/>
      <point x="252" y="120"/>
      <point x="208" y="154"/>
      <point x="208" y="198" type="curve" smooth="yes"/>
      <point x="208" y="234"/>
      <point x="238" y="275"/>
      <point x="300" y="285" type="curve"/>
      <point x="358" y="275"/>
      <point x="390" y="234"/>
      <point x="390" y="198" type="curve" smooth="yes"/>
      <point x="390" y="154"/>
      <point x="344" y="120"/>
    </contour>
    <contour>
      <point x="232" y="453" type="curve"/>
      <point x="232" y="479"/>
      <point x="256" y="509"/>
      <point x="298" y="509" type="curve" smooth="yes"/>
      <point x="342" y="509"/>
      <point x="365" y="479"/>
      <point x="365" y="454" type="curve" smooth="yes"/>
      <point x="365" y="422"/>
      <point x="343" y="395"/>
      <point x="300" y="388" type="curve"/>
      <point x="256" y="395"/>
      <point x="232" y="421"/>
    </contour>
  </outline>
</glyph>
<glyph name="nine" format="1">
  <advance width="597"/>
  <unicode hex="0039"/>
  <outline>
    <contour>
      <point x="149" y="43" type="curve"/>
      <point x="225" y="-69" type="line"/>
      <point x="417" y="-25"/>
      <point x="553" y="145"/>
      <point x="553" y="301" type="curve" smooth="yes"/>
      <point x="553" y="486"/>
      <point x="430" y="579"/>
      <point x="269" y="579" type="curve" smooth="yes"/>
      <point x="124" y="579"/>
      <point x="30" y="472"/>
      <point x="30" y="356" type="curve" smooth="yes"/>
      <point x="30" y="243"/>
      <point x="129" y="155"/>
      <point x="264" y="155" type="curve" smooth="yes"/>
      <point x="290" y="155"/>
      <point x="322" y="165"/>
      <point x="352" y="181" type="curve"/>
      <point x="304" y="111"/>
      <point x="219" y="59"/>
    </contour>
    <contour>
      <point x="282" y="270" type="curve" smooth="yes"/>
      <point x="224" y="270"/>
      <point x="194" y="312"/>
      <point x="194" y="361" type="curve" smooth="yes"/>
      <point x="194" y="402"/>
      <point x="223" y="446"/>
      <point x="274" y="446" type="curve" smooth="yes"/>
      <point x="333" y="446"/>
      <point x="375" y="405"/>
      <point x="386" y="331" type="curve"/>
      <point x="365" y="301"/>
      <point x="326" y="270"/>
    </contour>
  </outline>
</glyph>
<glyph name="colon" format="1">
  <advance width="191"/>
  <unicode hex="003A"/>
  <outline>
    <contour>
      <point x="180" y="85" type="curve" smooth="yes"/>
      <point x="180" y="133"/>
      <point x="143" y="170"/>
      <point x="96" y="170" type="curve" smooth="yes"/>
      <point x="47" y="170"/>
      <point x="10" y="133"/>
      <point x="10" y="85" type="curve" smooth="yes"/>
      <point x="10" y="36"/>
      <point x="47" y="0"/>
      <point x="96" y="0" type="curve" smooth="yes"/>
      <point x="143" y="0"/>
      <point x="180" y="36"/>
    </contour>
    <contour>
      <point x="180" y="390" type="curve" smooth="yes"/>
      <point x="180" y="438"/>
      <point x="143" y="475"/>
      <point x="96" y="475" type="curve" smooth="yes"/>
      <point x="47" y="475"/>
      <point x="10" y="438"/>
      <point x="10" y="390" type="curve" smooth="yes"/>
      <point x="10" y="342"/>
      <point x="47" y="305"/>
      <point x="96" y="305" type="curve" smooth="yes"/>
      <point x="143" y="305"/>
      <point x="180" y="342"/>
    </contour>
  </outline>
</glyph>
<glyph name="semicolon" format="1">
  <advance width="198"/>
  <unicode hex="003B"/>
  <outline>
    <contour>
      <point x="186" y="390" type="curve" smooth="yes"/>
      <point x="186" y="438"/>
      <point x="149" y="475"/>
      <point x="101" y="475" type="curve" smooth="yes"/>
      <point x="52" y="475"/>
      <point x="15" y="438"/>
      <point x="15" y="390" type="curve" smooth="yes"/>
      <point x="15" y="342"/>
      <point x="52" y="305"/>
      <point x="101" y="305" type="curve" smooth="yes"/>
      <point x="149" y="305"/>
      <point x="186" y="342"/>
    </contour>
    <contour>
      <point x="185" y="69" type="curve" smooth="yes"/>
      <point x="185" y="129"/>
      <point x="146" y="170"/>
      <point x="98" y="170" type="curve" smooth="yes"/>
      <point x="50" y="170"/>
      <point x="13" y="126"/>
      <point x="13" y="85" type="curve" smooth="yes"/>
      <point x="13" y="50"/>
      <point x="37" y="18"/>
      <point x="60" y="9" type="curve"/>
      <point x="53" y="-18"/>
      <point x="27" y="-39"/>
      <point x="3" y="-56" type="curve"/>
      <point x="36" y="-130" type="line"/>
      <point x="121" y="-94"/>
      <point x="185" y="-8"/>
    </contour>
  </outline>
</glyph>
<glyph name="less" format="1">
  <advance width="369"/>
  <unicode hex="003C"/>
  <outline>
    <contour>
      <point x="316" y="5" type="line"/>
      <point x="346" y="147" type="line"/>
      <point x="199" y="250" type="line"/>
      <point x="346" y="353" type="line"/>
      <point x="316" y="493" type="line"/>
      <point x="25" y="287" type="line"/>
      <point x="25" y="213" type="line"/>
    </contour>
  </outline>
</glyph>
<glyph name="equal" format="1">
  <advance width="514"/>
  <unicode hex="003D"/>
  <outline>
    <contour>
      <point x="494" y="89" type="line"/>
      <point x="484" y="210" type="line"/>
      <point x="20" y="210" type="line"/>
      <point x="31" y="89" type="line"/>
    </contour>
    <contour>
      <point x="494" y="299" type="line"/>
      <point x="484" y="420" type="line"/>
      <point x="20" y="420" type="line"/>
      <point x="31" y="299" type="line"/>
    </contour>
  </outline>
</glyph>
<glyph name="greater" format="1">
  <advance width="369"/>
  <unicode hex="003E"/>
  <outline>
    <contour>
      <point x="53" y="493" type="line"/>
      <point x="24" y="352" type="line"/>
      <point x="170" y="248" type="line"/>
      <point x="24" y="145" type="line"/>
      <point x="53" y="5" type="line"/>
      <point x="344" y="212" type="line"/>
      <point x="344" y="285" type="line"/>
    </contour>
  </outline>
</glyph>
<glyph name="question" format="1">
  <advance width="463"/>
  <unicode hex="003F"/>
  <outline>
    <contour>
      <point x="438" y="513" type="curve" smooth="yes"/>
      <point x="438" y="626"/>
      <point x="352" y="701"/>
      <point x="214" y="701" type="curve" smooth="yes"/>
      <point x="150" y="701"/>
      <point x="87" y="687"/>
      <point x="22" y="648" type="curve"/>
      <point x="43" y="510" type="line"/>
      <point x="119" y="555"/>
      <point x="174" y="567"/>
      <point x="211" y="567" type="curve" smooth="yes"/>
      <point x="246" y="567"/>
      <point x="273" y="547"/>
      <point x="273" y="515" type="curve" smooth="yes"/>
      <point x="273" y="472"/>
      <point x="209" y="425"/>
      <point x="118" y="396" type="curve"/>
      <point x="126" y="234" type="line"/>
      <point x="251" y="195" type="line"/>
      <point x="265" y="318" type="line"/>
      <point x="381" y="365"/>
      <point x="438" y="434"/>
    </contour>
    <contour>
      <point x="265" y="85" type="curve" smooth="yes"/>
      <point x="265" y="133"/>
      <point x="227" y="170"/>
      <point x="180" y="170" type="curve" smooth="yes"/>
      <point x="132" y="170"/>
      <point x="94" y="133"/>
      <point x="94" y="85" type="curve" smooth="yes"/>
      <point x="94" y="36"/>
      <point x="132" y="0"/>
      <point x="180" y="0" type="curve" smooth="yes"/>
      <point x="227" y="0"/>
      <point x="265" y="36"/>
    </contour>
  </outline>
</glyph>
<glyph name="at" format="1">
  <advance width="824"/>
  <unicode hex="0040"/>
  <outline>
    <contour>
      <point x="593" y="385" type="line"/>
      <point x="554" y="435" type="line"/>
      <point x="468" y="443" type="line" smooth="yes"/>
      <point x="462" y="443"/>
      <point x="456" y="444"/>
      <point x="450" y="444" type="curve" smooth="yes"/>
      <point x="331" y="444"/>
      <point x="232" y="352"/>
      <point x="232" y="226" type="curve" smooth="yes"/>
      <point x="232" y="127"/>
      <point x="290" y="58"/>
      <point x="416" y="58" type="curve" smooth="yes"/>
      <point x="445" y="58"/>
      <point x="473" y="66"/>
      <point x="497" y="78" type="curve"/>
      <point x="517" y="62"/>
      <point x="544" y="55"/>
      <point x="570" y="55" type="curve" smooth="yes"/>
      <point x="678" y="55"/>
      <point x="790" y="143"/>
      <point x="790" y="308" type="curve" smooth="yes"/>
      <point x="790" y="481"/>
      <point x="642" y="620"/>
      <point x="444" y="620" type="curve" smooth="yes"/>
      <point x="188" y="620"/>
      <point x="37" y="437"/>
      <point x="37" y="233" type="curve" smooth="yes"/>
      <point x="37" y="14"/>
      <point x="216" y="-106"/>
      <point x="410" y="-106" type="curve" smooth="yes"/>
      <point x="476" y="-106"/>
      <point x="546" y="-101"/>
      <point x="626" y="-59" type="curve"/>
      <point x="613" y="-25"/>
      <point x="600" y="7"/>
      <point x="586" y="40" type="curve"/>
      <point x="537" y="19"/>
      <point x="456" y="13"/>
      <point x="419" y="13" type="curve" smooth="yes"/>
      <point x="294" y="13"/>
      <point x="181" y="88"/>
      <point x="181" y="228" type="curve" smooth="yes"/>
      <point x="181" y="391"/>
      <point x="300" y="495"/>
      <point x="447" y="495" type="curve" smooth="yes"/>
      <point x="586" y="495"/>
      <point x="655" y="406"/>
      <point x="655" y="303" type="curve" smooth="yes"/>
      <point x="655" y="226"/>
      <point x="609" y="181"/>
      <point x="579" y="181" type="curve" smooth="yes"/>
      <point x="575" y="181"/>
      <point x="570" y="187"/>
      <point x="570" y="197" type="curve"/>
    </contour>
    <contour>
      <point x="414" y="186" type="curve" smooth="yes"/>
      <point x="380" y="186"/>
      <point x="367" y="210"/>
      <point x="367" y="232" type="curve" smooth="yes"/>
      <point x="367" y="290"/>
      <point x="404" y="329"/>
      <point x="457" y="329" type="curve"/>
      <point x="442" y="219" type="line" smooth="yes"/>
      <point x="439" y="201"/>
      <point x="430" y="186"/>
    </contour>
  </outline>
</glyph>
<glyph name="B" format="1">
  <advance width="647"/>
  <unicode hex="0042"/>
  <outline>
    <contour>
      <point x="571" y="482" type="curve"/>
      <point x="571" y="624"/>
      <point x="457" y="680"/>
      <point x="310" y="680" type="curve" smooth="yes"/>
      <point x="74" y="680" type="line"/>
      <point x="74" y="0" type="line"/>
      <point x="339" y="0" type="line" smooth="yes"/>
      <point x="486" y="0"/>
      <point x="610" y="55"/>
      <point x="610" y="201" type="curve" smooth="yes"/>
      <point x="610" y="273"/>
      <point x="571" y="327"/>
      <point x="515" y="363" type="curve"/>
      <point x="548" y="394"/>
      <point x="570" y="433"/>
    </contour>
    <contour>
      <point x="340" y="285" type="line" smooth="yes"/>
      <point x="402" y="285"/>
      <point x="440" y="256"/>
      <point x="440" y="204" type="curve" smooth="yes"/>
      <point x="440" y="155"/>
      <point x="399" y="130"/>
      <point x="338" y="130" type="curve" smooth="yes"/>
      <point x="238" y="130" type="line"/>
      <point x="238" y="285" type="line"/>
    </contour>
    <contour>
      <point x="300" y="548" type="line" smooth="yes"/>
      <point x="363" y="548"/>
      <point x="400" y="528"/>
      <point x="400" y="479" type="curve" smooth="yes"/>
      <point x="400" y="431"/>
      <point x="356" y="415"/>
      <point x="287" y="415" type="curve" smooth="yes"/>
      <point x="238" y="415" type="line"/>
      <point x="238" y="548" type="line"/>
    </contour>
  </outline>
</glyph>
<glyph name="C" format="1">
  <advance width="602"/>
  <unicode hex="0043"/>
  <outline>
    <contour>
      <point x="368" y="558" type="curve" smooth="yes"/>
      <point x="417" y="558"/>
      <point x="443" y="551"/>
      <point x="512" y="529" type="curve"/>
      <point x="561" y="641" type="line"/>
      <point x="506" y="676"/>
      <point x="426" y="693"/>
      <point x="368" y="693" type="curve" smooth="yes"/>
      <point x="166" y="693"/>
      <point x="46" y="547"/>
      <point x="46" y="337" type="curve" smooth="yes"/>
      <point x="46" y="133"/>
      <point x="150" y="-13"/>
      <point x="369" y="-13" type="curve" smooth="yes"/>
      <point x="434" y="-13"/>
      <point x="515" y="4"/>
      <point x="567" y="35" type="curve"/>
      <point x="505" y="157" type="line"/>
      <point x="468" y="137"/>
      <point x="422" y="122"/>
      <point x="369" y="122" type="curve" smooth="yes"/>
      <point x="273" y="122"/>
      <point x="216" y="209"/>
      <point x="216" y="338" type="curve" smooth="yes"/>
      <point x="216" y="472"/>
      <point x="277" y="558"/>
    </contour>
  </outline>
</glyph>
<glyph name="D" format="1">
  <advance width="714"/>
  <unicode hex="0044"/>
  <outline>
    <contour>
      <point x="353" y="0" type="line" smooth="yes"/>
      <point x="547" y="0"/>
      <point x="674" y="132"/>
      <point x="674" y="344" type="curve" smooth="yes"/>
      <point x="674" y="541"/>
      <point x="566" y="680"/>
      <point x="353" y="680" type="curve" smooth="yes"/>
      <point x="74" y="680" type="line"/>
      <point x="74" y="0" type="line"/>
    </contour>
    <contour>
      <point x="351" y="548" type="line" smooth="yes"/>
      <point x="453" y="548"/>
      <point x="504" y="466"/>
      <point x="504" y="344" type="curve" smooth="yes"/>
      <point x="504" y="196"/>
      <point x="438" y="131"/>
      <point x="344" y="131" type="curve" smooth="yes"/>
      <point x="238" y="131" type="line"/>
      <point x="238" y="548" type="line"/>
    </contour>
  </outline>
</glyph>
<glyph name="E" format="1">
  <advance width="585"/>
  <unicode hex="0045"/>
  <outline>
    <contour>
      <point x="565" y="0" type="line"/>
      <point x="558" y="43"/>
      <point x="553" y="85"/>
      <point x="546" y="128" type="curve"/>
      <point x="238" y="128" type="line"/>
      <point x="238" y="277" type="line"/>
      <point x="456" y="277" type="line"/>
      <point x="438" y="406" type="line"/>
      <point x="238" y="406" type="line"/>
      <point x="238" y="550" type="line"/>
      <point x="528" y="550" type="line"/>
      <point x="510" y="680" type="line"/>
      <point x="74" y="680" type="line"/>
      <point x="74" y="0" type="line"/>
    </contour>
  </outline>
</glyph>
<glyph name="F" format="1">
  <advance width="525"/>
  <unicode hex="0046"/>
  <outline>
    <contour>
      <point x="453" y="267" type="line"/>
      <point x="435" y="396" type="line"/>
      <point x="238" y="396" type="line"/>
      <point x="238" y="550" type="line"/>
      <point x="514" y="550" type="line"/>
      <point x="508" y="593"/>
      <point x="503" y="637"/>
      <point x="496" y="680" type="curve"/>
      <point x="74" y="680" type="line"/>
      <point x="74" y="0" type="line"/>
      <point x="238" y="0" type="line"/>
      <point x="238" y="267" type="line"/>
    </contour>
  </outline>
</glyph>
<glyph name="G" format="1">
  <advance width="669"/>
  <unicode hex="0047"/>
  <outline>
    <contour>
      <point x="606" y="37" type="curve"/>
      <point x="606" y="385" type="line"/>
      <point x="326" y="385" type="line"/>
      <point x="333" y="263" type="line"/>
      <point x="458" y="263" type="line"/>
      <point x="458" y="130" type="line"/>
      <point x="435" y="125"/>
      <point x="410" y="122"/>
      <point x="383" y="122" type="curve" smooth="yes"/>
      <point x="285" y="122"/>
      <point x="216" y="190"/>
      <point x="216" y="338" type="curve" smooth="yes"/>
      <point x="216" y="486"/>
      <point x="296" y="558"/>
      <point x="392" y="558" type="curve" smooth="yes"/>
      <point x="441" y="558"/>
      <point x="480" y="551"/>
      <point x="549" y="529" type="curve"/>
      <point x="598" y="641" type="line"/>
      <point x="543" y="676"/>
      <point x="448" y="693"/>
      <point x="390" y="693" type="curve" smooth="yes"/>
      <point x="185" y="693"/>
      <point x="46" y="556"/>
      <point x="46" y="337" type="curve" smooth="yes"/>
      <point x="46" y="124"/>
      <point x="161" y="-13"/>
      <point x="380" y="-13" type="curve" smooth="yes"/>
      <point x="455" y="-13"/>
      <point x="553" y="6"/>
    </contour>
  </outline>
</glyph>
<glyph name="H" format="1">
  <advance width="732"/>
  <unicode hex="0048"/>
  <outline>
    <contour>
      <point x="238" y="685" type="line"/>
      <point x="74" y="685" type="line"/>
      <point x="74" y="0" type="line"/>
      <point x="238" y="0" type="line"/>
      <point x="238" y="273" type="line"/>
      <point x="493" y="273" type="line"/>
      <point x="493" y="0" type="line"/>
      <point x="657" y="0" type="line"/>
      <point x="657" y="680" type="line"/>
      <point x="493" y="680" type="line"/>
      <point x="493" y="403" type="line"/>
      <point x="238" y="403" type="line"/>
    </contour>
  </outline>
</glyph>
<glyph name="I" format="1">
  <advance width="313"/>
  <unicode hex="0049"/>
  <outline>
    <contour>
      <point x="238" y="680" type="line"/>
      <point x="74" y="680" type="line"/>
      <point x="74" y="0" type="line"/>
      <point x="238" y="0" type="line"/>
    </contour>
  </outline>
</glyph>
<glyph name="J" format="1">
  <advance width="320"/>
  <unicode hex="004A"/>
  <outline>
    <contour>
      <point x="251" y="680" type="line"/>
      <point x="86" y="680" type="line"/>
      <point x="86" y="200" type="line" smooth="yes"/>
      <point x="86" y="157"/>
      <point x="78" y="131"/>
      <point x="5" y="103" type="curve"/>
      <point x="27" y="60"/>
      <point x="49" y="17"/>
      <point x="71" y="-24" type="curve"/>
      <point x="206" y="18"/>
      <point x="251" y="59"/>
      <point x="251" y="158" type="curve" smooth="yes"/>
    </contour>
  </outline>
</glyph>
<glyph name="K" format="1">
  <advance width="684"/>
  <unicode hex="004B"/>
  <outline>
    <contour>
      <point x="234" y="680" type="line"/>
      <point x="70" y="680" type="line"/>
      <point x="70" y="0" type="line"/>
      <point x="234" y="0" type="line"/>
      <point x="234" y="207" type="line"/>
      <point x="291" y="265" type="line"/>
      <point x="476" y="0" type="line"/>
      <point x="684" y="0" type="line"/>
      <point x="406" y="380" type="line"/>
      <point x="627" y="602" type="line"/>
      <point x="501" y="695" type="line"/>
      <point x="234" y="427" type="line"/>
    </contour>
  </outline>
</glyph>
<glyph name="L" format="1">
  <advance width="559"/>
  <unicode hex="004C"/>
  <outline>
    <contour>
      <point x="549" y="0" type="line"/>
      <point x="531" y="129" type="line"/>
      <point x="239" y="129" type="line"/>
      <point x="239" y="680" type="line"/>
      <point x="75" y="680" type="line"/>
      <point x="75" y="0" type="line"/>
    </contour>
  </outline>
</glyph>
<glyph name="M" format="1">
  <advance width="775"/>
  <unicode hex="004D"/>
  <outline>
    <contour>
      <point x="366" y="198" type="line"/>
      <point x="388" y="201"/>
      <point x="410" y="205"/>
      <point x="431" y="207" type="curve"/>
      <point x="466" y="255"/>
      <point x="501" y="302"/>
      <point x="535" y="350" type="curve"/>
      <point x="535" y="0" type="line"/>
      <point x="700" y="0" type="line"/>
      <point x="700" y="680" type="line"/>
      <point x="593" y="680" type="line"/>
      <point x="528" y="587"/>
      <point x="464" y="494"/>
      <point x="398" y="402" type="curve"/>
      <point x="185" y="680" type="line"/>
      <point x="74" y="680" type="line"/>
      <point x="74" y="0" type="line"/>
      <point x="238" y="0" type="line"/>
      <point x="238" y="358" type="line"/>
    </contour>
  </outline>
</glyph>
<glyph name="N" format="1">
  <advance width="749"/>
  <unicode hex="004E"/>
  <outline>
    <contour>
      <point x="674" y="680" type="line"/>
      <point x="510" y="680" type="line"/>
      <point x="510" y="276" type="line"/>
      <point x="230" y="680" type="line"/>
      <point x="74" y="680" type="line"/>
      <point x="74" y="0" type="line"/>
      <point x="238" y="0" type="line"/>
      <point x="238" y="396" type="line"/>
      <point x="331" y="266"/>
      <point x="424" y="130"/>
      <point x="518" y="0" type="curve"/>
      <point x="674" y="0" type="line"/>
    </contour>
  </outline>
</glyph>
<glyph name="P" format="1">
  <advance width="646"/>
  <unicode hex="0050"/>
  <outline>
    <contour>
      <point x="75" y="0" type="line"/>
      <point x="239" y="0" type="line"/>
      <point x="239" y="211" type="line"/>
      <point x="328" y="211" type="line" smooth="yes"/>
      <point x="475" y="211"/>
      <point x="612" y="284"/>
      <point x="612" y="444" type="curve" smooth="yes"/>
      <point x="612" y="606"/>
      <point x="487" y="680"/>
      <point x="336" y="680" type="curve" smooth="yes"/>
      <point x="75" y="680" type="line"/>
    </contour>
    <contour>
      <point x="331" y="549" type="line" smooth="yes"/>
      <point x="401" y="549"/>
      <point x="442" y="511"/>
      <point x="442" y="441" type="curve" smooth="yes"/>
      <point x="442" y="380"/>
      <point x="396" y="342"/>
      <point x="333" y="342" type="curve" smooth="yes"/>
      <point x="239" y="342" type="line"/>
      <point x="239" y="549" type="line"/>
    </contour>
  </outline>
</glyph>
<glyph name="Q" format="1">
  <advance width="742"/>
  <unicode hex="0051"/>
  <outline>
    <contour>
      <point x="371" y="695" type="curve"/>
      <point x="168" y="693"/>
      <point x="46" y="548"/>
      <point x="46" y="337" type="curve" smooth="yes"/>
      <point x="46" y="141"/>
      <point x="154" y="-14"/>
      <point x="371" y="-14" type="curve" smooth="yes"/>
      <point x="429" y="-14"/>
      <point x="480" y="-1"/>
      <point x="524" y="20" type="curve"/>
      <point x="590" y="-47" type="line"/>
      <point x="690" y="40" type="line"/>
      <point x="627" y="106" type="line"/>
      <point x="672" y="167"/>
      <point x="697" y="249"/>
      <point x="697" y="344" type="curve" smooth="yes"/>
      <point x="697" y="540"/>
      <point x="590" y="695"/>
    </contour>
    <contour>
      <point x="370" y="123" type="curve" smooth="yes"/>
      <point x="260" y="123"/>
      <point x="215" y="213"/>
      <point x="215" y="338" type="curve" smooth="yes"/>
      <point x="215" y="471"/>
      <point x="276" y="557"/>
      <point x="373" y="557" type="curve" smooth="yes"/>
      <point x="481" y="557"/>
      <point x="527" y="468"/>
      <point x="527" y="344" type="curve" smooth="yes"/>
      <point x="527" y="298"/>
      <point x="521" y="260"/>
      <point x="510" y="230" type="curve"/>
      <point x="440" y="305" type="line"/>
      <point x="331" y="215" type="line"/>
      <point x="414" y="130" type="line"/>
      <point x="401" y="125"/>
      <point x="385" y="123"/>
    </contour>
  </outline>
</glyph>
<glyph name="T" format="1">
  <advance width="606"/>
  <unicode hex="0054"/>
  <outline>
    <contour>
      <point x="8" y="680" type="line"/>
      <point x="8" y="550" type="line"/>
      <point x="211" y="550" type="line"/>
      <point x="211" y="0" type="line"/>
      <point x="375" y="0" type="line"/>
      <point x="375" y="550" type="line"/>
      <point x="598" y="550" type="line"/>
      <point x="591" y="594"/>
      <point x="586" y="636"/>
      <point x="579" y="680" type="curve"/>
    </contour>
  </outline>
</glyph>
<glyph name="U" format="1">
  <advance width="724"/>
  <unicode hex="0055"/>
  <outline>
    <contour>
      <point x="230" y="680" type="line"/>
      <point x="66" y="680" type="line"/>
      <point x="66" y="255" type="line" smooth="yes"/>
      <point x="66" y="86"/>
      <point x="183" y="-12"/>
      <point x="361" y="-12" type="curve" smooth="yes"/>
      <point x="540" y="-12"/>
      <point x="657" y="87"/>
      <point x="657" y="255" type="curve" smooth="yes"/>
      <point x="657" y="680" type="line"/>
      <point x="493" y="680" type="line"/>
      <point x="493" y="264" type="line" smooth="yes"/>
      <point x="493" y="170"/>
      <point x="439" y="123"/>
      <point x="361" y="123" type="curve" smooth="yes"/>
      <point x="284" y="123"/>
      <point x="230" y="169"/>
      <point x="230" y="264" type="curve" smooth="yes"/>
    </contour>
  </outline>
</glyph>
<glyph name="V" format="1">
  <advance width="691"/>
  <unicode hex="0056"/>
  <outline>
    <contour>
      <point x="266" y="0" type="line"/>
      <point x="424" y="0" type="line"/>
      <point x="682" y="680" type="line"/>
      <point x="518" y="680" type="line"/>
      <point x="347" y="203" type="line"/>
      <point x="170" y="680" type="line"/>
      <point x="9" y="662" type="line"/>
    </contour>
  </outline>
</glyph>
<glyph name="W" format="1">
  <advance width="1106"/>
  <unicode hex="0057"/>
  <outline>
    <contour>
      <point x="702" y="0" type="line"/>
      <point x="862" y="0" type="line"/>
      <point x="1098" y="680" type="line"/>
      <point x="934" y="680" type="line"/>
      <point x="786" y="210" type="line"/>
      <point x="632" y="680" type="line"/>
      <point x="472" y="680" type="line"/>
      <point x="325" y="209" type="line"/>
      <point x="170" y="680" type="line"/>
      <point x="9" y="662" type="line"/>
      <point x="244" y="0" type="line"/>
      <point x="403" y="0" type="line"/>
      <point x="550" y="439" type="line"/>
    </contour>
  </outline>
</glyph>
<glyph name="X" format="1">
  <advance width="718"/>
  <unicode hex="0058"/>
  <outline>
    <contour>
      <point x="9" y="12" type="curve"/>
      <point x="183" y="-11" type="line"/>
      <point x="238" y="61"/>
      <point x="293" y="135"/>
      <point x="348" y="209" type="curve"/>
      <point x="401" y="139"/>
      <point x="452" y="69"/>
      <point x="505" y="0" type="curve"/>
      <point x="705" y="0" type="line"/>
      <point x="450" y="342" type="line"/>
      <point x="709" y="680" type="line"/>
      <point x="514" y="680" type="line"/>
      <point x="459" y="611"/>
      <point x="406" y="543"/>
      <point x="352" y="474" type="curve"/>
      <point x="198" y="681" type="line"/>
      <point x="136" y="674"/>
      <point x="75" y="665"/>
      <point x="13" y="657" type="curve"/>
      <point x="250" y="340" type="line"/>
      <point x="170" y="230"/>
      <point x="89" y="122"/>
    </contour>
  </outline>
</glyph>
<glyph name="Y" format="1">
  <advance width="647"/>
  <unicode hex="0059"/>
  <outline>
    <contour>
      <point x="239" y="0" type="line"/>
      <point x="403" y="0" type="line"/>
      <point x="403" y="264" type="line"/>
      <point x="639" y="680" type="line"/>
      <point x="469" y="680" type="line"/>
      <point x="320" y="422" type="line"/>
      <point x="179" y="680" type="line"/>
      <point x="9" y="662" type="line"/>
      <point x="239" y="267" type="line"/>
    </contour>
  </outline>
</glyph>
<glyph name="bracketleft" format="1">
  <advance width="407"/>
  <unicode hex="005B"/>
  <outline>
    <contour>
      <point x="233" y="566" type="line"/>
      <point x="380" y="566" type="line"/>
      <point x="398" y="696" type="line"/>
      <point x="69" y="696" type="line"/>
      <point x="69" y="-87" type="line"/>
      <point x="398" y="-87" type="line"/>
      <point x="391" y="-44"/>
      <point x="386" y="-1"/>
      <point x="380" y="41" type="curve"/>
      <point x="233" y="41" type="line"/>
    </contour>
  </outline>
</glyph>
<glyph name="backslash" format="1">
  <advance width="479"/>
  <unicode hex="005C"/>
  <outline>
    <contour>
      <point x="304" y="-4" type="line"/>
      <point x="474" y="-4" type="line"/>
      <point x="175" y="710" type="line"/>
      <point x="5" y="710" type="line"/>
    </contour>
  </outline>
</glyph>
<glyph name="bracketright" format="1">
  <advance width="407"/>
  <unicode hex="005D"/>
  <outline>
    <contour>
      <point x="172" y="41" type="line"/>
      <point x="25" y="41" type="line"/>
      <point x="8" y="-87" type="line"/>
      <point x="337" y="-87" type="line"/>
      <point x="337" y="696" type="line"/>
      <point x="8" y="696" type="line"/>
      <point x="13" y="652"/>
      <point x="19" y="610"/>
      <point x="25" y="566" type="curve"/>
      <point x="172" y="566" type="line"/>
    </contour>
  </outline>
</glyph>
<glyph name="asciicircum" format="1">
  <advance width="481"/>
  <unicode hex="005E"/>
  <outline>
    <contour>
      <point x="179" y="142" type="line"/>
      <point x="242" y="255" type="line"/>
      <point x="305" y="142" type="line"/>
      <point x="464" y="142" type="line"/>
      <point x="302" y="412" type="line"/>
      <point x="180" y="412" type="line"/>
      <point x="17" y="142" type="line"/>
    </contour>
  </outline>
</glyph>
<glyph name="underscore" format="1">
  <advance width="429"/>
  <unicode hex="005F"/>
  <outline>
    <contour>
      <point x="410" y="0" type="line"/>
      <point x="400" y="129" type="line"/>
      <point x="19" y="129" type="line"/>
      <point x="30" y="0" type="line"/>
    </contour>
  </outline>
</glyph>
<glyph name="grave" format="1">
  <advance width="257"/>
  <unicode hex="0060"/>
  <outline>
    <contour>
      <point x="12" y="775" type="line"/>
      <point x="120" y="588" type="line"/>
      <point x="246" y="588" type="line"/>
      <point x="176" y="775" type="line"/>
    </contour>
  </outline>
</glyph>
<glyph name="b" format="1">
  <advance width="601"/>
  <unicode hex="0062"/>
  <outline>
    <contour>
      <point x="227" y="706" type="line"/>
      <point x="63" y="695" type="line"/>
      <point x="63" y="0" type="line"/>
      <point x="146" y="0" type="line"/>
      <point x="176" y="44" type="line"/>
      <point x="220" y="12"/>
      <point x="279" y="-11"/>
      <point x="331" y="-11" type="curve" smooth="yes"/>
      <point x="492" y="-11"/>
      <point x="566" y="102"/>
      <point x="566" y="248" type="curve" smooth="yes"/>
      <point x="566" y="394"/>
      <point x="490" y="502"/>
      <point x="337" y="502" type="curve" smooth="yes"/>
      <point x="299" y="502"/>
      <point x="257" y="490"/>
      <point x="227" y="473" type="curve"/>
    </contour>
    <contour>
      <point x="397" y="246" type="curve" smooth="yes"/>
      <point x="397" y="191"/>
      <point x="372" y="124"/>
      <point x="305" y="124" type="curve" smooth="yes"/>
      <point x="279" y="124"/>
      <point x="248" y="136"/>
      <point x="227" y="153" type="curve"/>
      <point x="227" y="348" type="line"/>
      <point x="247" y="359"/>
      <point x="276" y="367"/>
      <point x="295" y="367" type="curve" smooth="yes"/>
      <point x="368" y="367"/>
      <point x="397" y="310"/>
    </contour>
  </outline>
</glyph>
<glyph name="d" format="1">
  <advance width="605"/>
  <unicode hex="0064"/>
  <outline>
    <contour>
      <point x="542" y="706" type="line"/>
      <point x="377" y="695" type="line"/>
      <point x="377" y="475" type="line"/>
      <point x="343" y="492"/>
      <point x="305" y="503"/>
      <point x="271" y="503" type="curve" smooth="yes"/>
      <point x="110" y="503"/>
      <point x="34" y="389"/>
      <point x="34" y="243" type="curve" smooth="yes"/>
      <point x="34" y="97"/>
      <point x="111" y="-11"/>
      <point x="263" y="-11" type="curve" smooth="yes"/>
      <point x="335" y="-11"/>
      <point x="391" y="18"/>
      <point x="425" y="49" type="curve"/>
      <point x="458" y="0" type="line"/>
      <point x="542" y="0" type="line"/>
    </contour>
    <contour>
      <point x="305" y="124" type="curve" smooth="yes"/>
      <point x="233" y="124"/>
      <point x="204" y="181"/>
      <point x="204" y="245" type="curve" smooth="yes"/>
      <point x="204" y="300"/>
      <point x="228" y="367"/>
      <point x="295" y="367" type="curve" smooth="yes"/>
      <point x="321" y="367"/>
      <point x="354" y="354"/>
      <point x="377" y="335" type="curve"/>
      <point x="377" y="145" type="line"/>
      <point x="356" y="133"/>
      <point x="325" y="124"/>
    </contour>
  </outline>
</glyph>
<glyph name="f" format="1">
  <advance width="437"/>
  <unicode hex="0066"/>
  <outline>
    <contour>
      <point x="314" y="702" type="curve" smooth="yes"/>
      <point x="191" y="702"/>
      <point x="93" y="637"/>
      <point x="93" y="513" type="curve" smooth="yes"/>
      <point x="93" y="459" type="line"/>
      <point x="15" y="459" type="line"/>
      <point x="15" y="330" type="line"/>
      <point x="93" y="330" type="line"/>
      <point x="93" y="0" type="line"/>
      <point x="257" y="0" type="line"/>
      <point x="257" y="330" type="line"/>
      <point x="402" y="330" type="line"/>
      <point x="377" y="459" type="line"/>
      <point x="257" y="459" type="line"/>
      <point x="257" y="494" type="line" smooth="yes"/>
      <point x="257" y="538"/>
      <point x="280" y="566"/>
      <point x="324" y="566" type="curve" smooth="yes"/>
      <point x="340" y="566"/>
      <point x="366" y="561"/>
      <point x="388" y="549" type="curve"/>
      <point x="435" y="663" type="line"/>
      <point x="412" y="684"/>
      <point x="355" y="702"/>
    </contour>
  </outline>
</glyph>
<glyph name="h" format="1">
  <advance width="611"/>
  <unicode hex="0068"/>
  <outline>
    <contour>
      <point x="370" y="502" type="curve" smooth="yes"/>
      <point x="324" y="502"/>
      <point x="268" y="487"/>
      <point x="227" y="464" type="curve"/>
      <point x="227" y="706" type="line"/>
      <point x="63" y="695" type="line"/>
      <point x="63" y="0" type="line"/>
      <point x="227" y="0" type="line"/>
      <point x="227" y="332" type="line"/>
      <point x="257" y="349"/>
      <point x="297" y="367"/>
      <point x="325" y="367" type="curve" smooth="yes"/>
      <point x="366" y="367"/>
      <point x="394" y="342"/>
      <point x="394" y="296" type="curve" smooth="yes"/>
      <point x="394" y="0" type="line"/>
      <point x="558" y="0" type="line"/>
      <point x="558" y="301" type="line" smooth="yes"/>
      <point x="558" y="416"/>
      <point x="506" y="502"/>
    </contour>
  </outline>
</glyph>
<glyph name="i" format="1">
  <advance width="286"/>
  <unicode hex="0069"/>
  <outline>
    <contour>
      <point x="225" y="485" type="line"/>
      <point x="60" y="485" type="line"/>
      <point x="60" y="0" type="line"/>
      <point x="225" y="0" type="line"/>
    </contour>
    <contour>
      <point x="233" y="641" type="curve" smooth="yes"/>
      <point x="233" y="691"/>
      <point x="192" y="732"/>
      <point x="142" y="732" type="curve" smooth="yes"/>
      <point x="92" y="732"/>
      <point x="53" y="691"/>
      <point x="53" y="641" type="curve" smooth="yes"/>
      <point x="53" y="592"/>
      <point x="92" y="552"/>
      <point x="142" y="552" type="curve" smooth="yes"/>
      <point x="192" y="552"/>
      <point x="233" y="592"/>
    </contour>
  </outline>
</glyph>
<glyph name="j" format="1">
  <advance width="294"/>
  <unicode hex="006A"/>
  <outline>
    <contour>
      <point x="231" y="485" type="line"/>
      <point x="67" y="485" type="line"/>
      <point x="67" y="26" type="line" smooth="yes"/>
      <point x="67" y="-20"/>
      <point x="42" y="-49"/>
      <point x="-29" y="-74" type="curve"/>
      <point x="36" y="-194" type="line"/>
      <point x="173" y="-150"/>
      <point x="231" y="-103"/>
      <point x="231" y="-2" type="curve" smooth="yes"/>
    </contour>
    <contour>
      <point x="59" y="642" type="curve" smooth="yes"/>
      <point x="59" y="592"/>
      <point x="99" y="552"/>
      <point x="148" y="552" type="curve" smooth="yes"/>
      <point x="199" y="552"/>
      <point x="239" y="592"/>
      <point x="239" y="642" type="curve" smooth="yes"/>
      <point x="239" y="692"/>
      <point x="199" y="732"/>
      <point x="148" y="732" type="curve" smooth="yes"/>
      <point x="99" y="732"/>
      <point x="59" y="692"/>
    </contour>
  </outline>
</glyph>
<glyph name="k" format="1">
  <advance width="553"/>
  <unicode hex="006B"/>
  <outline>
    <contour>
      <point x="227" y="706" type="line"/>
      <point x="63" y="695" type="line"/>
      <point x="63" y="0" type="line"/>
      <point x="227" y="0" type="line"/>
      <point x="227" y="157" type="line"/>
      <point x="239" y="166"/>
      <point x="252" y="177"/>
      <point x="264" y="187" type="curve"/>
      <point x="371" y="0" type="line"/>
      <point x="551" y="0" type="line"/>
      <point x="379" y="278" type="line"/>
      <point x="513" y="385" type="line"/>
      <point x="482" y="423"/>
      <point x="449" y="460"/>
      <point x="417" y="499" type="curve"/>
      <point x="354" y="443"/>
      <point x="290" y="388"/>
      <point x="227" y="333" type="curve"/>
    </contour>
  </outline>
</glyph>
<glyph name="l" format="1">
  <advance width="290"/>
  <unicode hex="006C"/>
  <outline>
    <contour>
      <point x="227" y="706" type="line"/>
      <point x="63" y="695" type="line"/>
      <point x="63" y="0" type="line"/>
      <point x="227" y="0" type="line"/>
    </contour>
  </outline>
</glyph>
<glyph name="m" format="1">
  <advance width="908"/>
  <unicode hex="006D"/>
  <outline>
    <contour>
      <point x="674" y="503" type="curve" smooth="yes"/>
      <point x="605" y="503"/>
      <point x="539" y="472"/>
      <point x="499" y="441" type="curve"/>
      <point x="469" y="479"/>
      <point x="424" y="503"/>
      <point x="357" y="503" type="curve" smooth="yes"/>
      <point x="286" y="503"/>
      <point x="221" y="471"/>
      <point x="180" y="442" type="curve"/>
      <point x="144" y="484" type="line"/>
      <point x="61" y="484" type="line"/>
      <point x="61" y="0" type="line"/>
      <point x="225" y="0" type="line"/>
      <point x="225" y="336" type="line"/>
      <point x="254" y="352"/>
      <point x="286" y="367"/>
      <point x="312" y="367" type="curve" smooth="yes"/>
      <point x="349" y="367"/>
      <point x="373" y="342"/>
      <point x="373" y="297" type="curve" smooth="yes"/>
      <point x="373" y="0" type="line"/>
      <point x="538" y="0" type="line"/>
      <point x="538" y="301" type="line" smooth="yes"/>
      <point x="538" y="311"/>
      <point x="537" y="322"/>
      <point x="536" y="331" type="curve"/>
      <point x="566" y="350"/>
      <point x="602" y="367"/>
      <point x="630" y="367" type="curve" smooth="yes"/>
      <point x="667" y="367"/>
      <point x="691" y="342"/>
      <point x="691" y="297" type="curve" smooth="yes"/>
      <point x="691" y="0" type="line"/>
      <point x="856" y="0" type="line"/>
      <point x="856" y="301" type="line" smooth="yes"/>
      <point x="856" y="416"/>
      <point x="803" y="503"/>
    </contour>
  </outline>
</glyph>
<glyph name="n" format="1">
  <advance width="609"/>
  <unicode hex="006E"/>
  <outline>
    <contour>
      <point x="368" y="503" type="curve" smooth="yes"/>
      <point x="297" y="503"/>
      <point x="225" y="470"/>
      <point x="182" y="439" type="curve"/>
      <point x="144" y="484" type="line"/>
      <point x="61" y="484" type="line"/>
      <point x="61" y="0" type="line"/>
      <point x="225" y="0" type="line"/>
      <point x="225" y="332" type="line"/>
      <point x="255" y="350"/>
      <point x="296" y="367"/>
      <point x="324" y="367" type="curve" smooth="yes"/>
      <point x="365" y="367"/>
      <point x="392" y="342"/>
      <point x="392" y="297" type="curve" smooth="yes"/>
      <point x="392" y="0" type="line"/>
      <point x="556" y="0" type="line"/>
      <point x="556" y="301" type="line" smooth="yes"/>
      <point x="556" y="416"/>
      <point x="504" y="503"/>
    </contour>
  </outline>
</glyph>
<glyph name="p" format="1">
  <advance width="601"/>
  <unicode hex="0070"/>
  <outline>
    <contour>
      <point x="63" y="484" type="line"/>
      <point x="63" y="-219" type="line"/>
      <point x="227" y="-209" type="line"/>
      <point x="227" y="15" type="line"/>
      <point x="260" y="0"/>
      <point x="298" y="-11"/>
      <point x="331" y="-11" type="curve" smooth="yes"/>
      <point x="492" y="-11"/>
      <point x="566" y="102"/>
      <point x="566" y="248" type="curve" smooth="yes"/>
      <point x="566" y="394"/>
      <point x="490" y="502"/>
      <point x="337" y="502" type="curve" smooth="yes"/>
      <point x="281" y="502"/>
      <point x="223" y="481"/>
      <point x="175" y="444" type="curve"/>
      <point x="145" y="484" type="line"/>
    </contour>
    <contour>
      <point x="397" y="246" type="curve" smooth="yes"/>
      <point x="397" y="191"/>
      <point x="372" y="124"/>
      <point x="305" y="124" type="curve" smooth="yes"/>
      <point x="279" y="124"/>
      <point x="248" y="136"/>
      <point x="227" y="153" type="curve"/>
      <point x="227" y="347" type="line"/>
      <point x="246" y="358"/>
      <point x="269" y="367"/>
      <point x="295" y="367" type="curve" smooth="yes"/>
      <point x="368" y="367"/>
      <point x="397" y="310"/>
    </contour>
  </outline>
</glyph>
<glyph name="q" format="1">
  <advance width="605"/>
  <unicode hex="0071"/>
  <outline>
    <contour>
      <point x="542" y="484" type="line"/>
      <point x="459" y="484" type="line"/>
      <point x="428" y="444" type="line"/>
      <point x="385" y="477"/>
      <point x="324" y="503"/>
      <point x="271" y="503" type="curve" smooth="yes"/>
      <point x="110" y="503"/>
      <point x="34" y="389"/>
      <point x="34" y="243" type="curve" smooth="yes"/>
      <point x="34" y="97"/>
      <point x="111" y="-11"/>
      <point x="263" y="-11" type="curve" smooth="yes"/>
      <point x="305" y="-11"/>
      <point x="345" y="0"/>
      <point x="377" y="16" type="curve"/>
      <point x="377" y="-219" type="line"/>
      <point x="542" y="-208" type="line"/>
    </contour>
    <contour>
      <point x="305" y="124" type="curve" smooth="yes"/>
      <point x="233" y="124"/>
      <point x="204" y="181"/>
      <point x="204" y="245" type="curve" smooth="yes"/>
      <point x="204" y="300"/>
      <point x="228" y="367"/>
      <point x="295" y="367" type="curve" smooth="yes"/>
      <point x="321" y="367"/>
      <point x="354" y="354"/>
      <point x="377" y="335" type="curve"/>
      <point x="377" y="145" type="line"/>
      <point x="356" y="133"/>
      <point x="325" y="124"/>
    </contour>
  </outline>
</glyph>
<glyph name="r" format="1">
  <advance width="382"/>
  <unicode hex="0072"/>
  <outline>
    <contour>
      <point x="341" y="485" type="line"/>
      <point x="287" y="485"/>
      <point x="227" y="457"/>
      <point x="187" y="427" type="curve"/>
      <point x="143" y="484" type="line"/>
      <point x="60" y="484" type="line"/>
      <point x="60" y="0" type="line"/>
      <point x="225" y="0" type="line"/>
      <point x="225" y="298" type="line"/>
      <point x="271" y="336"/>
      <point x="327" y="353"/>
      <point x="374" y="353" type="curve"/>
    </contour>
  </outline>
</glyph>
<glyph name="t" format="1">
  <advance width="434"/>
  <unicode hex="0074"/>
  <outline>
    <contour>
      <point x="302" y="-14" type="curve" smooth="yes"/>
      <point x="344" y="-14"/>
      <point x="401" y="4"/>
      <point x="424" y="25" type="curve"/>
      <point x="377" y="138" type="line"/>
      <point x="355" y="127"/>
      <point x="330" y="121"/>
      <point x="313" y="121" type="curve" smooth="yes"/>
      <point x="268" y="121"/>
      <point x="244" y="150"/>
      <point x="244" y="194" type="curve" smooth="yes"/>
      <point x="244" y="343" type="line"/>
      <point x="376" y="343" type="line"/>
      <point x="351" y="471" type="line"/>
      <point x="244" y="471" type="line"/>
      <point x="244" y="621" type="line"/>
      <point x="80" y="597" type="line"/>
      <point x="80" y="471" type="line"/>
      <point x="9" y="471" type="line"/>
      <point x="9" y="343" type="line"/>
      <point x="80" y="343" type="line"/>
      <point x="80" y="173" type="line" smooth="yes"/>
      <point x="80" y="49"/>
      <point x="180" y="-14"/>
    </contour>
  </outline>
</glyph>
<glyph name="v" format="1">
  <advance width="546"/>
  <unicode hex="0076"/>
  <outline>
    <contour>
      <point x="195" y="0" type="line"/>
      <point x="346" y="0" type="line"/>
      <point x="537" y="485" type="line"/>
      <point x="371" y="485" type="line"/>
      <point x="274" y="204" type="line"/>
      <point x="172" y="485" type="line"/>
      <point x="9" y="467" type="line"/>
    </contour>
  </outline>
</glyph>
<glyph name="w" format="1">
  <advance width="824"/>
  <unicode hex="0077"/>
  <outline>
    <contour>
      <point x="500" y="0" type="line"/>
      <point x="647" y="0" type="line"/>
      <point x="816" y="485" type="line"/>
      <point x="650" y="485" type="line"/>
      <point x="575" y="208" type="line"/>
      <point x="492" y="485" type="line"/>
      <point x="330" y="485" type="line"/>
      <point x="252" y="208" type="line"/>
      <point x="172" y="485" type="line"/>
      <point x="9" y="467" type="line"/>
      <point x="173" y="0" type="line"/>
      <point x="320" y="0" type="line"/>
      <point x="409" y="267" type="line"/>
    </contour>
  </outline>
</glyph>
<glyph name="x" format="1">
  <advance width="578"/>
  <unicode hex="0078"/>
  <outline>
    <contour>
      <point x="8" y="0" type="line"/>
      <point x="192" y="0" type="line"/>
      <point x="224" y="39"/>
      <point x="255" y="78"/>
      <point x="286" y="117" type="curve"/>
      <point x="380" y="0" type="line"/>
      <point x="564" y="0" type="line"/>
      <point x="503" y="76"/>
      <point x="444" y="152"/>
      <point x="383" y="229" type="curve"/>
      <point x="569" y="485" type="line"/>
      <point x="388" y="485" type="line"/>
      <point x="285" y="354" type="line"/>
      <point x="183" y="486" type="line"/>
      <point x="126" y="479"/>
      <point x="70" y="470"/>
      <point x="14" y="463" type="curve"/>
      <point x="188" y="242" type="line"/>
    </contour>
  </outline>
</glyph>
<glyph name="z" format="1">
  <advance width="471"/>
  <unicode hex="007A"/>
  <outline>
    <contour>
      <point x="432" y="393" type="curve"/>
      <point x="430" y="421"/>
      <point x="428" y="449"/>
      <point x="425" y="477" type="curve" smooth="yes"/>
      <point x="425" y="480"/>
      <point x="424" y="482"/>
      <point x="424" y="485" type="curve"/>
      <point x="37" y="485" type="line"/>
      <point x="56" y="354" type="line"/>
      <point x="221" y="354" type="line"/>
      <point x="18" y="85" type="line"/>
      <point x="25" y="57"/>
      <point x="32" y="28"/>
      <point x="38" y="0" type="curve"/>
      <point x="448" y="0" type="line"/>
      <point x="433" y="130" type="line"/>
      <point x="230" y="130" type="line"/>
      <point x="298" y="217"/>
      <point x="365" y="305"/>
    </contour>
  </outline>
</glyph>
<glyph name="braceleft" format="1">
  <advance width="310"/>
  <unicode hex="007B"/>
  <outline>
    <contour>
      <point x="247" y="222" type="curve" smooth="yes"/>
      <point x="247" y="262"/>
      <point x="232" y="290"/>
      <point x="212" y="309" type="curve"/>
      <point x="232" y="325"/>
      <point x="246" y="347"/>
      <point x="246" y="390" type="curve" smooth="yes"/>
      <point x="246" y="436"/>
      <point x="212" y="475"/>
      <point x="212" y="515" type="curve" smooth="yes"/>
      <point x="212" y="528"/>
      <point x="223" y="544"/>
      <point x="250" y="544" type="curve" smooth="yes"/>
      <point x="290" y="544" type="line"/>
      <point x="303" y="659" type="line"/>
      <point x="245" y="659" type="line" smooth="yes"/>
      <point x="132" y="659"/>
      <point x="84" y="616"/>
      <point x="84" y="533" type="curve" smooth="yes"/>
      <point x="84" y="517"/>
      <point x="90" y="497"/>
      <point x="96" y="479" type="curve"/>
      <point x="101" y="453"/>
      <point x="115" y="425"/>
      <point x="115" y="398" type="curve" smooth="yes"/>
      <point x="115" y="374"/>
      <point x="96" y="358"/>
      <point x="75" y="358" type="curve" smooth="yes"/>
      <point x="30" y="358" type="line"/>
      <point x="30" y="258" type="line"/>
      <point x="75" y="258" type="line" smooth="yes"/>
      <point x="97" y="258"/>
      <point x="115" y="241"/>
      <point x="115" y="218" type="curve" smooth="yes"/>
      <point x="115" y="191"/>
      <point x="84" y="126"/>
      <point x="84" y="85" type="curve" smooth="yes"/>
      <point x="84" y="4"/>
      <point x="129" y="-40"/>
      <point x="236" y="-40" type="curve" smooth="yes"/>
      <point x="303" y="-40" type="line"/>
      <point x="290" y="73" type="line"/>
      <point x="250" y="73" type="line" smooth="yes"/>
      <point x="223" y="73"/>
      <point x="212" y="89"/>
      <point x="212" y="103" type="curve" smooth="yes"/>
      <point x="212" y="139"/>
      <point x="247" y="178"/>
    </contour>
  </outline>
</glyph>
<glyph name="bar" format="1">
  <advance width="343"/>
  <unicode hex="007C"/>
  <outline>
    <contour>
      <point x="253" y="699" type="line"/>
      <point x="202" y="703"/>
      <point x="153" y="707"/>
      <point x="102" y="712" type="curve" smooth="yes"/>
      <point x="98" y="712"/>
      <point x="93" y="713"/>
      <point x="89" y="713" type="curve"/>
      <point x="89" y="0" type="line"/>
      <point x="253" y="-13" type="line"/>
    </contour>
  </outline>
</glyph>
<glyph name="braceright" format="1">
  <advance width="310"/>
  <unicode hex="007D"/>
  <outline>
    <contour>
      <point x="62" y="395" type="curve" smooth="yes"/>
      <point x="62" y="355"/>
      <point x="76" y="327"/>
      <point x="97" y="308" type="curve"/>
      <point x="80" y="294"/>
      <point x="66" y="275"/>
      <point x="63" y="242" type="curve"/>
      <point x="63" y="232"/>
      <point x="63" y="222"/>
      <point x="64" y="211" type="curve" smooth="yes"/>
      <point x="67" y="172"/>
      <point x="96" y="136"/>
      <point x="96" y="103" type="curve" smooth="yes"/>
      <point x="96" y="89"/>
      <point x="86" y="73"/>
      <point x="59" y="73" type="curve" smooth="yes"/>
      <point x="19" y="73" type="line"/>
      <point x="7" y="-40" type="line"/>
      <point x="63" y="-40" type="line" smooth="yes"/>
      <point x="174" y="-40"/>
      <point x="226" y="-1"/>
      <point x="226" y="85" type="curve" smooth="yes"/>
      <point x="226" y="100"/>
      <point x="218" y="121"/>
      <point x="213" y="138" type="curve"/>
      <point x="208" y="163"/>
      <point x="193" y="191"/>
      <point x="193" y="218" type="curve" smooth="yes"/>
      <point x="193" y="243"/>
      <point x="212" y="259"/>
      <point x="233" y="259" type="curve" smooth="yes"/>
      <point x="278" y="259" type="line"/>
      <point x="278" y="358" type="line"/>
      <point x="233" y="358" type="line" smooth="yes"/>
      <point x="212" y="358"/>
      <point x="193" y="374"/>
      <point x="193" y="398" type="curve" smooth="yes"/>
      <point x="193" y="430"/>
      <point x="226" y="489"/>
      <point x="226" y="533" type="curve" smooth="yes"/>
      <point x="226" y="612"/>
      <point x="177" y="659"/>
      <point x="73" y="659" type="curve" smooth="yes"/>
      <point x="7" y="659" type="line"/>
      <point x="19" y="544" type="line"/>
      <point x="59" y="544" type="line" smooth="yes"/>
      <point x="86" y="544"/>
      <point x="96" y="528"/>
      <point x="96" y="515" type="curve" smooth="yes"/>
      <point x="96" y="478"/>
      <point x="62" y="439"/>
    </contour>
  </outline>
</glyph>
<glyph name="asciitilde" format="1">
  <advance width="504"/>
  <unicode hex="007E"/>
  <outline>
    <contour>
      <point x="136" y="173" type="line"/>
      <point x="137" y="197"/>
      <point x="166" y="219"/>
      <point x="186" y="219" type="curve" smooth="yes"/>
      <point x="239" y="219"/>
      <point x="293" y="185"/>
      <point x="357" y="185" type="curve" smooth="yes"/>
      <point x="448" y="185"/>
      <point x="489" y="260"/>
      <point x="489" y="381" type="curve"/>
      <point x="367" y="381" type="line"/>
      <point x="366" y="357"/>
      <point x="350" y="336"/>
      <point x="330" y="336" type="curve" smooth="yes"/>
      <point x="288" y="336"/>
      <point x="223" y="369"/>
      <point x="162" y="369" type="curve" smooth="yes"/>
      <point x="68" y="369"/>
      <point x="14" y="294"/>
      <point x="14" y="173" type="curve"/>
    </contour>
  </outline>
</glyph>
<glyph name="exclamdown" format="1">
  <advance width="246"/>
  <unicode hex="00A1"/>
  <outline>
    <contour>
      <point x="187" y="463" type="line"/>
      <point x="58" y="506" type="line"/>
      <point x="39" y="0" type="line"/>
      <point x="205" y="0" type="line"/>
    </contour>
    <contour>
      <point x="37" y="625" type="curve" smooth="yes"/>
      <point x="37" y="576"/>
      <point x="75" y="539"/>
      <point x="122" y="539" type="curve" smooth="yes"/>
      <point x="171" y="539"/>
      <point x="208" y="576"/>
      <point x="208" y="625" type="curve" smooth="yes"/>
      <point x="208" y="673"/>
      <point x="171" y="710"/>
      <point x="122" y="710" type="curve" smooth="yes"/>
      <point x="75" y="710"/>
      <point x="37" y="673"/>
    </contour>
  </outline>
</glyph>
<glyph name="cent" format="1">
  <advance width="487"/>
  <unicode hex="00A2"/>
  <outline>
    <contour>
      <point x="306" y="365" type="curve" smooth="yes"/>
      <point x="345" y="365"/>
      <point x="371" y="357"/>
      <point x="412" y="337" type="curve"/>
      <point x="459" y="451" type="line"/>
      <point x="429" y="473"/>
      <point x="393" y="487"/>
      <point x="360" y="493" type="curve"/>
      <point x="360" y="624" type="line"/>
      <point x="217" y="624" type="line"/>
      <point x="217" y="492" type="line"/>
      <point x="103" y="464"/>
      <point x="34" y="374"/>
      <point x="34" y="242" type="curve" smooth="yes"/>
      <point x="34" y="109"/>
      <point x="103" y="22"/>
      <point x="218" y="-3" type="curve"/>
      <point x="218" y="-118" type="line"/>
      <point x="361" y="-129" type="line"/>
      <point x="361" y="-5" type="line"/>
      <point x="394" y="2"/>
      <point x="429" y="14"/>
      <point x="459" y="38" type="curve"/>
      <point x="412" y="152" type="line"/>
      <point x="371" y="132"/>
      <point x="343" y="124"/>
      <point x="306" y="124" type="curve" smooth="yes"/>
      <point x="249" y="124"/>
      <point x="204" y="168"/>
      <point x="204" y="242" type="curve" smooth="yes"/>
      <point x="204" y="316"/>
      <point x="249" y="365"/>
    </contour>
  </outline>
</glyph>
<glyph name="sterling" format="1">
  <advance width="513"/>
  <unicode hex="00A3"/>
  <outline>
    <contour>
      <point x="37" y="403" type="line"/>
      <point x="37" y="275" type="line"/>
      <point x="116" y="275" type="line"/>
      <point x="116" y="200" type="line" smooth="yes"/>
      <point x="116" y="158"/>
      <point x="96" y="130"/>
      <point x="56" y="128" type="curve" smooth="yes"/>
      <point x="47" y="128" type="line"/>
      <point x="47" y="0" type="line"/>
      <point x="502" y="0" type="line"/>
      <point x="484" y="128" type="line"/>
      <point x="270" y="128" type="line"/>
      <point x="277" y="147"/>
      <point x="281" y="168"/>
      <point x="281" y="192" type="curve" smooth="yes"/>
      <point x="281" y="275" type="line"/>
      <point x="434" y="275" type="line"/>
      <point x="409" y="403" type="line"/>
      <point x="281" y="403" type="line"/>
      <point x="281" y="476" type="line" smooth="yes"/>
      <point x="281" y="519"/>
      <point x="303" y="548"/>
      <point x="347" y="548" type="curve" smooth="yes"/>
      <point x="364" y="548"/>
      <point x="390" y="542"/>
      <point x="411" y="531" type="curve"/>
      <point x="459" y="644" type="line"/>
      <point x="432" y="668"/>
      <point x="371" y="683"/>
      <point x="327" y="683" type="curve" smooth="yes"/>
      <point x="206" y="683"/>
      <point x="116" y="612"/>
      <point x="116" y="495" type="curve" smooth="yes"/>
      <point x="116" y="403" type="line"/>
    </contour>
  </outline>
</glyph>
<glyph name="currency" format="1">
  <advance width="756"/>
  <unicode hex="00A4"/>
  <outline>
    <contour>
      <point x="379" y="-12" type="curve"/>
      <point x="425" y="-11"/>
      <point x="471" y="-1"/>
      <point x="508" y="18" type="curve"/>
      <point x="614" y="-94" type="line"/>
      <point x="735" y="17" type="line"/>
      <point x="617" y="126" type="line"/>
      <point x="636" y="162"/>
      <point x="647" y="204"/>
      <point x="647" y="249" type="curve" smooth="yes"/>
      <point x="647" y="294"/>
      <point x="636" y="335"/>
      <point x="618" y="369" type="curve"/>
      <point x="727" y="478" type="line"/>
      <point x="618" y="592" type="line"/>
      <point x="600" y="574"/>
      <point x="529" y="499"/>
      <point x="508" y="478" type="curve"/>
      <point x="471" y="497"/>
      <point x="424" y="508"/>
      <point x="378" y="508" type="curve" smooth="yes"/>
      <point x="332" y="508"/>
      <point x="285" y="496"/>
      <point x="248" y="477" type="curve"/>
      <point x="141" y="589" type="line"/>
      <point x="20" y="478" type="line"/>
      <point x="139" y="367" type="line"/>
      <point x="121" y="333"/>
      <point x="110" y="291"/>
      <point x="110" y="246" type="curve" smooth="yes"/>
      <point x="110" y="202"/>
      <point x="121" y="161"/>
      <point x="138" y="127" type="curve"/>
      <point x="28" y="18" type="line"/>
      <point x="138" y="-97" type="line"/>
      <point x="155" y="-79"/>
      <point x="227" y="-3"/>
      <point x="248" y="18" type="curve"/>
      <point x="285" y="-1"/>
      <point x="333" y="-11"/>
    </contour>
    <contour>
      <point x="274" y="247" type="curve"/>
      <point x="275" y="306"/>
      <point x="318" y="352"/>
      <point x="378" y="352" type="curve" smooth="yes"/>
      <point x="436" y="352"/>
      <point x="484" y="307"/>
      <point x="484" y="248" type="curve" smooth="yes"/>
      <point x="484" y="189"/>
      <point x="438" y="143"/>
      <point x="378" y="143" type="curve" smooth="yes"/>
      <point x="320" y="143"/>
      <point x="275" y="188"/>
    </contour>
  </outline>
</glyph>
<glyph name="yen" format="1">
  <advance width="647"/>
  <unicode hex="00A5"/>
  <outline>
    <contour>
      <point x="550" y="55" type="line"/>
      <point x="540" y="164" type="line"/>
      <point x="402" y="164" type="line"/>
      <point x="402" y="206" type="line"/>
      <point x="550" y="206" type="line"/>
      <point x="540" y="315" type="line"/>
      <point x="431" y="315" type="line"/>
      <point x="638" y="680" type="line"/>
      <point x="468" y="680" type="line"/>
      <point x="419" y="593"/>
      <point x="369" y="508"/>
      <point x="319" y="421" type="curve"/>
      <point x="272" y="508"/>
      <point x="226" y="593"/>
      <point x="178" y="680" type="curve"/>
      <point x="8" y="662" type="line"/>
      <point x="76" y="547"/>
      <point x="142" y="430"/>
      <point x="210" y="315" type="curve"/>
      <point x="92" y="315" type="line"/>
      <point x="103" y="206" type="line"/>
      <point x="238" y="206" type="line"/>
      <point x="238" y="164" type="line"/>
      <point x="92" y="164" type="line"/>
      <point x="103" y="55" type="line"/>
      <point x="238" y="55" type="line"/>
      <point x="238" y="0" type="line"/>
      <point x="402" y="0" type="line"/>
      <point x="402" y="55" type="line"/>
    </contour>
  </outline>
</glyph>
<glyph name="brokenbar" format="1">
  <advance width="343"/>
  <unicode hex="00A6"/>
  <outline>
    <contour>
      <point x="253" y="287" type="line"/>
      <point x="89" y="300" type="line"/>
      <point x="89" y="0" type="line"/>
      <point x="253" y="-13" type="line"/>
    </contour>
    <contour>
      <point x="253" y="699" type="line"/>
      <point x="202" y="703"/>
      <point x="153" y="707"/>
      <point x="102" y="712" type="curve" smooth="yes"/>
      <point x="98" y="712"/>
      <point x="93" y="713"/>
      <point x="89" y="713" type="curve"/>
      <point x="89" y="412" type="line"/>
      <point x="93" y="412"/>
      <point x="98" y="411"/>
      <point x="102" y="411" type="curve" smooth="yes"/>
      <point x="153" y="406"/>
      <point x="202" y="402"/>
      <point x="253" y="398" type="curve"/>
    </contour>
  </outline>
</glyph>
<glyph name="section" format="1">
  <advance width="688"/>
  <unicode hex="00A7"/>
  <outline>
    <contour>
      <point x="167" y="591" type="curve" smooth="yes"/>
      <point x="167" y="585"/>
      <point x="168" y="573"/>
      <point x="169" y="567" type="curve"/>
      <point x="85" y="540"/>
      <point x="35" y="476"/>
      <point x="35" y="399" type="curve" smooth="yes"/>
      <point x="35" y="280"/>
      <point x="145" y="215"/>
      <point x="238" y="168" type="curve" smooth="yes"/>
      <point x="295" y="140"/>
      <point x="352" y="110"/>
      <point x="352" y="79" type="curve" smooth="yes"/>
      <point x="352" y="45"/>
      <point x="318" y="18"/>
      <point x="252" y="18" type="curve" smooth="yes"/>
      <point x="200" y="18"/>
      <point x="127" y="42"/>
      <point x="90" y="63" type="curve"/>
      <point x="41" y="-62" type="line"/>
      <point x="86" y="-93"/>
      <point x="190" y="-119"/>
      <point x="256" y="-119" type="curve" smooth="yes"/>
      <point x="424" y="-119"/>
      <point x="521" y="-36"/>
      <point x="522" y="77" type="curve" smooth="yes"/>
      <point x="522" y="84"/>
      <point x="520" y="90"/>
      <point x="518" y="97" type="curve"/>
      <point x="604" y="127"/>
      <point x="653" y="191"/>
      <point x="653" y="269" type="curve" smooth="yes"/>
      <point x="653" y="381"/>
      <point x="545" y="449"/>
      <point x="449" y="499" type="curve"/>
      <point x="431" y="508" type="line"/>
      <point x="378" y="535"/>
      <point x="336" y="556"/>
      <point x="336" y="589" type="curve" smooth="yes"/>
      <point x="336" y="621"/>
      <point x="368" y="644"/>
      <point x="416" y="644" type="curve" smooth="yes"/>
      <point x="465" y="644"/>
      <point x="498" y="633"/>
      <point x="561" y="609" type="curve"/>
      <point x="611" y="726" type="line"/>
      <point x="558" y="758"/>
      <point x="481" y="780"/>
      <point x="414" y="780" type="curve" smooth="yes"/>
      <point x="259" y="780"/>
      <point x="168" y="699"/>
    </contour>
    <contour>
      <point x="315" y="305" type="curve"/>
      <point x="255" y="337"/>
      <point x="204" y="359"/>
      <point x="204" y="396" type="curve" smooth="yes"/>
      <point x="204" y="416"/>
      <point x="218" y="433"/>
      <point x="242" y="440" type="curve"/>
      <point x="281" y="408"/>
      <point x="327" y="382"/>
      <point x="371" y="360" type="curve" smooth="yes"/>
      <point x="428" y="332"/>
      <point x="484" y="302"/>
      <point x="484" y="271" type="curve" smooth="yes"/>
      <point x="484" y="252"/>
      <point x="470" y="233"/>
      <point x="445" y="224" type="curve"/>
      <point x="407" y="256"/>
      <point x="360" y="283"/>
    </contour>
  </outline>
</glyph>
<glyph name="dieresis" format="1">
  <advance width="383"/>
  <unicode hex="00A8"/>
  <outline>
    <contour>
      <point x="371" y="680" type="curve" smooth="yes"/>
      <point x="371" y="722"/>
      <point x="337" y="756"/>
      <point x="293" y="756" type="curve" smooth="yes"/>
      <point x="252" y="756"/>
      <point x="216" y="722"/>
      <point x="216" y="680" type="curve" smooth="yes"/>
      <point x="216" y="636"/>
      <point x="252" y="603"/>
      <point x="293" y="603" type="curve" smooth="yes"/>
      <point x="337" y="603"/>
      <point x="371" y="636"/>
    </contour>
    <contour>
      <point x="166" y="680" type="curve" smooth="yes"/>
      <point x="166" y="722"/>
      <point x="133" y="756"/>
      <point x="89" y="756" type="curve" smooth="yes"/>
      <point x="48" y="756"/>
      <point x="12" y="722"/>
      <point x="12" y="680" type="curve" smooth="yes"/>
      <point x="12" y="636"/>
      <point x="48" y="603"/>
      <point x="89" y="603" type="curve" smooth="yes"/>
      <point x="133" y="603"/>
      <point x="166" y="636"/>
    </contour>
  </outline>
</glyph>
<glyph name="copyright" format="1">
  <advance width="888"/>
  <unicode hex="00A9"/>
  <outline>
    <contour>
      <point x="444" y="64" type="curve" smooth="yes"/>
      <point x="278" y="64"/>
      <point x="171" y="182"/>
      <point x="171" y="337" type="curve" smooth="yes"/>
      <point x="171" y="493"/>
      <point x="278" y="611"/>
      <point x="444" y="611" type="curve" smooth="yes"/>
      <point x="622" y="611"/>
      <point x="716" y="493"/>
      <point x="716" y="337" type="curve" smooth="yes"/>
      <point x="716" y="182"/>
      <point x="612" y="64"/>
    </contour>
    <contour>
      <point x="444" y="-43" type="curve" smooth="yes"/>
      <point x="682" y="-43"/>
      <point x="835" y="124"/>
      <point x="835" y="336" type="curve" smooth="yes"/>
      <point x="835" y="550"/>
      <point x="682" y="717"/>
      <point x="444" y="717" type="curve" smooth="yes"/>
      <point x="208" y="717"/>
      <point x="54" y="550"/>
      <point x="54" y="336" type="curve" smooth="yes"/>
      <point x="54" y="124"/>
      <point x="208" y="-43"/>
    </contour>
    <contour>
      <point x="469" y="442" type="curve" smooth="yes"/>
      <point x="504" y="442"/>
      <point x="527" y="435"/>
      <point x="564" y="417" type="curve"/>
      <point x="605" y="522" type="line"/>
      <point x="557" y="558"/>
      <point x="494" y="566"/>
      <point x="458" y="566" type="curve" smooth="yes"/>
      <point x="322" y="566"/>
      <point x="227" y="479"/>
      <point x="227" y="336" type="curve" smooth="yes"/>
      <point x="227" y="193"/>
      <point x="319" y="111"/>
      <point x="458" y="111" type="curve" smooth="yes"/>
      <point x="494" y="111"/>
      <point x="558" y="118"/>
      <point x="605" y="155" type="curve"/>
      <point x="564" y="260" type="line"/>
      <point x="527" y="240"/>
      <point x="502" y="233"/>
      <point x="469" y="233" type="curve" smooth="yes"/>
      <point x="420" y="233"/>
      <point x="381" y="270"/>
      <point x="381" y="336" type="curve" smooth="yes"/>
      <point x="381" y="403"/>
      <point x="420" y="442"/>
    </contour>
  </outline>
</glyph>
<glyph name="ordfeminine" format="1">
  <advance width="371"/>
  <unicode hex="00AA"/>
  <outline>
    <contour>
      <point x="180" y="702" type="curve" smooth="yes"/>
      <point x="133" y="702"/>
      <point x="73" y="687"/>
      <point x="40" y="670" type="curve"/>
      <point x="71" y="570" type="line"/>
      <point x="96" y="581"/>
      <point x="134" y="591"/>
      <point x="160" y="591" type="curve" smooth="yes"/>
      <point x="180" y="591"/>
      <point x="193" y="582"/>
      <point x="199" y="568" type="curve"/>
      <point x="158" y="568" type="line" smooth="yes"/>
      <point x="80" y="568"/>
      <point x="27" y="532"/>
      <point x="27" y="460" type="curve" smooth="yes"/>
      <point x="27" y="392"/>
      <point x="67" y="346"/>
      <point x="152" y="346" type="curve" smooth="yes"/>
      <point x="188" y="346"/>
      <point x="223" y="360"/>
      <point x="245" y="380" type="curve"/>
      <point x="269" y="353" type="line"/>
      <point x="324" y="353" type="line"/>
      <point x="324" y="566" type="line" smooth="yes"/>
      <point x="324" y="648"/>
      <point x="269" y="702"/>
    </contour>
    <contour>
      <point x="159" y="452" type="curve" smooth="yes"/>
      <point x="145" y="452"/>
      <point x="137" y="458"/>
      <point x="137" y="466" type="curve" smooth="yes"/>
      <point x="137" y="476"/>
      <point x="147" y="483"/>
      <point x="163" y="483" type="curve" smooth="yes"/>
      <point x="205" y="483" type="line"/>
      <point x="205" y="470" type="line"/>
      <point x="192" y="458"/>
      <point x="176" y="452"/>
    </contour>
  </outline>
</glyph>
<glyph name="guillemotleft" format="1">
  <advance width="399"/>
  <unicode hex="00AB"/>
  <outline>
    <contour>
      <point x="178" y="76" type="line"/>
      <point x="208" y="176" type="line"/>
      <point x="135" y="246" type="line"/>
      <point x="208" y="316" type="line"/>
      <point x="178" y="417" type="line"/>
      <point x="20" y="269" type="line"/>
      <point x="20" y="223" type="line"/>
    </contour>
    <contour>
      <point x="356" y="76" type="line"/>
      <point x="385" y="176" type="line"/>
      <point x="312" y="246" type="line"/>
      <point x="385" y="316" type="line"/>
      <point x="356" y="417" type="line"/>
      <point x="197" y="269" type="line"/>
      <point x="197" y="223" type="line"/>
    </contour>
  </outline>
</glyph>
<glyph name="logicalnot" format="1">
  <advance width="526"/>
  <unicode hex="00AC"/>
  <outline>
    <contour>
      <point x="512" y="356" type="line"/>
      <point x="497" y="417" type="line"/>
      <point x="12" y="417" type="line"/>
      <point x="15" y="374"/>
      <point x="19" y="332"/>
      <point x="23" y="288" type="curve"/>
      <point x="364" y="288" type="line"/>
      <point x="364" y="117" type="line"/>
      <point x="512" y="110" type="line"/>
    </contour>
  </outline>
</glyph>
<glyph name="registered" format="1">
  <advance width="745"/>
  <unicode hex="00AE"/>
  <outline>
    <contour>
      <point x="352" y="142" type="curve" smooth="yes"/>
      <point x="564" y="142"/>
      <point x="694" y="290"/>
      <point x="694" y="479" type="curve" smooth="yes"/>
      <point x="694" y="670"/>
      <point x="564" y="819"/>
      <point x="352" y="819" type="curve" smooth="yes"/>
      <point x="142" y="819"/>
      <point x="11" y="670"/>
      <point x="11" y="479" type="curve" smooth="yes"/>
      <point x="11" y="290"/>
      <point x="142" y="142"/>
    </contour>
    <contour>
      <point x="352" y="234" type="curve"/>
      <point x="200" y="236"/>
      <point x="110" y="339"/>
      <point x="110" y="480" type="curve" smooth="yes"/>
      <point x="110" y="622"/>
      <point x="200" y="725"/>
      <point x="352" y="725" type="curve" smooth="yes"/>
      <point x="503" y="725"/>
      <point x="594" y="622"/>
      <point x="594" y="480" type="curve" smooth="yes"/>
      <point x="594" y="339"/>
      <point x="503" y="236"/>
    </contour>
    <contour>
      <point x="400" y="301" type="curve"/>
      <point x="513" y="301" type="line"/>
      <point x="492" y="349"/>
      <point x="470" y="397"/>
      <point x="448" y="445" type="curve"/>
      <point x="483" y="464"/>
      <point x="509" y="497"/>
      <point x="509" y="544" type="curve" smooth="yes"/>
      <point x="509" y="628"/>
      <point x="436" y="664"/>
      <point x="357" y="664" type="curve" smooth="yes"/>
      <point x="208" y="664" type="line"/>
      <point x="208" y="301" type="line"/>
      <point x="308" y="301" type="line"/>
      <point x="308" y="423" type="line"/>
      <point x="350" y="423" type="line"/>
      <point x="367" y="383"/>
      <point x="384" y="342"/>
    </contour>
    <contour>
      <point x="340" y="584" type="line" smooth="yes"/>
      <point x="377" y="584"/>
      <point x="400" y="577"/>
      <point x="400" y="543" type="curve" smooth="yes"/>
      <point x="400" y="513"/>
      <point x="375" y="501"/>
      <point x="341" y="501" type="curve" smooth="yes"/>
      <point x="308" y="501" type="line"/>
      <point x="308" y="584" type="line"/>
    </contour>
  </outline>
</glyph>
<glyph name="macron" format="1">
  <advance width="304"/>
  <unicode hex="00AF"/>
  <outline>
    <contour>
      <point x="12" y="742" type="line"/>
      <point x="12" y="613" type="line"/>
      <point x="293" y="613" type="line"/>
      <point x="293" y="742" type="line"/>
    </contour>
  </outline>
</glyph>
<glyph name="degree" format="1">
  <advance width="280"/>
  <unicode hex="00B0"/>
  <outline>
    <contour>
      <point x="271" y="595" type="curve" smooth="yes"/>
      <point x="271" y="666"/>
      <point x="209" y="721"/>
      <point x="141" y="721" type="curve" smooth="yes"/>
      <point x="68" y="721"/>
      <point x="9" y="666"/>
      <point x="9" y="595" type="curve" smooth="yes"/>
      <point x="9" y="524"/>
      <point x="68" y="471"/>
      <point x="141" y="471" type="curve" smooth="yes"/>
      <point x="209" y="471"/>
      <point x="271" y="524"/>
    </contour>
    <contour>
      <point x="141" y="626" type="curve" smooth="yes"/>
      <point x="159" y="626"/>
      <point x="172" y="611"/>
      <point x="172" y="593" type="curve" smooth="yes"/>
      <point x="172" y="578"/>
      <point x="159" y="563"/>
      <point x="141" y="563" type="curve" smooth="yes"/>
      <point x="125" y="563"/>
      <point x="111" y="579"/>
      <point x="111" y="595" type="curve" smooth="yes"/>
      <point x="111" y="611"/>
      <point x="125" y="626"/>
    </contour>
  </outline>
</glyph>
<glyph name="plusminus" format="1">
  <advance width="500"/>
  <unicode hex="00B1"/>
  <outline>
    <contour>
      <point x="479" y="294" type="line"/>
      <point x="470" y="405" type="line"/>
      <point x="320" y="405" type="line"/>
      <point x="320" y="557" type="line"/>
      <point x="184" y="557" type="line"/>
      <point x="184" y="405" type="line"/>
      <point x="22" y="405" type="line"/>
      <point x="32" y="294" type="line"/>
      <point x="184" y="294" type="line"/>
      <point x="184" y="153" type="line"/>
      <point x="320" y="146" type="line"/>
      <point x="320" y="294" type="line"/>
    </contour>
    <contour>
      <point x="478" y="0" type="line"/>
      <point x="470" y="112" type="line"/>
      <point x="21" y="112" type="line"/>
      <point x="31" y="0" type="line"/>
    </contour>
  </outline>
</glyph>
<glyph name="twosuperior" format="1">
  <advance width="406"/>
  <unicode hex="00B2"/>
  <outline>
    <contour>
      <point x="350" y="641" type="curve" smooth="yes"/>
      <point x="350" y="703"/>
      <point x="310" y="771"/>
      <point x="190" y="771" type="curve" smooth="yes"/>
      <point x="119" y="771"/>
      <point x="65" y="736"/>
      <point x="33" y="710" type="curve"/>
      <point x="86" y="622" type="line"/>
      <point x="105" y="636"/>
      <point x="148" y="665"/>
      <point x="184" y="665" type="curve" smooth="yes"/>
      <point x="212" y="665"/>
      <point x="229" y="651"/>
      <point x="229" y="632" type="curve" smooth="yes"/>
      <point x="228" y="602"/>
      <point x="210" y="574"/>
      <point x="168" y="537" type="curve" smooth="yes"/>
      <point x="37" y="424" type="line"/>
      <point x="37" y="337" type="line"/>
      <point x="365" y="337" type="line"/>
      <point x="353" y="438" type="line"/>
      <point x="219" y="438" type="line"/>
      <point x="252" y="467" type="line" smooth="yes"/>
      <point x="323" y="527"/>
      <point x="350" y="577"/>
    </contour>
  </outline>
</glyph>
<glyph name="threesuperior" format="1">
  <advance width="426"/>
  <unicode hex="00B3"/>
  <outline>
    <contour>
      <point x="376" y="638" type="curve" smooth="yes"/>
      <point x="376" y="715"/>
      <point x="311" y="771"/>
      <point x="202" y="771" type="curve" smooth="yes"/>
      <point x="142" y="771"/>
      <point x="84" y="755"/>
      <point x="32" y="716" type="curve"/>
      <point x="91" y="627" type="line"/>
      <point x="123" y="650"/>
      <point x="153" y="665"/>
      <point x="186" y="665" type="curve" smooth="yes"/>
      <point x="227" y="665"/>
      <point x="243" y="647"/>
      <point x="243" y="630" type="curve" smooth="yes"/>
      <point x="243" y="606"/>
      <point x="223" y="584"/>
      <point x="173" y="584" type="curve" smooth="yes"/>
      <point x="116" y="584" type="line"/>
      <point x="127" y="482" type="line"/>
      <point x="189" y="482" type="line" smooth="yes"/>
      <point x="227" y="482"/>
      <point x="251" y="464"/>
      <point x="251" y="430" type="curve" smooth="yes"/>
      <point x="251" y="403"/>
      <point x="226" y="384"/>
      <point x="188" y="384" type="curve" smooth="yes"/>
      <point x="152" y="384"/>
      <point x="124" y="395"/>
      <point x="82" y="421" type="curve"/>
      <point x="16" y="333" type="line"/>
      <point x="70" y="300"/>
      <point x="137" y="279"/>
      <point x="192" y="279" type="curve" smooth="yes"/>
      <point x="309" y="279"/>
      <point x="385" y="341"/>
      <point x="385" y="428" type="curve" smooth="yes"/>
      <point x="385" y="478"/>
      <point x="351" y="524"/>
      <point x="318" y="541" type="curve"/>
      <point x="346" y="554"/>
      <point x="376" y="600"/>
    </contour>
  </outline>
</glyph>
<glyph name="acute" format="1">
  <advance width="257"/>
  <unicode hex="00B4"/>
  <outline>
    <contour>
      <point x="81" y="775" type="line"/>
      <point x="12" y="588" type="line"/>
      <point x="138" y="588" type="line"/>
      <point x="246" y="775" type="line"/>
    </contour>
  </outline>
</glyph>
<glyph name="mu" format="1">
  <advance width="592"/>
  <unicode hex="00B5"/>
  <outline>
    <contour>
      <point x="247" y="-18" type="curve" smooth="yes"/>
      <point x="319" y="-18"/>
      <point x="387" y="13"/>
      <point x="429" y="43" type="curve"/>
      <point x="442" y="28"/>
      <point x="453" y="14"/>
      <point x="466" y="0" type="curve"/>
      <point x="549" y="0" type="line"/>
      <point x="549" y="484" type="line"/>
      <point x="385" y="484" type="line"/>
      <point x="385" y="149" type="line"/>
      <point x="355" y="132"/>
      <point x="318" y="116"/>
      <point x="292" y="116" type="curve" smooth="yes"/>
      <point x="251" y="116"/>
      <point x="227" y="142"/>
      <point x="227" y="187" type="curve" smooth="yes"/>
      <point x="227" y="484" type="line"/>
      <point x="63" y="484" type="line"/>
      <point x="63" y="-219" type="line"/>
      <point x="227" y="-209" type="line"/>
      <point x="227" y="-16" type="line"/>
      <point x="232" y="-18"/>
      <point x="239" y="-18"/>
    </contour>
  </outline>
</glyph>
<glyph name="paragraph" format="1">
  <advance width="1026"/>
  <unicode hex="00B6"/>
  <outline>
    <contour>
      <point x="727" y="0" type="line"/>
      <point x="891" y="0" type="line"/>
      <point x="891" y="550" type="line"/>
      <point x="1014" y="550" type="line"/>
      <point x="1014" y="680" type="line"/>
      <point x="339" y="680" type="line" smooth="yes"/>
      <point x="181" y="680"/>
      <point x="53" y="615"/>
      <point x="53" y="446" type="curve" smooth="yes"/>
      <point x="53" y="280"/>
      <point x="195" y="206"/>
      <point x="352" y="206" type="curve" smooth="yes"/>
      <point x="376" y="206" type="line"/>
      <point x="376" y="0" type="line"/>
      <point x="540" y="0" type="line"/>
      <point x="540" y="550" type="line"/>
      <point x="727" y="550" type="line"/>
    </contour>
  </outline>
</glyph>
<glyph name="periodcentered" format="1">
  <advance width="191"/>
  <unicode hex="00B7"/>
  <outline>
    <contour>
      <point x="180" y="263" type="curve" smooth="yes"/>
      <point x="180" y="311"/>
      <point x="143" y="348"/>
      <point x="96" y="348" type="curve" smooth="yes"/>
      <point x="47" y="348"/>
      <point x="10" y="311"/>
      <point x="10" y="263" type="curve" smooth="yes"/>
      <point x="10" y="214"/>
      <point x="47" y="178"/>
      <point x="96" y="178" type="curve" smooth="yes"/>
      <point x="143" y="178"/>
      <point x="180" y="214"/>
    </contour>
  </outline>
</glyph>
<glyph name="cedilla" format="1">
  <advance width="269"/>
  <unicode hex="00B8"/>
  <outline>
    <contour>
      <point x="93" y="13" type="line"/>
      <point x="52" y="-88" type="line"/>
      <point x="107" y="-94"/>
      <point x="138" y="-109"/>
      <point x="138" y="-128" type="curve" smooth="yes"/>
      <point x="138" y="-141"/>
      <point x="123" y="-146"/>
      <point x="106" y="-146" type="curve" smooth="yes"/>
      <point x="88" y="-146"/>
      <point x="62" y="-136"/>
      <point x="47" y="-129" type="curve"/>
      <point x="12" y="-211" type="line"/>
      <point x="41" y="-234"/>
      <point x="86" y="-248"/>
      <point x="121" y="-248" type="curve" smooth="yes"/>
      <point x="191" y="-248"/>
      <point x="257" y="-209"/>
      <point x="257" y="-134" type="curve" smooth="yes"/>
      <point x="257" y="-99"/>
      <point x="235" y="-52"/>
      <point x="188" y="-36" type="curve"/>
      <point x="207" y="13" type="line"/>
    </contour>
  </outline>
</glyph>
<glyph name="onesuperior" format="1">
  <advance width="386"/>
  <unicode hex="00B9"/>
  <outline>
    <contour>
      <point x="53" y="438" type="line"/>
      <point x="63" y="337" type="line"/>
      <point x="354" y="337" type="line"/>
      <point x="351" y="370"/>
      <point x="347" y="404"/>
      <point x="343" y="438" type="curve"/>
      <point x="279" y="438" type="line"/>
      <point x="279" y="763" type="line"/>
      <point x="192" y="763" type="line"/>
      <point x="40" y="686" type="line"/>
      <point x="96" y="581" type="line"/>
      <point x="148" y="606" type="line"/>
      <point x="148" y="438" type="line"/>
    </contour>
  </outline>
</glyph>
<glyph name="ordmasculine" format="1">
  <advance width="407"/>
  <unicode hex="00BA"/>
  <outline>
    <contour>
      <point x="27" y="524" type="curve" smooth="yes"/>
      <point x="27" y="414"/>
      <point x="89" y="345"/>
      <point x="198" y="345" type="curve" smooth="yes"/>
      <point x="308" y="345"/>
      <point x="380" y="413"/>
      <point x="380" y="522" type="curve" smooth="yes"/>
      <point x="380" y="631"/>
      <point x="316" y="702"/>
      <point x="203" y="702" type="curve" smooth="yes"/>
      <point x="94" y="702"/>
      <point x="27" y="634"/>
    </contour>
    <contour>
      <point x="205" y="590" type="curve" smooth="yes"/>
      <point x="240" y="590"/>
      <point x="251" y="564"/>
      <point x="251" y="521" type="curve" smooth="yes"/>
      <point x="251" y="477"/>
      <point x="236" y="456"/>
      <point x="200" y="456" type="curve" smooth="yes"/>
      <point x="168" y="456"/>
      <point x="155" y="479"/>
      <point x="155" y="524" type="curve" smooth="yes"/>
      <point x="155" y="571"/>
      <point x="174" y="590"/>
    </contour>
  </outline>
</glyph>
<glyph name="guillemotright" format="1">
  <advance width="399"/>
  <unicode hex="00BB"/>
  <outline>
    <contour>
      <point x="220" y="417" type="line"/>
      <point x="191" y="317" type="line"/>
      <point x="264" y="246" type="line"/>
      <point x="191" y="176" type="line"/>
      <point x="220" y="76" type="line"/>
      <point x="379" y="224" type="line"/>
      <point x="379" y="270" type="line"/>
    </contour>
    <contour>
      <point x="44" y="417" type="line"/>
      <point x="14" y="317" type="line"/>
      <point x="86" y="246" type="line"/>
      <point x="14" y="176" type="line"/>
      <point x="44" y="76" type="line"/>
      <point x="201" y="224" type="line"/>
      <point x="201" y="270" type="line"/>
    </contour>
  </outline>
</glyph>
<glyph name="onequarter" format="1">
  <advance width="971"/>
  <unicode hex="00BC"/>
  <outline>
    <contour>
      <point x="934" y="-77" type="line"/>
      <point x="943" y="28" type="line"/>
      <point x="860" y="28" type="line"/>
      <point x="860" y="324" type="line"/>
      <point x="763" y="324" type="line"/>
      <point x="502" y="23" type="line"/>
      <point x="517" y="-77" type="line"/>
      <point x="727" y="-77" type="line"/>
      <point x="727" y="-165" type="line"/>
      <point x="860" y="-165" type="line"/>
      <point x="860" y="-77" type="line"/>
    </contour>
    <contour>
      <point x="663" y="489" type="curve"/>
      <point x="504" y="489" type="line"/>
      <point x="411" y="328"/>
      <point x="316" y="164"/>
      <point x="223" y="0" type="curve"/>
      <point x="380" y="0" type="line"/>
      <point x="475" y="160"/>
      <point x="569" y="325"/>
    </contour>
    <contour>
      <point x="53" y="438" type="line"/>
      <point x="63" y="337" type="line"/>
      <point x="354" y="337" type="line"/>
      <point x="351" y="370"/>
      <point x="347" y="404"/>
      <point x="343" y="438" type="curve"/>
      <point x="279" y="438" type="line"/>
      <point x="279" y="763" type="line"/>
      <point x="192" y="763" type="line"/>
      <point x="40" y="686" type="line"/>
      <point x="96" y="581" type="line"/>
      <point x="148" y="606" type="line"/>
      <point x="148" y="438" type="line"/>
    </contour>
    <contour>
      <point x="653" y="28" type="line"/>
      <point x="727" y="116" type="line"/>
      <point x="727" y="28" type="line"/>
    </contour>
  </outline>
</glyph>
<glyph name="onehalf" format="1">
  <advance width="970"/>
  <unicode hex="00BD"/>
  <outline>
    <contour>
      <point x="933" y="194" type="curve" smooth="yes"/>
      <point x="933" y="256"/>
      <point x="893" y="324"/>
      <point x="773" y="324" type="curve" smooth="yes"/>
      <point x="702" y="324"/>
      <point x="648" y="289"/>
      <point x="616" y="264" type="curve"/>
      <point x="633" y="234"/>
      <point x="652" y="205"/>
      <point x="669" y="176" type="curve"/>
      <point x="687" y="189"/>
      <point x="731" y="219"/>
      <point x="767" y="219" type="curve" smooth="yes"/>
      <point x="795" y="219"/>
      <point x="812" y="204"/>
      <point x="812" y="185" type="curve" smooth="yes"/>
      <point x="812" y="156"/>
      <point x="794" y="127"/>
      <point x="751" y="90" type="curve" smooth="yes"/>
      <point x="707" y="53"/>
      <point x="664" y="15"/>
      <point x="620" y="-21" type="curve"/>
      <point x="620" y="-109" type="line"/>
      <point x="948" y="-109" type="line"/>
      <point x="936" y="-8" type="line"/>
      <point x="802" y="-8" type="line"/>
      <point x="897" y="70"/>
      <point x="933" y="119"/>
    </contour>
    <contour>
      <point x="677" y="489" type="curve"/>
      <point x="517" y="489" type="line"/>
      <point x="424" y="328"/>
      <point x="329" y="164"/>
      <point x="236" y="0" type="curve"/>
      <point x="394" y="0" type="line"/>
      <point x="488" y="160"/>
      <point x="582" y="325"/>
    </contour>
    <contour>
      <point x="53" y="438" type="line"/>
      <point x="63" y="337" type="line"/>
      <point x="354" y="337" type="line"/>
      <point x="351" y="370"/>
      <point x="347" y="404"/>
      <point x="343" y="438" type="curve"/>
      <point x="279" y="438" type="line"/>
      <point x="279" y="763" type="line"/>
      <point x="192" y="763" type="line"/>
      <point x="40" y="686" type="line"/>
      <point x="96" y="581" type="line"/>
      <point x="148" y="606" type="line"/>
      <point x="148" y="438" type="line"/>
    </contour>
  </outline>
</glyph>
<glyph name="threequarters" format="1">
  <advance width="986"/>
  <unicode hex="00BE"/>
  <outline>
    <contour>
      <point x="679" y="489" type="line"/>
      <point x="520" y="489" type="line"/>
      <point x="238" y="0" type="line"/>
      <point x="396" y="0" type="line"/>
    </contour>
    <contour>
      <point x="950" y="-77" type="line"/>
      <point x="958" y="29" type="line"/>
      <point x="876" y="29" type="line"/>
      <point x="876" y="325" type="line"/>
      <point x="779" y="325" type="line"/>
      <point x="518" y="24" type="line"/>
      <point x="533" y="-77" type="line"/>
      <point x="742" y="-77" type="line"/>
      <point x="742" y="-166" type="line"/>
      <point x="876" y="-166" type="line"/>
      <point x="876" y="-77" type="line"/>
    </contour>
    <contour>
      <point x="668" y="29" type="line"/>
      <point x="742" y="116" type="line"/>
      <point x="742" y="29" type="line"/>
    </contour>
    <contour>
      <point x="376" y="638" type="curve" smooth="yes"/>
      <point x="376" y="715"/>
      <point x="311" y="771"/>
      <point x="202" y="771" type="curve" smooth="yes"/>
      <point x="142" y="771"/>
      <point x="84" y="755"/>
      <point x="32" y="716" type="curve"/>
      <point x="91" y="627" type="line"/>
      <point x="123" y="650"/>
      <point x="153" y="665"/>
      <point x="186" y="665" type="curve" smooth="yes"/>
      <point x="227" y="665"/>
      <point x="243" y="647"/>
      <point x="243" y="630" type="curve" smooth="yes"/>
      <point x="243" y="606"/>
      <point x="223" y="584"/>
      <point x="173" y="584" type="curve" smooth="yes"/>
      <point x="116" y="584" type="line"/>
      <point x="127" y="482" type="line"/>
      <point x="189" y="482" type="line" smooth="yes"/>
      <point x="227" y="482"/>
      <point x="251" y="464"/>
      <point x="251" y="430" type="curve" smooth="yes"/>
      <point x="251" y="403"/>
      <point x="226" y="384"/>
      <point x="188" y="384" type="curve" smooth="yes"/>
      <point x="152" y="384"/>
      <point x="124" y="395"/>
      <point x="82" y="421" type="curve"/>
      <point x="16" y="333" type="line"/>
      <point x="70" y="300"/>
      <point x="137" y="279"/>
      <point x="192" y="279" type="curve" smooth="yes"/>
      <point x="309" y="279"/>
      <point x="385" y="341"/>
      <point x="385" y="428" type="curve" smooth="yes"/>
      <point x="385" y="478"/>
      <point x="351" y="524"/>
      <point x="318" y="541" type="curve"/>
      <point x="346" y="554"/>
      <point x="376" y="600"/>
    </contour>
  </outline>
</glyph>
<glyph name="questiondown" format="1">
  <advance width="477"/>
  <unicode hex="00BF"/>
  <outline>
    <contour>
      <point x="34" y="151" type="curve" smooth="yes"/>
      <point x="34" y="39"/>
      <point x="119" y="-37"/>
      <point x="257" y="-37" type="curve" smooth="yes"/>
      <point x="322" y="-37"/>
      <point x="384" y="-23"/>
      <point x="450" y="16" type="curve"/>
      <point x="429" y="154" type="line"/>
      <point x="353" y="108"/>
      <point x="298" y="97"/>
      <point x="261" y="97" type="curve" smooth="yes"/>
      <point x="225" y="97"/>
      <point x="198" y="117"/>
      <point x="198" y="149" type="curve" smooth="yes"/>
      <point x="198" y="192"/>
      <point x="263" y="240"/>
      <point x="354" y="269" type="curve"/>
      <point x="346" y="430" type="line"/>
      <point x="220" y="468" type="line"/>
      <point x="207" y="346" type="line"/>
      <point x="91" y="299"/>
      <point x="34" y="230"/>
    </contour>
    <contour>
      <point x="207" y="579" type="curve" smooth="yes"/>
      <point x="207" y="531"/>
      <point x="244" y="493"/>
      <point x="292" y="493" type="curve" smooth="yes"/>
      <point x="340" y="493"/>
      <point x="378" y="531"/>
      <point x="378" y="579" type="curve" smooth="yes"/>
      <point x="378" y="627"/>
      <point x="340" y="664"/>
      <point x="292" y="664" type="curve" smooth="yes"/>
      <point x="244" y="664"/>
      <point x="207" y="627"/>
    </contour>
  </outline>
</glyph>
<glyph name="Agrave" format="1">
  <advance width="691"/>
  <unicode hex="00C0"/>
  <outline>
    <contour>
      <point x="425" y="680" type="line"/>
      <point x="267" y="680" type="line"/>
      <point x="9" y="0" type="line"/>
      <point x="172" y="0" type="line"/>
      <point x="224" y="143" type="line"/>
      <point x="467" y="143" type="line"/>
      <point x="520" y="0" type="line"/>
      <point x="682" y="18" type="line"/>
    </contour>
    <contour>
      <point x="191" y="922" type="line"/>
      <point x="296" y="738" type="line"/>
      <point x="420" y="738" type="line"/>
      <point x="352" y="922" type="line"/>
    </contour>
    <contour>
      <point x="343" y="476" type="line"/>
      <point x="419" y="273" type="line"/>
      <point x="270" y="273" type="line"/>
    </contour>
  </outline>
</glyph>
<glyph name="Aacute" format="1">
  <advance width="691"/>
  <unicode hex="00C1"/>
  <outline>
    <contour>
      <point x="425" y="680" type="line"/>
      <point x="267" y="680" type="line"/>
      <point x="9" y="0" type="line"/>
      <point x="172" y="0" type="line"/>
      <point x="224" y="143" type="line"/>
      <point x="467" y="143" type="line"/>
      <point x="520" y="0" type="line"/>
      <point x="682" y="18" type="line"/>
    </contour>
    <contour>
      <point x="333" y="922" type="line"/>
      <point x="265" y="738" type="line"/>
      <point x="389" y="738" type="line"/>
      <point x="494" y="922" type="line"/>
    </contour>
    <contour>
      <point x="343" y="476" type="line"/>
      <point x="419" y="273" type="line"/>
      <point x="270" y="273" type="line"/>
    </contour>
  </outline>
</glyph>
<glyph name="Acircumflex" format="1">
  <advance width="691"/>
  <unicode hex="00C2"/>
  <outline>
    <contour>
      <point x="425" y="680" type="line"/>
      <point x="267" y="680" type="line"/>
      <point x="9" y="0" type="line"/>
      <point x="172" y="0" type="line"/>
      <point x="224" y="143" type="line"/>
      <point x="467" y="143" type="line"/>
      <point x="520" y="0" type="line"/>
      <point x="682" y="18" type="line"/>
    </contour>
    <contour>
      <point x="281" y="739" type="line"/>
      <point x="338" y="802" type="line"/>
      <point x="395" y="739" type="line"/>
      <point x="550" y="739" type="line"/>
      <point x="383" y="926" type="line"/>
      <point x="289" y="926" type="line"/>
      <point x="122" y="739" type="line"/>
    </contour>
    <contour>
      <point x="343" y="476" type="line"/>
      <point x="419" y="273" type="line"/>
      <point x="270" y="273" type="line"/>
    </contour>
  </outline>
</glyph>
<glyph name="Atilde" format="1">
  <advance width="691"/>
  <unicode hex="00C3"/>
  <outline>
    <contour>
      <point x="425" y="680" type="line"/>
      <point x="267" y="680" type="line"/>
      <point x="9" y="0" type="line"/>
      <point x="172" y="0" type="line"/>
      <point x="224" y="143" type="line"/>
      <point x="467" y="143" type="line"/>
      <point x="520" y="0" type="line"/>
      <point x="682" y="18" type="line"/>
    </contour>
    <contour>
      <point x="274" y="750" type="line"/>
      <point x="274" y="762"/>
      <point x="286" y="780"/>
      <point x="298" y="780" type="curve" smooth="yes"/>
      <point x="330" y="780"/>
      <point x="357" y="745"/>
      <point x="400" y="745" type="curve" smooth="yes"/>
      <point x="460" y="745"/>
      <point x="518" y="781"/>
      <point x="518" y="892" type="curve"/>
      <point x="410" y="892" type="line"/>
      <point x="410" y="878"/>
      <point x="399" y="862"/>
      <point x="386" y="862" type="curve" smooth="yes"/>
      <point x="354" y="862"/>
      <point x="326" y="896"/>
      <point x="282" y="896" type="curve" smooth="yes"/>
      <point x="223" y="896"/>
      <point x="162" y="860"/>
      <point x="162" y="750" type="curve"/>
    </contour>
    <contour>
      <point x="343" y="476" type="line"/>
      <point x="419" y="273" type="line"/>
      <point x="270" y="273" type="line"/>
    </contour>
  </outline>
</glyph>
<glyph name="Adieresis" format="1">
  <advance width="691"/>
  <unicode hex="00C4"/>
  <outline>
    <contour>
      <point x="425" y="680" type="line"/>
      <point x="267" y="680" type="line"/>
      <point x="9" y="0" type="line"/>
      <point x="172" y="0" type="line"/>
      <point x="224" y="143" type="line"/>
      <point x="467" y="143" type="line"/>
      <point x="520" y="0" type="line"/>
      <point x="682" y="18" type="line"/>
    </contour>
    <contour>
      <point x="521" y="830" type="curve" smooth="yes"/>
      <point x="521" y="872"/>
      <point x="488" y="906"/>
      <point x="443" y="906" type="curve" smooth="yes"/>
      <point x="402" y="906"/>
      <point x="367" y="872"/>
      <point x="367" y="830" type="curve" smooth="yes"/>
      <point x="367" y="786"/>
      <point x="402" y="753"/>
      <point x="443" y="753" type="curve" smooth="yes"/>
      <point x="488" y="753"/>
      <point x="521" y="786"/>
    </contour>
    <contour>
      <point x="316" y="830" type="curve" smooth="yes"/>
      <point x="316" y="872"/>
      <point x="283" y="906"/>
      <point x="240" y="906" type="curve" smooth="yes"/>
      <point x="198" y="906"/>
      <point x="162" y="872"/>
      <point x="162" y="830" type="curve" smooth="yes"/>
      <point x="162" y="786"/>
      <point x="198" y="753"/>
      <point x="240" y="753" type="curve" smooth="yes"/>
      <point x="283" y="753"/>
      <point x="316" y="786"/>
    </contour>
    <contour>
      <point x="343" y="476" type="line"/>
      <point x="419" y="273" type="line"/>
      <point x="270" y="273" type="line"/>
    </contour>
  </outline>
</glyph>
<glyph name="Aring" format="1">
  <advance width="691"/>
  <unicode hex="00C5"/>
  <outline>
    <contour>
      <point x="425" y="680" type="line"/>
      <point x="267" y="680" type="line"/>
      <point x="9" y="0" type="line"/>
      <point x="172" y="0" type="line"/>
      <point x="224" y="143" type="line"/>
      <point x="467" y="143" type="line"/>
      <point x="520" y="0" type="line"/>
      <point x="682" y="18" type="line"/>
    </contour>
    <contour>
      <point x="460" y="853" type="curve" smooth="yes"/>
      <point x="460" y="916"/>
      <point x="405" y="965"/>
      <point x="342" y="965" type="curve" smooth="yes"/>
      <point x="279" y="965"/>
      <point x="225" y="916"/>
      <point x="225" y="853" type="curve" smooth="yes"/>
      <point x="225" y="789"/>
      <point x="279" y="744"/>
      <point x="342" y="744" type="curve" smooth="yes"/>
      <point x="405" y="744"/>
      <point x="460" y="789"/>
    </contour>
    <contour>
      <point x="343" y="476" type="line"/>
      <point x="419" y="273" type="line"/>
      <point x="270" y="273" type="line"/>
    </contour>
    <contour>
      <point x="376" y="853" type="curve" smooth="yes"/>
      <point x="376" y="836"/>
      <point x="362" y="820"/>
      <point x="344" y="820" type="curve" smooth="yes"/>
      <point x="326" y="820"/>
      <point x="310" y="836"/>
      <point x="310" y="853" type="curve" smooth="yes"/>
      <point x="310" y="871"/>
      <point x="326" y="885"/>
      <point x="344" y="885" type="curve" smooth="yes"/>
      <point x="362" y="885"/>
      <point x="376" y="871"/>
    </contour>
  </outline>
</glyph>
<glyph name="AE" format="1">
  <advance width="979"/>
  <unicode hex="00C6"/>
  <outline>
    <contour>
      <point x="6" y="21" type="line"/>
      <point x="58" y="13"/>
      <point x="112" y="6"/>
      <point x="164" y="-1" type="curve"/>
      <point x="262" y="138" type="line"/>
      <point x="467" y="138" type="line"/>
      <point x="467" y="0" type="line"/>
      <point x="958" y="0" type="line"/>
      <point x="940" y="128" type="line"/>
      <point x="632" y="128" type="line"/>
      <point x="632" y="277" type="line"/>
      <point x="850" y="277" type="line"/>
      <point x="832" y="406" type="line"/>
      <point x="632" y="406" type="line"/>
      <point x="632" y="550" type="line"/>
      <point x="922" y="550" type="line"/>
      <point x="904" y="680" type="line"/>
      <point x="463" y="680" type="line"/>
    </contour>
    <contour>
      <point x="352" y="268" type="line"/>
      <point x="391" y="324"/>
      <point x="429" y="378"/>
      <point x="467" y="434" type="curve"/>
      <point x="467" y="268" type="line"/>
    </contour>
  </outline>
</glyph>
<glyph name="Ccedilla" format="1">
  <advance width="602"/>
  <unicode hex="00C7"/>
  <outline>
    <contour>
      <point x="368" y="558" type="curve" smooth="yes"/>
      <point x="417" y="558"/>
      <point x="443" y="551"/>
      <point x="512" y="529" type="curve"/>
      <point x="561" y="641" type="line"/>
      <point x="506" y="676"/>
      <point x="426" y="693"/>
      <point x="368" y="693" type="curve" smooth="yes"/>
      <point x="166" y="693"/>
      <point x="46" y="547"/>
      <point x="46" y="337" type="curve" smooth="yes"/>
      <point x="46" y="153"/>
      <point x="130" y="15"/>
      <point x="307" y="-9" type="curve"/>
      <point x="276" y="-88" type="line"/>
      <point x="331" y="-94"/>
      <point x="362" y="-109"/>
      <point x="362" y="-128" type="curve" smooth="yes"/>
      <point x="362" y="-141"/>
      <point x="347" y="-146"/>
      <point x="330" y="-146" type="curve" smooth="yes"/>
      <point x="312" y="-146"/>
      <point x="286" y="-136"/>
      <point x="271" y="-129" type="curve"/>
      <point x="236" y="-211" type="line"/>
      <point x="265" y="-234"/>
      <point x="310" y="-248"/>
      <point x="345" y="-248" type="curve" smooth="yes"/>
      <point x="415" y="-248"/>
      <point x="481" y="-209"/>
      <point x="481" y="-134" type="curve" smooth="yes"/>
      <point x="481" y="-99"/>
      <point x="459" y="-52"/>
      <point x="412" y="-36" type="curve"/>
      <point x="422" y="-10" type="line"/>
      <point x="473" y="-3"/>
      <point x="528" y="12"/>
      <point x="567" y="35" type="curve"/>
      <point x="505" y="157" type="line"/>
      <point x="468" y="137"/>
      <point x="422" y="122"/>
      <point x="369" y="122" type="curve" smooth="yes"/>
      <point x="273" y="122"/>
      <point x="216" y="209"/>
      <point x="216" y="338" type="curve" smooth="yes"/>
      <point x="216" y="472"/>
      <point x="277" y="558"/>
    </contour>
  </outline>
</glyph>
<glyph name="Egrave" format="1">
  <advance width="585"/>
  <unicode hex="00C8"/>
  <outline>
    <contour>
      <point x="565" y="0" type="line"/>
      <point x="558" y="43"/>
      <point x="553" y="85"/>
      <point x="546" y="128" type="curve"/>
      <point x="238" y="128" type="line"/>
      <point x="238" y="277" type="line"/>
      <point x="456" y="277" type="line"/>
      <point x="438" y="406" type="line"/>
      <point x="238" y="406" type="line"/>
      <point x="238" y="550" type="line"/>
      <point x="528" y="550" type="line"/>
      <point x="510" y="680" type="line"/>
      <point x="74" y="680" type="line"/>
      <point x="74" y="0" type="line"/>
    </contour>
    <contour>
      <point x="170" y="922" type="line"/>
      <point x="276" y="738" type="line"/>
      <point x="399" y="738" type="line"/>
      <point x="377" y="799"/>
      <point x="354" y="860"/>
      <point x="331" y="922" type="curve"/>
    </contour>
  </outline>
</glyph>
<glyph name="Eacute" format="1">
  <advance width="585"/>
  <unicode hex="00C9"/>
  <outline>
    <contour>
      <point x="565" y="0" type="line"/>
      <point x="558" y="43"/>
      <point x="553" y="85"/>
      <point x="546" y="128" type="curve"/>
      <point x="238" y="128" type="line"/>
      <point x="238" y="277" type="line"/>
      <point x="456" y="277" type="line"/>
      <point x="438" y="406" type="line"/>
      <point x="238" y="406" type="line"/>
      <point x="238" y="550" type="line"/>
      <point x="528" y="550" type="line"/>
      <point x="510" y="680" type="line"/>
      <point x="74" y="680" type="line"/>
      <point x="74" y="0" type="line"/>
    </contour>
    <contour>
      <point x="296" y="922" type="line"/>
      <point x="273" y="860"/>
      <point x="250" y="799"/>
      <point x="228" y="738" type="curve"/>
      <point x="351" y="738" type="line"/>
      <point x="457" y="922" type="line"/>
    </contour>
  </outline>
</glyph>
<glyph name="Ecircumflex" format="1">
  <advance width="585"/>
  <unicode hex="00CA"/>
  <outline>
    <contour>
      <point x="565" y="0" type="line"/>
      <point x="558" y="43"/>
      <point x="553" y="85"/>
      <point x="546" y="128" type="curve"/>
      <point x="238" y="128" type="line"/>
      <point x="238" y="277" type="line"/>
      <point x="456" y="277" type="line"/>
      <point x="438" y="406" type="line"/>
      <point x="238" y="406" type="line"/>
      <point x="238" y="550" type="line"/>
      <point x="528" y="550" type="line"/>
      <point x="510" y="680" type="line"/>
      <point x="74" y="680" type="line"/>
      <point x="74" y="0" type="line"/>
    </contour>
    <contour>
      <point x="241" y="739" type="line"/>
      <point x="261" y="760"/>
      <point x="280" y="780"/>
      <point x="299" y="802" type="curve"/>
      <point x="318" y="780"/>
      <point x="337" y="760"/>
      <point x="356" y="739" type="curve"/>
      <point x="511" y="739" type="line"/>
      <point x="344" y="926" type="line"/>
      <point x="249" y="926" type="line"/>
      <point x="194" y="863"/>
      <point x="138" y="801"/>
      <point x="83" y="739" type="curve"/>
    </contour>
  </outline>
</glyph>
<glyph name="Edieresis" format="1">
  <advance width="585"/>
  <unicode hex="00CB"/>
  <outline>
    <contour>
      <point x="565" y="0" type="line"/>
      <point x="547" y="129" type="line"/>
      <point x="239" y="129" type="line"/>
      <point x="239" y="277" type="line"/>
      <point x="457" y="277" type="line"/>
      <point x="439" y="407" type="line"/>
      <point x="239" y="407" type="line"/>
      <point x="239" y="551" type="line"/>
      <point x="528" y="551" type="line"/>
      <point x="510" y="680" type="line"/>
      <point x="75" y="680" type="line"/>
      <point x="75" y="0" type="line"/>
    </contour>
    <contour>
      <point x="480" y="830" type="curve" smooth="yes"/>
      <point x="480" y="872"/>
      <point x="447" y="906"/>
      <point x="403" y="906" type="curve" smooth="yes"/>
      <point x="362" y="906"/>
      <point x="326" y="872"/>
      <point x="326" y="830" type="curve" smooth="yes"/>
      <point x="326" y="786"/>
      <point x="362" y="753"/>
      <point x="403" y="753" type="curve" smooth="yes"/>
      <point x="447" y="753"/>
      <point x="480" y="786"/>
    </contour>
    <contour>
      <point x="276" y="830" type="curve" smooth="yes"/>
      <point x="276" y="872"/>
      <point x="243" y="906"/>
      <point x="199" y="906" type="curve" smooth="yes"/>
      <point x="157" y="906"/>
      <point x="121" y="872"/>
      <point x="121" y="830" type="curve" smooth="yes"/>
      <point x="121" y="786"/>
      <point x="157" y="753"/>
      <point x="199" y="753" type="curve" smooth="yes"/>
      <point x="243" y="753"/>
      <point x="276" y="786"/>
    </contour>
  </outline>
</glyph>
<glyph name="Igrave" format="1">
  <advance width="313"/>
  <unicode hex="00CC"/>
  <outline>
    <contour>
      <point x="238" y="680" type="line"/>
      <point x="74" y="680" type="line"/>
      <point x="74" y="0" type="line"/>
      <point x="238" y="0" type="line"/>
    </contour>
    <contour>
      <point x="13" y="922" type="line"/>
      <point x="119" y="738" type="line"/>
      <point x="242" y="738" type="line"/>
      <point x="220" y="799"/>
      <point x="197" y="860"/>
      <point x="175" y="922" type="curve"/>
    </contour>
  </outline>
</glyph>
<glyph name="Iacute" format="1">
  <advance width="313"/>
  <unicode hex="00CD"/>
  <outline>
    <contour>
      <point x="238" y="680" type="line"/>
      <point x="74" y="680" type="line"/>
      <point x="74" y="0" type="line"/>
      <point x="238" y="0" type="line"/>
    </contour>
    <contour>
      <point x="139" y="922" type="line"/>
      <point x="117" y="860"/>
      <point x="94" y="799"/>
      <point x="71" y="738" type="curve"/>
      <point x="195" y="738" type="line"/>
      <point x="300" y="922" type="line"/>
    </contour>
  </outline>
</glyph>
<glyph name="Icircumflex" format="1">
  <advance width="313"/>
  <unicode hex="00CE"/>
  <outline>
    <contour>
      <point x="238" y="680" type="line"/>
      <point x="74" y="680" type="line"/>
      <point x="74" y="0" type="line"/>
      <point x="238" y="0" type="line"/>
    </contour>
    <contour>
      <point x="102" y="739" type="line"/>
      <point x="122" y="760"/>
      <point x="141" y="780"/>
      <point x="160" y="802" type="curve"/>
      <point x="179" y="780"/>
      <point x="198" y="760"/>
      <point x="217" y="739" type="curve"/>
      <point x="371" y="739" type="line"/>
      <point x="205" y="926" type="line"/>
      <point x="110" y="926" type="line"/>
      <point x="-55" y="739" type="line"/>
    </contour>
  </outline>
</glyph>
<glyph name="Idieresis" format="1">
  <advance width="313"/>
  <unicode hex="00CF"/>
  <outline>
    <contour>
      <point x="238" y="680" type="line"/>
      <point x="74" y="680" type="line"/>
      <point x="74" y="0" type="line"/>
      <point x="238" y="0" type="line"/>
    </contour>
    <contour>
      <point x="332" y="829" type="curve" smooth="yes"/>
      <point x="332" y="872"/>
      <point x="299" y="906"/>
      <point x="254" y="906" type="curve" smooth="yes"/>
      <point x="213" y="906"/>
      <point x="178" y="872"/>
      <point x="178" y="829" type="curve" smooth="yes"/>
      <point x="178" y="786"/>
      <point x="213" y="753"/>
      <point x="254" y="753" type="curve" smooth="yes"/>
      <point x="299" y="753"/>
      <point x="332" y="786"/>
    </contour>
    <contour>
      <point x="127" y="829" type="curve" smooth="yes"/>
      <point x="127" y="872"/>
      <point x="94" y="906"/>
      <point x="51" y="906" type="curve" smooth="yes"/>
      <point x="9" y="906"/>
      <point x="-26" y="872"/>
      <point x="-26" y="829" type="curve" smooth="yes"/>
      <point x="-26" y="786"/>
      <point x="9" y="753"/>
      <point x="51" y="753" type="curve" smooth="yes"/>
      <point x="94" y="753"/>
      <point x="127" y="786"/>
    </contour>
  </outline>
</glyph>
<glyph name="Eth" format="1">
  <advance width="721"/>
  <unicode hex="00D0"/>
  <outline>
    <contour>
      <point x="360" y="0" type="line" smooth="yes"/>
      <point x="555" y="0"/>
      <point x="681" y="132"/>
      <point x="681" y="344" type="curve" smooth="yes"/>
      <point x="681" y="541"/>
      <point x="574" y="680"/>
      <point x="360" y="680" type="curve" smooth="yes"/>
      <point x="82" y="680" type="line"/>
      <point x="82" y="405" type="line"/>
      <point x="6" y="405" type="line"/>
      <point x="11" y="362"/>
      <point x="15" y="320"/>
      <point x="21" y="277" type="curve"/>
      <point x="82" y="277" type="line"/>
      <point x="82" y="0" type="line"/>
    </contour>
    <contour>
      <point x="355" y="277" type="line"/>
      <point x="340" y="405" type="line"/>
      <point x="246" y="405" type="line"/>
      <point x="246" y="548" type="line"/>
      <point x="358" y="548" type="line" smooth="yes"/>
      <point x="460" y="548"/>
      <point x="512" y="466"/>
      <point x="512" y="344" type="curve" smooth="yes"/>
      <point x="512" y="196"/>
      <point x="445" y="131"/>
      <point x="352" y="131" type="curve" smooth="yes"/>
      <point x="246" y="131" type="line"/>
      <point x="246" y="277" type="line"/>
    </contour>
  </outline>
</glyph>
<glyph name="Ntilde" format="1">
  <advance width="749"/>
  <unicode hex="00D1"/>
  <outline>
    <contour>
      <point x="674" y="680" type="line"/>
      <point x="510" y="680" type="line"/>
      <point x="510" y="277" type="line"/>
      <point x="230" y="680" type="line"/>
      <point x="74" y="680" type="line"/>
      <point x="74" y="0" type="line"/>
      <point x="238" y="0" type="line"/>
      <point x="238" y="396" type="line"/>
      <point x="331" y="266"/>
      <point x="424" y="130"/>
      <point x="518" y="0" type="curve"/>
      <point x="674" y="0" type="line"/>
    </contour>
    <contour>
      <point x="306" y="750" type="line"/>
      <point x="306" y="762"/>
      <point x="317" y="779"/>
      <point x="330" y="779" type="curve" smooth="yes"/>
      <point x="361" y="779"/>
      <point x="388" y="745"/>
      <point x="432" y="745" type="curve" smooth="yes"/>
      <point x="491" y="745"/>
      <point x="549" y="780"/>
      <point x="549" y="891" type="curve"/>
      <point x="441" y="891" type="line"/>
      <point x="441" y="878"/>
      <point x="430" y="862"/>
      <point x="418" y="862" type="curve" smooth="yes"/>
      <point x="386" y="862"/>
      <point x="357" y="896"/>
      <point x="314" y="896" type="curve" smooth="yes"/>
      <point x="254" y="896"/>
      <point x="193" y="860"/>
      <point x="193" y="750" type="curve"/>
    </contour>
  </outline>
</glyph>
<glyph name="Ocircumflex" format="1">
  <advance width="742"/>
  <unicode hex="00D4"/>
  <outline>
    <contour>
      <point x="370" y="123" type="curve" smooth="yes"/>
      <point x="260" y="123"/>
      <point x="215" y="213"/>
      <point x="215" y="338" type="curve" smooth="yes"/>
      <point x="215" y="471"/>
      <point x="276" y="557"/>
      <point x="373" y="557" type="curve" smooth="yes"/>
      <point x="481" y="557"/>
      <point x="527" y="468"/>
      <point x="527" y="344" type="curve" smooth="yes"/>
      <point x="527" y="195"/>
      <point x="469" y="123"/>
    </contour>
    <contour>
      <point x="371" y="695" type="curve"/>
      <point x="168" y="693"/>
      <point x="46" y="548"/>
      <point x="46" y="337" type="curve" smooth="yes"/>
      <point x="46" y="141"/>
      <point x="154" y="-14"/>
      <point x="371" y="-14" type="curve" smooth="yes"/>
      <point x="577" y="-14"/>
      <point x="697" y="132"/>
      <point x="697" y="344" type="curve" smooth="yes"/>
      <point x="697" y="540"/>
      <point x="590" y="695"/>
    </contour>
    <contour>
      <point x="314" y="739" type="line"/>
      <point x="371" y="802" type="line"/>
      <point x="428" y="739" type="line"/>
      <point x="583" y="739" type="line"/>
      <point x="416" y="926" type="line"/>
      <point x="321" y="926" type="line"/>
      <point x="155" y="739" type="line"/>
    </contour>
  </outline>
</glyph>
<glyph name="Otilde" format="1">
  <advance width="742"/>
  <unicode hex="00D5"/>
  <outline>
    <contour>
      <point x="370" y="123" type="curve" smooth="yes"/>
      <point x="260" y="123"/>
      <point x="215" y="213"/>
      <point x="215" y="338" type="curve" smooth="yes"/>
      <point x="215" y="471"/>
      <point x="276" y="557"/>
      <point x="373" y="557" type="curve" smooth="yes"/>
      <point x="481" y="557"/>
      <point x="527" y="468"/>
      <point x="527" y="344" type="curve" smooth="yes"/>
      <point x="527" y="195"/>
      <point x="469" y="123"/>
    </contour>
    <contour>
      <point x="371" y="695" type="curve"/>
      <point x="168" y="693"/>
      <point x="46" y="548"/>
      <point x="46" y="337" type="curve" smooth="yes"/>
      <point x="46" y="141"/>
      <point x="154" y="-14"/>
      <point x="371" y="-14" type="curve" smooth="yes"/>
      <point x="577" y="-14"/>
      <point x="697" y="132"/>
      <point x="697" y="344" type="curve" smooth="yes"/>
      <point x="697" y="540"/>
      <point x="590" y="695"/>
    </contour>
    <contour>
      <point x="304" y="750" type="line"/>
      <point x="304" y="762"/>
      <point x="316" y="780"/>
      <point x="328" y="780" type="curve" smooth="yes"/>
      <point x="359" y="780"/>
      <point x="386" y="745"/>
      <point x="430" y="745" type="curve" smooth="yes"/>
      <point x="489" y="745"/>
      <point x="547" y="781"/>
      <point x="547" y="892" type="curve"/>
      <point x="439" y="892" type="line"/>
      <point x="439" y="878"/>
      <point x="428" y="862"/>
      <point x="416" y="862" type="curve" smooth="yes"/>
      <point x="384" y="862"/>
      <point x="355" y="896"/>
      <point x="312" y="896" type="curve" smooth="yes"/>
      <point x="252" y="896"/>
      <point x="191" y="860"/>
      <point x="191" y="750" type="curve"/>
    </contour>
  </outline>
</glyph>
<glyph name="Odieresis" format="1">
  <advance width="742"/>
  <unicode hex="00D6"/>
  <outline>
    <contour>
      <point x="370" y="123" type="curve" smooth="yes"/>
      <point x="260" y="123"/>
      <point x="215" y="213"/>
      <point x="215" y="338" type="curve" smooth="yes"/>
      <point x="215" y="471"/>
      <point x="276" y="557"/>
      <point x="373" y="557" type="curve" smooth="yes"/>
      <point x="481" y="557"/>
      <point x="527" y="468"/>
      <point x="527" y="344" type="curve" smooth="yes"/>
      <point x="527" y="195"/>
      <point x="469" y="123"/>
    </contour>
    <contour>
      <point x="371" y="695" type="curve"/>
      <point x="168" y="693"/>
      <point x="46" y="548"/>
      <point x="46" y="337" type="curve" smooth="yes"/>
      <point x="46" y="141"/>
      <point x="154" y="-14"/>
      <point x="371" y="-14" type="curve" smooth="yes"/>
      <point x="577" y="-14"/>
      <point x="697" y="132"/>
      <point x="697" y="344" type="curve" smooth="yes"/>
      <point x="697" y="540"/>
      <point x="590" y="695"/>
    </contour>
    <contour>
      <point x="550" y="830" type="curve" smooth="yes"/>
      <point x="550" y="872"/>
      <point x="517" y="906"/>
      <point x="472" y="906" type="curve" smooth="yes"/>
      <point x="431" y="906"/>
      <point x="395" y="872"/>
      <point x="395" y="830" type="curve" smooth="yes"/>
      <point x="395" y="786"/>
      <point x="431" y="753"/>
      <point x="472" y="753" type="curve" smooth="yes"/>
      <point x="517" y="753"/>
      <point x="550" y="786"/>
    </contour>
    <contour>
      <point x="345" y="830" type="curve" smooth="yes"/>
      <point x="345" y="872"/>
      <point x="312" y="906"/>
      <point x="268" y="906" type="curve" smooth="yes"/>
      <point x="227" y="906"/>
      <point x="191" y="872"/>
      <point x="191" y="830" type="curve" smooth="yes"/>
      <point x="191" y="786"/>
      <point x="227" y="753"/>
      <point x="268" y="753" type="curve" smooth="yes"/>
      <point x="312" y="753"/>
      <point x="345" y="786"/>
    </contour>
  </outline>
</glyph>
<glyph name="multiply" format="1">
  <advance width="575"/>
  <unicode hex="00D7"/>
  <outline>
    <contour>
      <point x="20" y="48" type="curve"/>
      <point x="70" y="39"/>
      <point x="119" y="32"/>
      <point x="169" y="24" type="curve"/>
      <point x="246" y="120"/>
      <point x="259" y="138"/>
      <point x="274" y="155" type="curve"/>
      <point x="373" y="29" type="line"/>
      <point x="537" y="29" type="line"/>
      <point x="485" y="91"/>
      <point x="412" y="183"/>
      <point x="362" y="250" type="curve"/>
      <point x="554" y="484" type="line"/>
      <point x="386" y="484" type="line"/>
      <point x="281" y="354" type="line"/>
      <point x="177" y="486" type="line"/>
      <point x="127" y="479"/>
      <point x="77" y="472"/>
      <point x="28" y="464" type="curve"/>
      <point x="192" y="258" type="line"/>
      <point x="134" y="188"/>
      <point x="78" y="118"/>
    </contour>
  </outline>
</glyph>
<glyph name="Oslash" format="1">
  <advance width="742"/>
  <unicode hex="00D8"/>
  <outline>
    <contour>
      <point x="371" y="695" type="curve"/>
      <point x="168" y="693"/>
      <point x="46" y="548"/>
      <point x="46" y="337" type="curve" smooth="yes"/>
      <point x="46" y="141"/>
      <point x="154" y="-14"/>
      <point x="371" y="-14" type="curve" smooth="yes"/>
      <point x="577" y="-14"/>
      <point x="697" y="132"/>
      <point x="697" y="344" type="curve" smooth="yes"/>
      <point x="697" y="540"/>
      <point x="590" y="695"/>
    </contour>
    <contour>
      <point x="215" y="338" type="curve" smooth="yes"/>
      <point x="215" y="471"/>
      <point x="276" y="557"/>
      <point x="373" y="557" type="curve" smooth="yes"/>
      <point x="381" y="557"/>
      <point x="388" y="556"/>
      <point x="396" y="555" type="curve"/>
      <point x="246" y="194" type="line"/>
      <point x="225" y="230"/>
      <point x="215" y="281"/>
    </contour>
    <contour>
      <point x="370" y="123" type="curve" smooth="yes"/>
      <point x="366" y="123"/>
      <point x="357" y="124"/>
      <point x="354" y="124" type="curve"/>
      <point x="502" y="475" type="line"/>
      <point x="519" y="440"/>
      <point x="527" y="395"/>
      <point x="527" y="344" type="curve" smooth="yes"/>
      <point x="527" y="195"/>
      <point x="469" y="123"/>
    </contour>
  </outline>
</glyph>
<glyph name="Ugrave" format="1">
  <advance width="724"/>
  <unicode hex="00D9"/>
  <outline>
    <contour>
      <point x="230" y="680" type="line"/>
      <point x="66" y="680" type="line"/>
      <point x="66" y="255" type="line" smooth="yes"/>
      <point x="66" y="86"/>
      <point x="183" y="-12"/>
      <point x="361" y="-12" type="curve" smooth="yes"/>
      <point x="540" y="-12"/>
      <point x="657" y="87"/>
      <point x="657" y="255" type="curve" smooth="yes"/>
      <point x="657" y="680" type="line"/>
      <point x="493" y="680" type="line"/>
      <point x="493" y="264" type="line" smooth="yes"/>
      <point x="493" y="170"/>
      <point x="439" y="123"/>
      <point x="361" y="123" type="curve" smooth="yes"/>
      <point x="284" y="123"/>
      <point x="230" y="169"/>
      <point x="230" y="264" type="curve" smooth="yes"/>
    </contour>
    <contour>
      <point x="221" y="922" type="line"/>
      <point x="326" y="738" type="line"/>
      <point x="450" y="738" type="line"/>
      <point x="382" y="922" type="line"/>
    </contour>
  </outline>
</glyph>
<glyph name="Uacute" format="1">
  <advance width="724"/>
  <unicode hex="00DA"/>
  <outline>
    <contour>
      <point x="230" y="680" type="line"/>
      <point x="66" y="680" type="line"/>
      <point x="66" y="255" type="line" smooth="yes"/>
      <point x="66" y="86"/>
      <point x="183" y="-12"/>
      <point x="361" y="-12" type="curve" smooth="yes"/>
      <point x="540" y="-12"/>
      <point x="657" y="87"/>
      <point x="657" y="255" type="curve" smooth="yes"/>
      <point x="657" y="680" type="line"/>
      <point x="493" y="680" type="line"/>
      <point x="493" y="264" type="line" smooth="yes"/>
      <point x="493" y="170"/>
      <point x="439" y="123"/>
      <point x="361" y="123" type="curve" smooth="yes"/>
      <point x="284" y="123"/>
      <point x="230" y="169"/>
      <point x="230" y="264" type="curve" smooth="yes"/>
    </contour>
    <contour>
      <point x="336" y="922" type="line"/>
      <point x="314" y="860"/>
      <point x="291" y="799"/>
      <point x="268" y="738" type="curve"/>
      <point x="392" y="738" type="line"/>
      <point x="497" y="922" type="line"/>
    </contour>
  </outline>
</glyph>
<glyph name="Ucircumflex" format="1">
  <advance width="724"/>
  <unicode hex="00DB"/>
  <outline>
    <contour>
      <point x="230" y="680" type="line"/>
      <point x="66" y="680" type="line"/>
      <point x="66" y="255" type="line" smooth="yes"/>
      <point x="66" y="86"/>
      <point x="183" y="-12"/>
      <point x="361" y="-12" type="curve" smooth="yes"/>
      <point x="540" y="-12"/>
      <point x="657" y="87"/>
      <point x="657" y="255" type="curve" smooth="yes"/>
      <point x="657" y="680" type="line"/>
      <point x="493" y="680" type="line"/>
      <point x="493" y="264" type="line" smooth="yes"/>
      <point x="493" y="170"/>
      <point x="439" y="123"/>
      <point x="361" y="123" type="curve" smooth="yes"/>
      <point x="284" y="123"/>
      <point x="230" y="169"/>
      <point x="230" y="264" type="curve" smooth="yes"/>
    </contour>
    <contour>
      <point x="302" y="739" type="line"/>
      <point x="360" y="802" type="line"/>
      <point x="379" y="780"/>
      <point x="398" y="760"/>
      <point x="417" y="739" type="curve"/>
      <point x="571" y="739" type="line"/>
      <point x="516" y="801"/>
      <point x="460" y="863"/>
      <point x="405" y="926" type="curve"/>
      <point x="310" y="926" type="line"/>
      <point x="143" y="739" type="line"/>
    </contour>
  </outline>
</glyph>
<glyph name="Udieresis" format="1">
  <advance width="724"/>
  <unicode hex="00DC"/>
  <outline>
    <contour>
      <point x="230" y="680" type="line"/>
      <point x="66" y="680" type="line"/>
      <point x="66" y="255" type="line" smooth="yes"/>
      <point x="66" y="86"/>
      <point x="183" y="-12"/>
      <point x="361" y="-12" type="curve" smooth="yes"/>
      <point x="540" y="-12"/>
      <point x="657" y="87"/>
      <point x="657" y="255" type="curve" smooth="yes"/>
      <point x="657" y="680" type="line"/>
      <point x="493" y="680" type="line"/>
      <point x="493" y="264" type="line" smooth="yes"/>
      <point x="493" y="170"/>
      <point x="439" y="123"/>
      <point x="361" y="123" type="curve" smooth="yes"/>
      <point x="284" y="123"/>
      <point x="230" y="169"/>
      <point x="230" y="264" type="curve" smooth="yes"/>
    </contour>
    <contour>
      <point x="540" y="829" type="curve" smooth="yes"/>
      <point x="540" y="872"/>
      <point x="507" y="906"/>
      <point x="463" y="906" type="curve" smooth="yes"/>
      <point x="422" y="906"/>
      <point x="386" y="872"/>
      <point x="386" y="829" type="curve" smooth="yes"/>
      <point x="386" y="786"/>
      <point x="422" y="753"/>
      <point x="463" y="753" type="curve" smooth="yes"/>
      <point x="507" y="753"/>
      <point x="540" y="786"/>
    </contour>
    <contour>
      <point x="336" y="829" type="curve" smooth="yes"/>
      <point x="336" y="872"/>
      <point x="303" y="906"/>
      <point x="259" y="906" type="curve" smooth="yes"/>
      <point x="217" y="906"/>
      <point x="182" y="872"/>
      <point x="182" y="829" type="curve" smooth="yes"/>
      <point x="182" y="786"/>
      <point x="217" y="753"/>
      <point x="259" y="753" type="curve" smooth="yes"/>
      <point x="303" y="753"/>
      <point x="336" y="786"/>
    </contour>
  </outline>
</glyph>
<glyph name="Yacute" format="1">
  <advance width="647"/>
  <unicode hex="00DD"/>
  <outline>
    <contour>
      <point x="239" y="0" type="line"/>
      <point x="403" y="0" type="line"/>
      <point x="403" y="264" type="line"/>
      <point x="639" y="680" type="line"/>
      <point x="469" y="680" type="line"/>
      <point x="320" y="422" type="line"/>
      <point x="179" y="680" type="line"/>
      <point x="9" y="662" type="line"/>
      <point x="239" y="267" type="line"/>
    </contour>
    <contour>
      <point x="289" y="922" type="line"/>
      <point x="221" y="738" type="line"/>
      <point x="345" y="738" type="line"/>
      <point x="450" y="922" type="line"/>
    </contour>
  </outline>
</glyph>
<glyph name="Thorn" format="1">
  <advance width="646"/>
  <unicode hex="00DE"/>
  <outline>
    <contour>
      <point x="238" y="680" type="line"/>
      <point x="74" y="680" type="line"/>
      <point x="74" y="0" type="line"/>
      <point x="238" y="0" type="line"/>
      <point x="238" y="107" type="line"/>
      <point x="327" y="107" type="line" smooth="yes"/>
      <point x="472" y="107"/>
      <point x="612" y="180"/>
      <point x="612" y="341" type="curve" smooth="yes"/>
      <point x="612" y="503"/>
      <point x="486" y="576"/>
      <point x="335" y="576" type="curve" smooth="yes"/>
      <point x="238" y="576" type="line"/>
    </contour>
    <contour>
      <point x="330" y="446" type="line" smooth="yes"/>
      <point x="400" y="446"/>
      <point x="441" y="407"/>
      <point x="441" y="338" type="curve" smooth="yes"/>
      <point x="441" y="276"/>
      <point x="396" y="238"/>
      <point x="332" y="238" type="curve" smooth="yes"/>
      <point x="238" y="238" type="line"/>
      <point x="238" y="446" type="line"/>
    </contour>
  </outline>
</glyph>
<glyph name="germandbls" format="1">
  <advance width="651"/>
  <unicode hex="00DF"/>
  <outline>
    <contour>
      <point x="317" y="702" type="curve" smooth="yes"/>
      <point x="159" y="702"/>
      <point x="63" y="609"/>
      <point x="63" y="472" type="curve" smooth="yes"/>
      <point x="63" y="0" type="line"/>
      <point x="227" y="0" type="line"/>
      <point x="227" y="462" type="line" smooth="yes"/>
      <point x="227" y="527"/>
      <point x="275" y="563"/>
      <point x="323" y="563" type="curve" smooth="yes"/>
      <point x="376" y="563"/>
      <point x="408" y="531"/>
      <point x="408" y="490" type="curve" smooth="yes"/>
      <point x="408" y="451"/>
      <point x="373" y="412"/>
      <point x="317" y="412" type="curve" smooth="yes"/>
      <point x="288" y="412" type="line"/>
      <point x="288" y="290" type="line"/>
      <point x="372" y="290" type="line" smooth="yes"/>
      <point x="414" y="290"/>
      <point x="451" y="260"/>
      <point x="451" y="209" type="curve" smooth="yes"/>
      <point x="451" y="163"/>
      <point x="411" y="135"/>
      <point x="364" y="135" type="curve" smooth="yes"/>
      <point x="282" y="135" type="line"/>
      <point x="282" y="0" type="line"/>
      <point x="378" y="0" type="line" smooth="yes"/>
      <point x="523" y="0"/>
      <point x="620" y="76"/>
      <point x="620" y="198" type="curve" smooth="yes"/>
      <point x="620" y="275"/>
      <point x="568" y="346"/>
      <point x="509" y="367" type="curve"/>
      <point x="551" y="397"/>
      <point x="574" y="457"/>
      <point x="574" y="505" type="curve" smooth="yes"/>
      <point x="574" y="635"/>
      <point x="457" y="702"/>
    </contour>
  </outline>
</glyph>
<glyph name="atilde" format="1">
  <advance width="513"/>
  <unicode hex="00E3"/>
  <outline>
    <contour>
      <point x="256" y="501" type="curve" smooth="yes"/>
      <point x="188" y="501"/>
      <point x="102" y="479"/>
      <point x="55" y="455" type="curve"/>
      <point x="99" y="332" type="line"/>
      <point x="135" y="348"/>
      <point x="189" y="362"/>
      <point x="227" y="362" type="curve" smooth="yes"/>
      <point x="265" y="362"/>
      <point x="291" y="341"/>
      <point x="295" y="305" type="curve"/>
      <point x="224" y="305" type="line" smooth="yes"/>
      <point x="112" y="305"/>
      <point x="36" y="256"/>
      <point x="36" y="152" type="curve" smooth="yes"/>
      <point x="36" y="54"/>
      <point x="94" y="-11"/>
      <point x="216" y="-11" type="curve" smooth="yes"/>
      <point x="268" y="-11"/>
      <point x="319" y="10"/>
      <point x="351" y="38" type="curve"/>
      <point x="384" y="0" type="line"/>
      <point x="460" y="0" type="line"/>
      <point x="460" y="306" type="line" smooth="yes"/>
      <point x="460" y="423"/>
      <point x="382" y="501"/>
    </contour>
    <contour>
      <point x="189" y="600" type="line"/>
      <point x="189" y="612"/>
      <point x="201" y="630"/>
      <point x="213" y="630" type="curve" smooth="yes"/>
      <point x="245" y="630"/>
      <point x="271" y="595"/>
      <point x="315" y="595" type="curve" smooth="yes"/>
      <point x="375" y="595"/>
      <point x="433" y="631"/>
      <point x="433" y="742" type="curve"/>
      <point x="325" y="742" type="line"/>
      <point x="325" y="728"/>
      <point x="313" y="712"/>
      <point x="301" y="712" type="curve" smooth="yes"/>
      <point x="269" y="712"/>
      <point x="241" y="746"/>
      <point x="197" y="746" type="curve" smooth="yes"/>
      <point x="137" y="746"/>
      <point x="76" y="710"/>
      <point x="76" y="600" type="curve"/>
    </contour>
    <contour>
      <point x="217" y="120" type="curve" smooth="yes"/>
      <point x="193" y="120"/>
      <point x="174" y="137"/>
      <point x="174" y="157" type="curve" smooth="yes"/>
      <point x="174" y="183"/>
      <point x="194" y="203"/>
      <point x="225" y="203" type="curve" smooth="yes"/>
      <point x="296" y="203" type="line"/>
      <point x="296" y="154" type="line"/>
      <point x="270" y="132"/>
      <point x="243" y="120"/>
    </contour>
  </outline>
</glyph>
<glyph name="adieresis" format="1">
  <advance width="513"/>
  <unicode hex="00E4"/>
  <outline>
    <contour>
      <point x="256" y="501" type="curve" smooth="yes"/>
      <point x="188" y="501"/>
      <point x="102" y="479"/>
      <point x="55" y="455" type="curve"/>
      <point x="99" y="332" type="line"/>
      <point x="135" y="348"/>
      <point x="189" y="362"/>
      <point x="227" y="362" type="curve" smooth="yes"/>
      <point x="265" y="362"/>
      <point x="291" y="341"/>
      <point x="295" y="305" type="curve"/>
      <point x="224" y="305" type="line" smooth="yes"/>
      <point x="112" y="305"/>
      <point x="36" y="256"/>
      <point x="36" y="152" type="curve" smooth="yes"/>
      <point x="36" y="54"/>
      <point x="94" y="-11"/>
      <point x="216" y="-11" type="curve" smooth="yes"/>
      <point x="268" y="-11"/>
      <point x="319" y="10"/>
      <point x="351" y="38" type="curve"/>
      <point x="384" y="0" type="line"/>
      <point x="460" y="0" type="line"/>
      <point x="460" y="306" type="line" smooth="yes"/>
      <point x="460" y="423"/>
      <point x="382" y="501"/>
    </contour>
    <contour>
      <point x="439" y="680" type="curve" smooth="yes"/>
      <point x="439" y="722"/>
      <point x="406" y="756"/>
      <point x="362" y="756" type="curve" smooth="yes"/>
      <point x="321" y="756"/>
      <point x="285" y="722"/>
      <point x="285" y="680" type="curve" smooth="yes"/>
      <point x="285" y="636"/>
      <point x="321" y="603"/>
      <point x="362" y="603" type="curve" smooth="yes"/>
      <point x="406" y="603"/>
      <point x="439" y="636"/>
    </contour>
    <contour>
      <point x="235" y="680" type="curve" smooth="yes"/>
      <point x="235" y="722"/>
      <point x="202" y="756"/>
      <point x="158" y="756" type="curve" smooth="yes"/>
      <point x="116" y="756"/>
      <point x="81" y="722"/>
      <point x="81" y="680" type="curve" smooth="yes"/>
      <point x="81" y="636"/>
      <point x="116" y="603"/>
      <point x="158" y="603" type="curve" smooth="yes"/>
      <point x="202" y="603"/>
      <point x="235" y="636"/>
    </contour>
    <contour>
      <point x="217" y="120" type="curve" smooth="yes"/>
      <point x="193" y="120"/>
      <point x="174" y="137"/>
      <point x="174" y="157" type="curve" smooth="yes"/>
      <point x="174" y="183"/>
      <point x="194" y="203"/>
      <point x="225" y="203" type="curve" smooth="yes"/>
      <point x="296" y="203" type="line"/>
      <point x="296" y="154" type="line"/>
      <point x="270" y="132"/>
      <point x="243" y="120"/>
    </contour>
  </outline>
</glyph>
<glyph name="aring" format="1">
  <advance width="513"/>
  <unicode hex="00E5"/>
  <outline>
    <contour>
      <point x="256" y="501" type="curve" smooth="yes"/>
      <point x="188" y="501"/>
      <point x="102" y="479"/>
      <point x="55" y="455" type="curve"/>
      <point x="99" y="332" type="line"/>
      <point x="135" y="348"/>
      <point x="189" y="362"/>
      <point x="227" y="362" type="curve" smooth="yes"/>
      <point x="265" y="362"/>
      <point x="291" y="341"/>
      <point x="295" y="305" type="curve"/>
      <point x="224" y="305" type="line" smooth="yes"/>
      <point x="112" y="305"/>
      <point x="36" y="256"/>
      <point x="36" y="152" type="curve" smooth="yes"/>
      <point x="36" y="54"/>
      <point x="94" y="-11"/>
      <point x="216" y="-11" type="curve" smooth="yes"/>
      <point x="268" y="-11"/>
      <point x="319" y="10"/>
      <point x="351" y="38" type="curve"/>
      <point x="384" y="0" type="line"/>
      <point x="460" y="0" type="line"/>
      <point x="460" y="306" type="line" smooth="yes"/>
      <point x="460" y="423"/>
      <point x="382" y="501"/>
    </contour>
    <contour>
      <point x="375" y="703" type="curve" smooth="yes"/>
      <point x="375" y="766"/>
      <point x="320" y="815"/>
      <point x="257" y="815" type="curve" smooth="yes"/>
      <point x="194" y="815"/>
      <point x="140" y="766"/>
      <point x="140" y="703" type="curve" smooth="yes"/>
      <point x="140" y="639"/>
      <point x="194" y="594"/>
      <point x="257" y="594" type="curve" smooth="yes"/>
      <point x="320" y="594"/>
      <point x="375" y="639"/>
    </contour>
    <contour>
      <point x="217" y="120" type="curve" smooth="yes"/>
      <point x="193" y="120"/>
      <point x="174" y="137"/>
      <point x="174" y="157" type="curve" smooth="yes"/>
      <point x="174" y="183"/>
      <point x="194" y="203"/>
      <point x="225" y="203" type="curve" smooth="yes"/>
      <point x="296" y="203" type="line"/>
      <point x="296" y="154" type="line"/>
      <point x="270" y="132"/>
      <point x="243" y="120"/>
    </contour>
    <contour>
      <point x="290" y="703" type="curve" smooth="yes"/>
      <point x="290" y="686"/>
      <point x="277" y="670"/>
      <point x="259" y="670" type="curve" smooth="yes"/>
      <point x="241" y="670"/>
      <point x="226" y="686"/>
      <point x="226" y="703" type="curve" smooth="yes"/>
      <point x="226" y="721"/>
      <point x="241" y="735"/>
      <point x="259" y="735" type="curve" smooth="yes"/>
      <point x="277" y="735"/>
      <point x="290" y="721"/>
    </contour>
  </outline>
</glyph>
<glyph name="ae" format="1">
  <advance width="817"/>
  <unicode hex="00E6"/>
  <outline>
    <contour>
      <point x="36" y="150" type="curve" smooth="yes"/>
      <point x="36" y="53"/>
      <point x="94" y="-11"/>
      <point x="215" y="-11" type="curve" smooth="yes"/>
      <point x="285" y="-11"/>
      <point x="340" y="22"/>
      <point x="371" y="56" type="curve"/>
      <point x="419" y="11"/>
      <point x="489" y="-11"/>
      <point x="574" y="-11" type="curve" smooth="yes"/>
      <point x="614" y="-11"/>
      <point x="706" y="0"/>
      <point x="759" y="38" type="curve"/>
      <point x="743" y="75"/>
      <point x="727" y="113"/>
      <point x="712" y="151" type="curve"/>
      <point x="671" y="131"/>
      <point x="631" y="122"/>
      <point x="587" y="122" type="curve" smooth="yes"/>
      <point x="530" y="122"/>
      <point x="492" y="145"/>
      <point x="478" y="192" type="curve"/>
      <point x="784" y="192" type="line"/>
      <point x="784" y="247" type="line" smooth="yes"/>
      <point x="784" y="385"/>
      <point x="710" y="500"/>
      <point x="555" y="500" type="curve" smooth="yes"/>
      <point x="494" y="500"/>
      <point x="440" y="483"/>
      <point x="398" y="452" type="curve"/>
      <point x="364" y="481"/>
      <point x="314" y="500"/>
      <point x="255" y="500" type="curve" smooth="yes"/>
      <point x="188" y="500"/>
      <point x="101" y="479"/>
      <point x="55" y="455" type="curve"/>
      <point x="98" y="332" type="line"/>
      <point x="135" y="348"/>
      <point x="189" y="362"/>
      <point x="226" y="362" type="curve" smooth="yes"/>
      <point x="276" y="362"/>
      <point x="288" y="330"/>
      <point x="295" y="302" type="curve"/>
      <point x="224" y="302" type="line" smooth="yes"/>
      <point x="112" y="302"/>
      <point x="36" y="254"/>
    </contour>
    <contour>
      <point x="217" y="120" type="curve" smooth="yes"/>
      <point x="193" y="120"/>
      <point x="174" y="135"/>
      <point x="174" y="155" type="curve" smooth="yes"/>
      <point x="174" y="181"/>
      <point x="193" y="200"/>
      <point x="225" y="200" type="curve" smooth="yes"/>
      <point x="302" y="200" type="line"/>
      <point x="304" y="187"/>
      <point x="306" y="176"/>
      <point x="309" y="165" type="curve"/>
      <point x="285" y="140"/>
      <point x="256" y="120"/>
    </contour>
    <contour>
      <point x="551" y="366" type="curve" smooth="yes"/>
      <point x="599" y="366"/>
      <point x="621" y="331"/>
      <point x="627" y="294" type="curve"/>
      <point x="474" y="294" type="line"/>
      <point x="484" y="340"/>
      <point x="512" y="366"/>
    </contour>
  </outline>
</glyph>
<glyph name="ccedilla" format="1">
  <advance width="487"/>
  <unicode hex="00E7"/>
  <outline>
    <contour>
      <point x="306" y="365" type="curve" smooth="yes"/>
      <point x="345" y="365"/>
      <point x="371" y="357"/>
      <point x="412" y="337" type="curve"/>
      <point x="459" y="451" type="line"/>
      <point x="405" y="492"/>
      <point x="334" y="501"/>
      <point x="294" y="501" type="curve" smooth="yes"/>
      <point x="136" y="501"/>
      <point x="34" y="403"/>
      <point x="34" y="242" type="curve" smooth="yes"/>
      <point x="34" y="105"/>
      <point x="108" y="17"/>
      <point x="228" y="-5" type="curve"/>
      <point x="196" y="-88" type="line"/>
      <point x="250" y="-94"/>
      <point x="281" y="-109"/>
      <point x="281" y="-128" type="curve" smooth="yes"/>
      <point x="281" y="-141"/>
      <point x="266" y="-146"/>
      <point x="250" y="-146" type="curve" smooth="yes"/>
      <point x="231" y="-146"/>
      <point x="205" y="-136"/>
      <point x="190" y="-129" type="curve"/>
      <point x="155" y="-211" type="line"/>
      <point x="184" y="-234"/>
      <point x="229" y="-248"/>
      <point x="264" y="-248" type="curve" smooth="yes"/>
      <point x="334" y="-248"/>
      <point x="399" y="-209"/>
      <point x="399" y="-134" type="curve" smooth="yes"/>
      <point x="399" y="-99"/>
      <point x="378" y="-52"/>
      <point x="331" y="-36" type="curve"/>
      <point x="342" y="-7" type="line"/>
      <point x="379" y="-2"/>
      <point x="423" y="10"/>
      <point x="459" y="38" type="curve"/>
      <point x="412" y="152" type="line"/>
      <point x="371" y="132"/>
      <point x="343" y="124"/>
      <point x="306" y="124" type="curve" smooth="yes"/>
      <point x="249" y="124"/>
      <point x="204" y="168"/>
      <point x="204" y="242" type="curve" smooth="yes"/>
      <point x="204" y="316"/>
      <point x="249" y="365"/>
    </contour>
  </outline>
</glyph>
<glyph name="igrave" format="1">
  <advance width="286"/>
  <unicode hex="00EC"/>
  <outline>
    <contour>
      <point x="225" y="485" type="line"/>
      <point x="60" y="485" type="line"/>
      <point x="60" y="0" type="line"/>
      <point x="225" y="0" type="line"/>
    </contour>
    <contour>
      <point x="-1" y="775" type="line"/>
      <point x="34" y="713"/>
      <point x="69" y="650"/>
      <point x="105" y="588" type="curve"/>
      <point x="231" y="588" type="line"/>
      <point x="163" y="775" type="line"/>
    </contour>
  </outline>
</glyph>
<glyph name="iacute" format="1">
  <advance width="286"/>
  <unicode hex="00ED"/>
  <outline>
    <contour>
      <point x="225" y="485" type="line"/>
      <point x="60" y="485" type="line"/>
      <point x="60" y="0" type="line"/>
      <point x="225" y="0" type="line"/>
    </contour>
    <contour>
      <point x="123" y="775" type="line"/>
      <point x="54" y="588" type="line"/>
      <point x="180" y="588" type="line"/>
      <point x="288" y="775" type="line"/>
    </contour>
  </outline>
</glyph>
<glyph name="icircumflex" format="1">
  <advance width="286"/>
  <unicode hex="00EE"/>
  <outline>
    <contour>
      <point x="225" y="485" type="line"/>
      <point x="60" y="485" type="line"/>
      <point x="60" y="0" type="line"/>
      <point x="225" y="0" type="line"/>
    </contour>
    <contour>
      <point x="88" y="588" type="line"/>
      <point x="146" y="651" type="line"/>
      <point x="202" y="588" type="line"/>
      <point x="357" y="588" type="line"/>
      <point x="190" y="775" type="line"/>
      <point x="96" y="775" type="line"/>
      <point x="40" y="713"/>
      <point x="-14" y="650"/>
      <point x="-70" y="588" type="curve"/>
    </contour>
  </outline>
</glyph>
<glyph name="idieresis" format="1">
  <advance width="286"/>
  <unicode hex="00EF"/>
  <outline>
    <contour>
      <point x="225" y="485" type="line"/>
      <point x="60" y="485" type="line"/>
      <point x="60" y="0" type="line"/>
      <point x="225" y="0" type="line"/>
    </contour>
    <contour>
      <point x="322" y="679" type="curve" smooth="yes"/>
      <point x="322" y="722"/>
      <point x="289" y="756"/>
      <point x="245" y="756" type="curve" smooth="yes"/>
      <point x="203" y="756"/>
      <point x="168" y="722"/>
      <point x="168" y="679" type="curve" smooth="yes"/>
      <point x="168" y="636"/>
      <point x="203" y="603"/>
      <point x="245" y="603" type="curve" smooth="yes"/>
      <point x="289" y="603"/>
      <point x="322" y="636"/>
    </contour>
    <contour>
      <point x="118" y="679" type="curve" smooth="yes"/>
      <point x="118" y="722"/>
      <point x="84" y="756"/>
      <point x="40" y="756" type="curve" smooth="yes"/>
      <point x="0" y="756"/>
      <point x="-35" y="722"/>
      <point x="-35" y="679" type="curve" smooth="yes"/>
      <point x="-35" y="636"/>
      <point x="0" y="603"/>
      <point x="40" y="603" type="curve" smooth="yes"/>
      <point x="84" y="603"/>
      <point x="118" y="636"/>
    </contour>
  </outline>
</glyph>
<glyph name="eth" format="1">
  <advance width="597"/>
  <unicode hex="00F0"/>
  <outline>
    <contour>
      <point x="434" y="611" type="line"/>
      <point x="361" y="702" type="line"/>
      <point x="298" y="653" type="line"/>
      <point x="260" y="674"/>
      <point x="220" y="689"/>
      <point x="180" y="698" type="curve"/>
      <point x="103" y="585" type="line"/>
      <point x="124" y="580"/>
      <point x="149" y="571"/>
      <point x="174" y="558" type="curve"/>
      <point x="114" y="511" type="line"/>
      <point x="191" y="423" type="line"/>
      <point x="276" y="489" type="line"/>
      <point x="311" y="458"/>
      <point x="341" y="420"/>
      <point x="361" y="380" type="curve"/>
      <point x="328" y="398"/>
      <point x="292" y="412"/>
      <point x="264" y="412" type="curve" smooth="yes"/>
      <point x="129" y="412"/>
      <point x="30" y="323"/>
      <point x="30" y="210" type="curve" smooth="yes"/>
      <point x="30" y="94"/>
      <point x="124" y="-13"/>
      <point x="269" y="-13" type="curve" smooth="yes"/>
      <point x="430" y="-13"/>
      <point x="553" y="80"/>
      <point x="553" y="266" type="curve" smooth="yes"/>
      <point x="553" y="381"/>
      <point x="490" y="498"/>
      <point x="398" y="583" type="curve"/>
    </contour>
    <contour>
      <point x="274" y="120" type="curve" smooth="yes"/>
      <point x="223" y="120"/>
      <point x="194" y="164"/>
      <point x="194" y="206" type="curve" smooth="yes"/>
      <point x="194" y="254"/>
      <point x="224" y="296"/>
      <point x="282" y="296" type="curve" smooth="yes"/>
      <point x="326" y="296"/>
      <point x="365" y="266"/>
      <point x="386" y="235" type="curve"/>
      <point x="375" y="161"/>
      <point x="333" y="120"/>
    </contour>
  </outline>
</glyph>
<glyph name="ntilde" format="1">
  <advance width="609"/>
  <unicode hex="00F1"/>
  <outline>
    <contour>
      <point x="368" y="503" type="curve" smooth="yes"/>
      <point x="297" y="503"/>
      <point x="225" y="470"/>
      <point x="182" y="439" type="curve"/>
      <point x="144" y="484" type="line"/>
      <point x="61" y="484" type="line"/>
      <point x="61" y="0" type="line"/>
      <point x="225" y="0" type="line"/>
      <point x="225" y="332" type="line"/>
      <point x="255" y="350"/>
      <point x="296" y="367"/>
      <point x="324" y="367" type="curve" smooth="yes"/>
      <point x="365" y="367"/>
      <point x="392" y="342"/>
      <point x="392" y="297" type="curve" smooth="yes"/>
      <point x="392" y="0" type="line"/>
      <point x="556" y="0" type="line"/>
      <point x="556" y="301" type="line" smooth="yes"/>
      <point x="556" y="416"/>
      <point x="504" y="503"/>
    </contour>
    <contour>
      <point x="238" y="600" type="line"/>
      <point x="238" y="612"/>
      <point x="249" y="630"/>
      <point x="262" y="630" type="curve" smooth="yes"/>
      <point x="293" y="630"/>
      <point x="320" y="595"/>
      <point x="363" y="595" type="curve" smooth="yes"/>
      <point x="423" y="595"/>
      <point x="481" y="631"/>
      <point x="481" y="742" type="curve"/>
      <point x="373" y="742" type="line"/>
      <point x="373" y="728"/>
      <point x="361" y="712"/>
      <point x="349" y="712" type="curve" smooth="yes"/>
      <point x="317" y="712"/>
      <point x="289" y="746"/>
      <point x="245" y="746" type="curve" smooth="yes"/>
      <point x="186" y="746"/>
      <point x="124" y="710"/>
      <point x="124" y="600" type="curve"/>
    </contour>
  </outline>
</glyph>
<glyph name="otilde" format="1">
  <advance width="603"/>
  <unicode hex="00F5"/>
  <outline>
    <contour>
      <point x="301" y="501" type="curve" smooth="yes"/>
      <point x="147" y="501"/>
      <point x="34" y="406"/>
      <point x="34" y="245" type="curve" smooth="yes"/>
      <point x="34" y="76"/>
      <point x="140" y="-11"/>
      <point x="296" y="-11" type="curve" smooth="yes"/>
      <point x="453" y="-11"/>
      <point x="569" y="79"/>
      <point x="569" y="240" type="curve" smooth="yes"/>
      <point x="569" y="408"/>
      <point x="463" y="501"/>
    </contour>
    <contour>
      <point x="298" y="124" type="curve" smooth="yes"/>
      <point x="236" y="124"/>
      <point x="204" y="169"/>
      <point x="204" y="245" type="curve" smooth="yes"/>
      <point x="204" y="323"/>
      <point x="240" y="365"/>
      <point x="304" y="365" type="curve" smooth="yes"/>
      <point x="365" y="365"/>
      <point x="399" y="314"/>
      <point x="399" y="240" type="curve" smooth="yes"/>
      <point x="399" y="161"/>
      <point x="361" y="124"/>
    </contour>
    <contour>
      <point x="233" y="600" type="line"/>
      <point x="233" y="612"/>
      <point x="244" y="630"/>
      <point x="257" y="630" type="curve" smooth="yes"/>
      <point x="289" y="630"/>
      <point x="315" y="595"/>
      <point x="359" y="595" type="curve" smooth="yes"/>
      <point x="419" y="595"/>
      <point x="477" y="631"/>
      <point x="477" y="742" type="curve"/>
      <point x="369" y="742" type="line"/>
      <point x="369" y="728"/>
      <point x="357" y="712"/>
      <point x="345" y="712" type="curve" smooth="yes"/>
      <point x="313" y="712"/>
      <point x="285" y="746"/>
      <point x="241" y="746" type="curve" smooth="yes"/>
      <point x="182" y="746"/>
      <point x="120" y="710"/>
      <point x="120" y="600" type="curve"/>
    </contour>
  </outline>
</glyph>
<glyph name="odieresis" format="1">
  <advance width="603"/>
  <unicode hex="00F6"/>
  <outline>
    <contour>
      <point x="301" y="501" type="curve" smooth="yes"/>
      <point x="147" y="501"/>
      <point x="34" y="406"/>
      <point x="34" y="245" type="curve" smooth="yes"/>
      <point x="34" y="76"/>
      <point x="140" y="-11"/>
      <point x="296" y="-11" type="curve" smooth="yes"/>
      <point x="453" y="-11"/>
      <point x="569" y="79"/>
      <point x="569" y="240" type="curve" smooth="yes"/>
      <point x="569" y="408"/>
      <point x="463" y="501"/>
    </contour>
    <contour>
      <point x="298" y="124" type="curve" smooth="yes"/>
      <point x="236" y="124"/>
      <point x="204" y="169"/>
      <point x="204" y="245" type="curve" smooth="yes"/>
      <point x="204" y="323"/>
      <point x="240" y="365"/>
      <point x="304" y="365" type="curve" smooth="yes"/>
      <point x="365" y="365"/>
      <point x="399" y="314"/>
      <point x="399" y="240" type="curve" smooth="yes"/>
      <point x="399" y="161"/>
      <point x="361" y="124"/>
    </contour>
    <contour>
      <point x="478" y="680" type="curve" smooth="yes"/>
      <point x="478" y="722"/>
      <point x="445" y="756"/>
      <point x="401" y="756" type="curve" smooth="yes"/>
      <point x="360" y="756"/>
      <point x="324" y="722"/>
      <point x="324" y="680" type="curve" smooth="yes"/>
      <point x="324" y="636"/>
      <point x="360" y="603"/>
      <point x="401" y="603" type="curve" smooth="yes"/>
      <point x="445" y="603"/>
      <point x="478" y="636"/>
    </contour>
    <contour>
      <point x="274" y="680" type="curve" smooth="yes"/>
      <point x="274" y="722"/>
      <point x="241" y="756"/>
      <point x="197" y="756" type="curve" smooth="yes"/>
      <point x="155" y="756"/>
      <point x="120" y="722"/>
      <point x="120" y="680" type="curve" smooth="yes"/>
      <point x="120" y="636"/>
      <point x="155" y="603"/>
      <point x="197" y="603" type="curve" smooth="yes"/>
      <point x="241" y="603"/>
      <point x="274" y="636"/>
    </contour>
  </outline>
</glyph>
<glyph name="divide" format="1">
  <advance width="488"/>
  <unicode hex="00F7"/>
  <outline>
    <contour>
      <point x="330" y="94" type="curve" smooth="yes"/>
      <point x="330" y="144"/>
      <point x="292" y="182"/>
      <point x="244" y="182" type="curve" smooth="yes"/>
      <point x="195" y="182"/>
      <point x="157" y="144"/>
      <point x="157" y="94" type="curve" smooth="yes"/>
      <point x="157" y="46"/>
      <point x="195" y="8"/>
      <point x="244" y="8" type="curve" smooth="yes"/>
      <point x="292" y="8"/>
      <point x="330" y="46"/>
    </contour>
    <contour>
      <point x="330" y="451" type="curve" smooth="yes"/>
      <point x="330" y="500"/>
      <point x="292" y="538"/>
      <point x="244" y="538" type="curve" smooth="yes"/>
      <point x="195" y="538"/>
      <point x="157" y="500"/>
      <point x="157" y="451" type="curve" smooth="yes"/>
      <point x="157" y="403"/>
      <point x="195" y="365"/>
      <point x="244" y="365" type="curve" smooth="yes"/>
      <point x="292" y="365"/>
      <point x="330" y="403"/>
    </contour>
    <contour>
      <point x="470" y="212" type="line"/>
      <point x="459" y="335" type="line"/>
      <point x="19" y="335" type="line"/>
      <point x="29" y="212" type="line"/>
    </contour>
  </outline>
</glyph>
<glyph name="oslash" format="1">
  <advance width="603"/>
  <unicode hex="00F8"/>
  <outline>
    <contour>
      <point x="34" y="244" type="curve" smooth="yes"/>
      <point x="34" y="76"/>
      <point x="139" y="-11"/>
      <point x="295" y="-11" type="curve" smooth="yes"/>
      <point x="453" y="-11"/>
      <point x="569" y="78"/>
      <point x="569" y="239" type="curve" smooth="yes"/>
      <point x="569" y="407"/>
      <point x="462" y="500"/>
      <point x="301" y="500" type="curve" smooth="yes"/>
      <point x="146" y="500"/>
      <point x="34" y="405"/>
    </contour>
    <contour>
      <point x="404" y="239" type="curve" smooth="yes"/>
      <point x="404" y="161"/>
      <point x="359" y="120"/>
      <point x="296" y="120" type="curve"/>
      <point x="396" y="293" type="line"/>
      <point x="401" y="277"/>
      <point x="404" y="258"/>
    </contour>
    <contour>
      <point x="303" y="369" type="curve" smooth="yes"/>
      <point x="306" y="369"/>
      <point x="307" y="369"/>
      <point x="307" y="369" type="curve"/>
      <point x="273" y="309"/>
      <point x="239" y="250"/>
      <point x="206" y="190" type="curve"/>
      <point x="200" y="206"/>
      <point x="198" y="224"/>
      <point x="198" y="245" type="curve" smooth="yes"/>
      <point x="198" y="322"/>
      <point x="240" y="369"/>
    </contour>
  </outline>
</glyph>
<glyph name="uacute" format="1">
  <advance width="601"/>
  <unicode hex="00FA"/>
  <outline>
    <contour>
      <point x="237" y="-19" type="curve" smooth="yes"/>
      <point x="309" y="-19"/>
      <point x="377" y="14"/>
      <point x="419" y="43" type="curve"/>
      <point x="457" y="0" type="line"/>
      <point x="540" y="0" type="line"/>
      <point x="540" y="484" type="line"/>
      <point x="375" y="484" type="line"/>
      <point x="375" y="150" type="line"/>
      <point x="345" y="133"/>
      <point x="308" y="117"/>
      <point x="282" y="117" type="curve" smooth="yes"/>
      <point x="241" y="117"/>
      <point x="217" y="142"/>
      <point x="217" y="187" type="curve" smooth="yes"/>
      <point x="217" y="484" type="line"/>
      <point x="52" y="484" type="line"/>
      <point x="52" y="183" type="line" smooth="yes"/>
      <point x="52" y="68"/>
      <point x="101" y="-19"/>
    </contour>
    <contour>
      <point x="272" y="775" type="line"/>
      <point x="202" y="588" type="line"/>
      <point x="328" y="588" type="line"/>
      <point x="436" y="775" type="line"/>
    </contour>
  </outline>
</glyph>
<glyph name="udieresis" format="1">
  <advance width="601"/>
  <unicode hex="00FC"/>
  <outline>
    <contour>
      <point x="237" y="-19" type="curve" smooth="yes"/>
      <point x="309" y="-19"/>
      <point x="377" y="14"/>
      <point x="419" y="43" type="curve"/>
      <point x="457" y="0" type="line"/>
      <point x="540" y="0" type="line"/>
      <point x="540" y="484" type="line"/>
      <point x="375" y="484" type="line"/>
      <point x="375" y="150" type="line"/>
      <point x="345" y="133"/>
      <point x="308" y="117"/>
      <point x="282" y="117" type="curve" smooth="yes"/>
      <point x="241" y="117"/>
      <point x="217" y="142"/>
      <point x="217" y="187" type="curve" smooth="yes"/>
      <point x="217" y="484" type="line"/>
      <point x="52" y="484" type="line"/>
      <point x="52" y="183" type="line" smooth="yes"/>
      <point x="52" y="68"/>
      <point x="101" y="-19"/>
    </contour>
    <contour>
      <point x="271" y="680" type="curve" smooth="yes"/>
      <point x="271" y="722"/>
      <point x="238" y="756"/>
      <point x="194" y="756" type="curve" smooth="yes"/>
      <point x="153" y="756"/>
      <point x="117" y="722"/>
      <point x="117" y="680" type="curve" smooth="yes"/>
      <point x="117" y="636"/>
      <point x="153" y="603"/>
      <point x="194" y="603" type="curve" smooth="yes"/>
      <point x="238" y="603"/>
      <point x="271" y="636"/>
    </contour>
    <contour>
      <point x="475" y="680" type="curve" smooth="yes"/>
      <point x="475" y="722"/>
      <point x="442" y="756"/>
      <point x="398" y="756" type="curve" smooth="yes"/>
      <point x="357" y="756"/>
      <point x="321" y="722"/>
      <point x="321" y="680" type="curve" smooth="yes"/>
      <point x="321" y="636"/>
      <point x="357" y="603"/>
      <point x="398" y="603" type="curve" smooth="yes"/>
      <point x="442" y="603"/>
      <point x="475" y="636"/>
    </contour>
  </outline>
</glyph>
<glyph name="yacute" format="1">
  <advance width="546"/>
  <unicode hex="00FD"/>
  <outline>
    <contour>
      <point x="177" y="-9" type="line" smooth="yes"/>
      <point x="164" y="-43"/>
      <point x="99" y="-70"/>
      <point x="52" y="-90" type="curve"/>
      <point x="108" y="-220" type="line"/>
      <point x="201" y="-198"/>
      <point x="290" y="-138"/>
      <point x="322" y="-59" type="curve" smooth="yes"/>
      <point x="537" y="485" type="line"/>
      <point x="371" y="485" type="line"/>
      <point x="338" y="391"/>
      <point x="306" y="297"/>
      <point x="273" y="204" type="curve"/>
      <point x="240" y="297"/>
      <point x="205" y="391"/>
      <point x="171" y="485" type="curve"/>
      <point x="8" y="467" type="line"/>
      <point x="187" y="17" type="line"/>
    </contour>
    <contour>
      <point x="232" y="775" type="line"/>
      <point x="163" y="588" type="line"/>
      <point x="289" y="588" type="line"/>
      <point x="397" y="775" type="line"/>
    </contour>
  </outline>
</glyph>
<glyph name="thorn" format="1">
  <advance width="601"/>
  <unicode hex="00FE"/>
  <outline>
    <contour>
      <point x="227" y="692" type="line"/>
      <point x="63" y="685" type="line"/>
      <point x="63" y="-219" type="line"/>
      <point x="227" y="-209" type="line"/>
      <point x="227" y="15" type="line"/>
      <point x="260" y="0"/>
      <point x="298" y="-11"/>
      <point x="331" y="-11" type="curve" smooth="yes"/>
      <point x="492" y="-11"/>
      <point x="566" y="102"/>
      <point x="566" y="248" type="curve" smooth="yes"/>
      <point x="566" y="394"/>
      <point x="490" y="502"/>
      <point x="337" y="502" type="curve" smooth="yes"/>
      <point x="300" y="502"/>
      <point x="262" y="493"/>
      <point x="227" y="475" type="curve"/>
    </contour>
    <contour>
      <point x="397" y="246" type="curve" smooth="yes"/>
      <point x="397" y="191"/>
      <point x="372" y="124"/>
      <point x="305" y="124" type="curve" smooth="yes"/>
      <point x="279" y="124"/>
      <point x="248" y="136"/>
      <point x="227" y="153" type="curve"/>
      <point x="227" y="347" type="line"/>
      <point x="246" y="358"/>
      <point x="269" y="367"/>
      <point x="295" y="367" type="curve" smooth="yes"/>
      <point x="368" y="367"/>
      <point x="397" y="310"/>
    </contour>
  </outline>
</glyph>
<glyph name="ydieresis" format="1">
  <advance width="546"/>
  <unicode hex="00FF"/>
  <outline>
    <contour>
      <point x="177" y="-9" type="line" smooth="yes"/>
      <point x="164" y="-43"/>
      <point x="99" y="-70"/>
      <point x="52" y="-90" type="curve"/>
      <point x="108" y="-220" type="line"/>
      <point x="201" y="-198"/>
      <point x="290" y="-138"/>
      <point x="322" y="-59" type="curve" smooth="yes"/>
      <point x="537" y="485" type="line"/>
      <point x="371" y="485" type="line"/>
      <point x="338" y="391"/>
      <point x="306" y="297"/>
      <point x="273" y="204" type="curve"/>
      <point x="240" y="297"/>
      <point x="205" y="391"/>
      <point x="171" y="485" type="curve"/>
      <point x="8" y="467" type="line"/>
      <point x="187" y="17" type="line"/>
    </contour>
    <contour>
      <point x="249" y="679" type="curve" smooth="yes"/>
      <point x="249" y="722"/>
      <point x="215" y="756"/>
      <point x="171" y="756" type="curve" smooth="yes"/>
      <point x="130" y="756"/>
      <point x="94" y="722"/>
      <point x="94" y="679" type="curve" smooth="yes"/>
      <point x="94" y="636"/>
      <point x="130" y="603"/>
      <point x="171" y="603" type="curve" smooth="yes"/>
      <point x="215" y="603"/>
      <point x="249" y="636"/>
    </contour>
    <contour>
      <point x="453" y="679" type="curve" smooth="yes"/>
      <point x="453" y="722"/>
      <point x="420" y="756"/>
      <point x="376" y="756" type="curve" smooth="yes"/>
      <point x="335" y="756"/>
      <point x="299" y="722"/>
      <point x="299" y="679" type="curve" smooth="yes"/>
      <point x="299" y="636"/>
      <point x="335" y="603"/>
      <point x="376" y="603" type="curve" smooth="yes"/>
      <point x="420" y="603"/>
      <point x="453" y="636"/>
    </contour>
  </outline>
</glyph>
<glyph name="Amacron" format="1">
  <advance width="691"/>
  <unicode hex="0100"/>
  <outline>
    <contour>
      <point x="425" y="680" type="line"/>
      <point x="267" y="680" type="line"/>
      <point x="9" y="0" type="line"/>
      <point x="172" y="0" type="line"/>
      <point x="224" y="143" type="line"/>
      <point x="467" y="143" type="line"/>
      <point x="520" y="0" type="line"/>
      <point x="682" y="18" type="line"/>
    </contour>
    <contour>
      <point x="201" y="892" type="line"/>
      <point x="201" y="763" type="line"/>
      <point x="481" y="763" type="line"/>
      <point x="481" y="892" type="line"/>
    </contour>
    <contour>
      <point x="343" y="476" type="line"/>
      <point x="419" y="273" type="line"/>
      <point x="270" y="273" type="line"/>
    </contour>
  </outline>
</glyph>
<glyph name="Abreve" format="1">
  <advance width="691"/>
  <unicode hex="0102"/>
  <outline>
    <contour>
      <point x="425" y="680" type="line"/>
      <point x="267" y="680" type="line"/>
      <point x="9" y="0" type="line"/>
      <point x="172" y="0" type="line"/>
      <point x="224" y="143" type="line"/>
      <point x="467" y="143" type="line"/>
      <point x="520" y="0" type="line"/>
      <point x="682" y="18" type="line"/>
    </contour>
    <contour>
      <point x="343" y="739" type="curve"/>
      <point x="450" y="741"/>
      <point x="512" y="815"/>
      <point x="512" y="919" type="curve"/>
      <point x="397" y="919" type="line"/>
      <point x="397" y="886"/>
      <point x="379" y="858"/>
      <point x="343" y="858" type="curve" smooth="yes"/>
      <point x="307" y="858"/>
      <point x="289" y="886"/>
      <point x="289" y="919" type="curve"/>
      <point x="174" y="919" type="line"/>
      <point x="174" y="815"/>
      <point x="236" y="741"/>
    </contour>
    <contour>
      <point x="343" y="476" type="line"/>
      <point x="419" y="273" type="line"/>
      <point x="270" y="273" type="line"/>
    </contour>
  </outline>
</glyph>
<glyph name="Aogonek" format="1">
  <advance width="691"/>
  <unicode hex="0104"/>
  <outline>
    <contour>
      <point x="518" y="1" type="line"/>
      <point x="497" y="-20"/>
      <point x="486" y="-64"/>
      <point x="486" y="-93" type="curve" smooth="yes"/>
      <point x="486" y="-163"/>
      <point x="535" y="-228"/>
      <point x="624" y="-228" type="curve" smooth="yes"/>
      <point x="671" y="-228"/>
      <point x="713" y="-212"/>
      <point x="739" y="-186" type="curve"/>
      <point x="722" y="-154"/>
      <point x="704" y="-123"/>
      <point x="687" y="-92" type="curve"/>
      <point x="669" y="-106"/>
      <point x="655" y="-111"/>
      <point x="644" y="-111" type="curve" smooth="yes"/>
      <point x="624" y="-111"/>
      <point x="614" y="-96"/>
      <point x="614" y="-80" type="curve" smooth="yes"/>
      <point x="614" y="-53"/>
      <point x="657" y="1"/>
      <point x="681" y="17" type="curve"/>
      <point x="424" y="680" type="line"/>
      <point x="267" y="680" type="line"/>
      <point x="8" y="0" type="line"/>
      <point x="172" y="0" type="line"/>
      <point x="223" y="142" type="line"/>
      <point x="466" y="142" type="line"/>
    </contour>
    <contour>
      <point x="342" y="475" type="curve"/>
      <point x="368" y="407"/>
      <point x="393" y="340"/>
      <point x="418" y="272" type="curve"/>
      <point x="269" y="272" type="line"/>
      <point x="294" y="340"/>
      <point x="318" y="407"/>
    </contour>
  </outline>
</glyph>
<glyph name="Cacute" format="1">
  <advance width="602"/>
  <unicode hex="0106"/>
  <outline>
    <contour>
      <point x="368" y="558" type="curve" smooth="yes"/>
      <point x="417" y="558"/>
      <point x="443" y="551"/>
      <point x="512" y="529" type="curve"/>
      <point x="561" y="641" type="line"/>
      <point x="506" y="676"/>
      <point x="426" y="693"/>
      <point x="368" y="693" type="curve" smooth="yes"/>
      <point x="166" y="693"/>
      <point x="46" y="547"/>
      <point x="46" y="337" type="curve" smooth="yes"/>
      <point x="46" y="133"/>
      <point x="150" y="-13"/>
      <point x="369" y="-13" type="curve" smooth="yes"/>
      <point x="434" y="-13"/>
      <point x="515" y="4"/>
      <point x="567" y="35" type="curve"/>
      <point x="505" y="157" type="line"/>
      <point x="468" y="137"/>
      <point x="422" y="122"/>
      <point x="369" y="122" type="curve" smooth="yes"/>
      <point x="273" y="122"/>
      <point x="216" y="209"/>
      <point x="216" y="338" type="curve" smooth="yes"/>
      <point x="216" y="472"/>
      <point x="277" y="558"/>
    </contour>
    <contour>
      <point x="327" y="922" type="line"/>
      <point x="259" y="738" type="line"/>
      <point x="382" y="738" type="line"/>
      <point x="488" y="922" type="line"/>
    </contour>
  </outline>
</glyph>
<glyph name="ccaron" format="1">
  <advance width="487"/>
  <unicode hex="010D"/>
  <outline>
    <contour>
      <point x="306" y="365" type="curve" smooth="yes"/>
      <point x="345" y="365"/>
      <point x="371" y="357"/>
      <point x="412" y="337" type="curve"/>
      <point x="459" y="451" type="line"/>
      <point x="405" y="492"/>
      <point x="334" y="501"/>
      <point x="294" y="501" type="curve" smooth="yes"/>
      <point x="136" y="501"/>
      <point x="34" y="403"/>
      <point x="34" y="242" type="curve" smooth="yes"/>
      <point x="34" y="82"/>
      <point x="136" y="-11"/>
      <point x="294" y="-11" type="curve" smooth="yes"/>
      <point x="334" y="-11"/>
      <point x="406" y="-3"/>
      <point x="459" y="38" type="curve"/>
      <point x="412" y="152" type="line"/>
      <point x="371" y="132"/>
      <point x="343" y="124"/>
      <point x="306" y="124" type="curve" smooth="yes"/>
      <point x="249" y="124"/>
      <point x="204" y="168"/>
      <point x="204" y="242" type="curve" smooth="yes"/>
      <point x="204" y="316"/>
      <point x="249" y="365"/>
    </contour>
    <contour>
      <point x="46" y="775" type="line"/>
      <point x="212" y="588" type="line"/>
      <point x="307" y="588" type="line"/>
      <point x="473" y="775" type="line"/>
      <point x="319" y="775" type="line"/>
      <point x="262" y="712" type="line"/>
      <point x="204" y="775" type="line"/>
    </contour>
  </outline>
</glyph>
<glyph name="Dcaron" format="1">
  <advance width="714"/>
  <unicode hex="010E"/>
  <outline>
    <contour>
      <point x="353" y="0" type="line" smooth="yes"/>
      <point x="547" y="0"/>
      <point x="674" y="132"/>
      <point x="674" y="344" type="curve" smooth="yes"/>
      <point x="674" y="541"/>
      <point x="566" y="680"/>
      <point x="353" y="680" type="curve" smooth="yes"/>
      <point x="74" y="680" type="line"/>
      <point x="74" y="0" type="line"/>
    </contour>
    <contour>
      <point x="351" y="548" type="line" smooth="yes"/>
      <point x="453" y="548"/>
      <point x="504" y="466"/>
      <point x="504" y="344" type="curve" smooth="yes"/>
      <point x="504" y="196"/>
      <point x="438" y="131"/>
      <point x="344" y="131" type="curve" smooth="yes"/>
      <point x="238" y="131" type="line"/>
      <point x="238" y="548" type="line"/>
    </contour>
    <contour>
      <point x="113" y="926" type="line"/>
      <point x="280" y="739" type="line"/>
      <point x="375" y="739" type="line"/>
      <point x="430" y="801"/>
      <point x="486" y="863"/>
      <point x="541" y="926" type="curve"/>
      <point x="387" y="926" type="line"/>
      <point x="368" y="904"/>
      <point x="348" y="884"/>
      <point x="330" y="863" type="curve"/>
      <point x="310" y="884"/>
      <point x="291" y="904"/>
      <point x="272" y="926" type="curve"/>
    </contour>
  </outline>
</glyph>
<glyph name="dcaron" format="1">
  <advance width="805"/>
  <unicode hex="010F"/>
  <outline>
    <contour>
      <point x="542" y="706" type="line"/>
      <point x="377" y="695" type="line"/>
      <point x="377" y="475" type="line"/>
      <point x="343" y="492"/>
      <point x="305" y="503"/>
      <point x="271" y="503" type="curve" smooth="yes"/>
      <point x="110" y="503"/>
      <point x="34" y="389"/>
      <point x="34" y="243" type="curve" smooth="yes"/>
      <point x="34" y="97"/>
      <point x="111" y="-11"/>
      <point x="263" y="-11" type="curve" smooth="yes"/>
      <point x="335" y="-11"/>
      <point x="391" y="18"/>
      <point x="425" y="49" type="curve"/>
      <point x="458" y="0" type="line"/>
      <point x="542" y="0" type="line"/>
    </contour>
    <contour>
      <point x="795" y="641" type="curve" smooth="yes"/>
      <point x="795" y="701"/>
      <point x="756" y="742"/>
      <point x="708" y="742" type="curve" smooth="yes"/>
      <point x="660" y="742"/>
      <point x="623" y="698"/>
      <point x="623" y="656" type="curve" smooth="yes"/>
      <point x="623" y="621"/>
      <point x="646" y="590"/>
      <point x="670" y="580" type="curve"/>
      <point x="663" y="554"/>
      <point x="637" y="532"/>
      <point x="613" y="515" type="curve"/>
      <point x="646" y="442" type="line"/>
      <point x="731" y="478"/>
      <point x="795" y="563"/>
    </contour>
    <contour>
      <point x="305" y="124" type="curve" smooth="yes"/>
      <point x="233" y="124"/>
      <point x="204" y="181"/>
      <point x="204" y="245" type="curve" smooth="yes"/>
      <point x="204" y="300"/>
      <point x="228" y="367"/>
      <point x="295" y="367" type="curve" smooth="yes"/>
      <point x="321" y="367"/>
      <point x="354" y="354"/>
      <point x="377" y="335" type="curve"/>
      <point x="377" y="145" type="line"/>
      <point x="356" y="133"/>
      <point x="325" y="124"/>
    </contour>
  </outline>
</glyph>
<glyph name="dcroat" format="1">
  <advance width="605"/>
  <unicode hex="0111"/>
  <outline>
    <contour>
      <point x="604" y="535" type="line"/>
      <point x="599" y="571"/>
      <point x="595" y="606"/>
      <point x="589" y="641" type="curve"/>
      <point x="541" y="641" type="line"/>
      <point x="541" y="706" type="line"/>
      <point x="377" y="695" type="line"/>
      <point x="377" y="641" type="line"/>
      <point x="279" y="641" type="line"/>
      <point x="294" y="535" type="line"/>
      <point x="377" y="535" type="line"/>
      <point x="377" y="475" type="line"/>
      <point x="343" y="492"/>
      <point x="304" y="502"/>
      <point x="271" y="502" type="curve" smooth="yes"/>
      <point x="109" y="502"/>
      <point x="34" y="389"/>
      <point x="34" y="242" type="curve" smooth="yes"/>
      <point x="34" y="97"/>
      <point x="110" y="-11"/>
      <point x="262" y="-11" type="curve" smooth="yes"/>
      <point x="335" y="-11"/>
      <point x="390" y="18"/>
      <point x="424" y="48" type="curve"/>
      <point x="457" y="0" type="line"/>
      <point x="541" y="0" type="line"/>
      <point x="541" y="535" type="line"/>
    </contour>
    <contour>
      <point x="203" y="245" type="curve" smooth="yes"/>
      <point x="203" y="300"/>
      <point x="227" y="367"/>
      <point x="295" y="367" type="curve" smooth="yes"/>
      <point x="321" y="367"/>
      <point x="354" y="353"/>
      <point x="377" y="334" type="curve"/>
      <point x="377" y="145" type="line"/>
      <point x="355" y="133"/>
      <point x="325" y="124"/>
      <point x="304" y="124" type="curve" smooth="yes"/>
      <point x="232" y="124"/>
      <point x="203" y="180"/>
    </contour>
  </outline>
</glyph>
